<svg width="200" height="100" viewBox="0 0 200 100" fill="none" xmlns="http://www.w3.org/2000/svg">
<g clip-path="url(#clip0_450_16)">
<rect width="200" height="100" fill="#FFFCF9"/>
<rect x="1" y="1" width="198" height="98" rx="9" stroke="#5E4F94" stroke-width="2"/>
<path d="M39 15.5C39 19.0899 36.0899 22 32.5 22C28.9101 22 26 19.0899 26 15.5C26 11.9101 28.9101 9 32.5 9C36.0899 9 39 11.9101 39 15.5Z" stroke="#5E4F94" stroke-width="2"/>
<path d="M50.5797 53.5768L50.5851 53.6213L50.5945 53.6652L50.9458 55.3123C51.2265 56.6291 50.3845 57.927 49.0558 58.2082L49.0557 58.2083C47.727 58.4896 46.4261 57.6437 46.1444 56.3269L43.1257 42.1728L41.1477 42.3814V58.3831V61.6147V63.6345V82.5927V87.8449C41.1477 89.5809 39.7285 91 37.9807 91C36.2295 91 34.8099 89.5794 34.8099 87.8449V82.5927V63.6345V61.6147V60.6147H33.8099H31.0689H30.0689V61.6147V63.6345V82.5917V87.844C30.0689 89.5803 28.6504 90.9991 26.9028 90.9991C25.1516 90.9991 23.7321 89.5785 23.7321 87.844V82.5917V63.6335V61.6137V58.3822V42.9474L21.7541 42.7388L18.8559 56.3269C18.5743 57.6436 17.2725 58.4896 15.9447 58.2083L15.9444 58.2082C14.6147 57.9269 13.7732 56.6283 14.0544 55.3128L14.0545 55.3123L14.4661 53.3816L14.4686 53.3699L14.4709 53.3581C14.4762 53.33 14.4798 53.3045 14.4823 53.2829L19.5223 29.6546L19.5226 29.6532C19.5965 29.3044 19.7531 28.9846 19.9725 28.6958L20.005 28.6531L20.0327 28.6072C20.1448 28.4212 20.4756 28.1146 21.1931 27.7699C21.8807 27.4396 22.8091 27.1285 23.9458 26.8618C26.2155 26.3293 29.2035 26 32.5006 26C35.256 26 37.8014 26.2299 39.8936 26.6176C42.0013 27.0082 43.5515 27.5417 44.4082 28.0941L44.4235 28.1062C44.439 28.1183 44.4627 28.1365 44.4915 28.1565L44.4947 28.1587C44.6195 28.2447 44.7143 28.3202 44.7839 28.3857L44.7908 28.3921C44.7923 28.3938 44.7943 28.396 44.797 28.3989L44.8097 28.413L44.8279 28.4331C44.8393 28.4457 44.8544 28.4623 44.8718 28.4806L44.8879 28.4981L44.9084 28.5204C44.9213 28.5345 44.9312 28.5455 44.9395 28.555C44.9519 28.569 44.9571 28.5756 44.9579 28.5766L44.9756 28.6013L44.9963 28.6266C45.2486 28.9339 45.4266 29.2765 45.5072 29.6546L45.5072 29.6546L50.5568 53.3277C50.5572 53.3308 50.5589 53.3434 50.5614 53.3746L50.5642 53.4101L50.5678 53.4556C50.5704 53.4885 50.5741 53.5306 50.5797 53.5768Z" stroke="#5E4F94" stroke-width="2"/>
<path d="M174 15.5C174 19.0899 171.09 22 167.5 22C163.91 22 161 19.0899 161 15.5C161 11.9101 163.91 9 167.5 9C171.09 9 174 11.9101 174 15.5Z" stroke="#5E4F94" stroke-width="2"/>
<path d="M185.58 53.5768L185.585 53.6213L185.594 53.6652L185.946 55.3123C186.227 56.6291 185.385 57.927 184.056 58.2082L184.056 58.2083C182.727 58.4896 181.426 57.6437 181.144 56.3269L178.126 42.1728L176.148 42.3814V58.3831V61.6147V63.6345V82.5927V87.8449C176.148 89.5809 174.728 91 172.981 91C171.229 91 169.81 89.5794 169.81 87.8449V82.5927V63.6345V61.6147V60.6147H168.81H166.069H165.069V61.6147V63.6345V82.5917V87.844C165.069 89.5803 163.65 90.9991 161.903 90.9991C160.152 90.9991 158.732 89.5785 158.732 87.844V82.5917V63.6335V61.6137V58.3822V42.9474L156.754 42.7388L153.856 56.3269C153.574 57.6436 152.272 58.4896 150.945 58.2083L150.944 58.2082C149.615 57.9269 148.773 56.6283 149.054 55.3128L149.055 55.3123L149.466 53.3816L149.469 53.3699L149.471 53.3581C149.476 53.33 149.48 53.3045 149.482 53.2829L154.522 29.6546L154.523 29.6532C154.596 29.3044 154.753 28.9846 154.973 28.6958L155.005 28.6531L155.033 28.6072C155.145 28.4212 155.476 28.1146 156.193 27.7699C156.881 27.4396 157.809 27.1285 158.946 26.8618C161.215 26.3293 164.203 26 167.501 26C170.256 26 172.801 26.2299 174.894 26.6176C177.001 27.0082 178.552 27.5417 179.408 28.0941L179.424 28.1062C179.439 28.1183 179.463 28.1365 179.492 28.1565L179.495 28.1587C179.619 28.2447 179.714 28.3202 179.784 28.3857L179.791 28.3921C179.792 28.3938 179.794 28.396 179.797 28.3989L179.81 28.413L179.828 28.4331C179.839 28.4457 179.854 28.4623 179.872 28.4806L179.888 28.4981L179.908 28.5204C179.921 28.5345 179.931 28.5455 179.94 28.555C179.952 28.569 179.957 28.5756 179.958 28.5766L179.976 28.6013L179.996 28.6266C180.249 28.9339 180.427 29.2765 180.507 29.6546L180.507 29.6546L185.557 53.3277C185.557 53.3308 185.559 53.3434 185.561 53.3746L185.564 53.4101L185.568 53.4556C185.57 53.4885 185.574 53.5306 185.58 53.5768Z" stroke="#5E4F94" stroke-width="2"/>
<path d="M99.0319 50.1693L99.5613 49.638L99.0319 50.1693ZM141.774 50.1042C141.832 49.694 141.546 49.3148 141.136 49.2572L134.451 48.3189C134.041 48.2613 133.662 48.5471 133.604 48.9573C133.547 49.3675 133.833 49.7467 134.243 49.8043L140.185 50.6384L139.351 56.5801C139.293 56.9903 139.579 57.3695 139.989 57.4271C140.399 57.4847 140.778 57.1988 140.836 56.7886L141.774 50.1042ZM57.0323 50.3386C57.4837 50.9375 57.4836 50.9376 57.4835 50.9377C57.4836 50.9376 57.4836 50.9376 57.4838 50.9374C57.4842 50.9371 57.485 50.9366 57.4861 50.9357C57.4884 50.934 57.4921 50.9313 57.4972 50.9275C57.5075 50.9198 57.5234 50.908 57.545 50.8922C57.5882 50.8605 57.6538 50.8129 57.7409 50.751C57.9152 50.6271 58.1754 50.4459 58.5142 50.2206C59.1921 49.7699 60.1837 49.1433 61.4307 48.4456C63.9273 47.0489 67.4338 45.375 71.485 44.2539C79.5789 42.0141 89.7626 41.9921 98.5025 50.7006L99.5613 49.638C90.3089 40.4189 79.4928 40.4815 71.0849 42.8083C66.8852 43.9705 63.2654 45.7004 60.6983 47.1366C59.4135 47.8554 58.389 48.5025 57.6837 48.9715C57.331 49.206 57.0578 49.3961 56.8716 49.5286C56.7785 49.5948 56.7071 49.6466 56.6583 49.6823C56.6339 49.7002 56.6152 49.7141 56.6022 49.7237C56.5958 49.7285 56.5907 49.7323 56.5872 49.7349C56.5854 49.7363 56.5839 49.7374 56.5829 49.7382C56.5823 49.7385 56.5818 49.7389 56.5816 49.7391C56.5811 49.7395 56.5808 49.7397 57.0323 50.3386ZM98.5025 50.7006C107.755 59.9197 118.571 59.857 126.979 57.5303C131.179 56.3681 134.798 54.6382 137.365 53.202C138.65 52.4831 139.675 51.836 140.38 51.3671C140.733 51.1325 141.006 50.9424 141.192 50.81C141.285 50.7438 141.357 50.6919 141.406 50.6562C141.43 50.6383 141.449 50.6245 141.462 50.6148C141.468 50.61 141.473 50.6063 141.477 50.6036C141.478 50.6022 141.48 50.6012 141.481 50.6004C141.481 50.6 141.482 50.5996 141.482 50.5994C141.483 50.5991 141.483 50.5988 141.032 49.9999C140.58 49.401 140.58 49.4009 140.58 49.4008C140.58 49.4009 140.58 49.4009 140.58 49.4011C140.58 49.4014 140.579 49.402 140.578 49.4028C140.575 49.4045 140.572 49.4073 140.567 49.4111C140.556 49.4187 140.54 49.4305 140.519 49.4464C140.476 49.478 140.41 49.5256 140.323 49.5876C140.149 49.7115 139.888 49.8927 139.55 50.1179C138.872 50.5686 137.88 51.1953 136.633 51.8929C134.137 53.2897 130.63 54.9635 126.579 56.0846C118.485 58.3244 108.301 58.3465 99.5613 49.638L98.5025 50.7006Z" fill="#5E4F94"/>
<rect width="22" height="22" transform="translate(89 39)" fill="#FFFCF9"/>
<path d="M108.087 50.4488L108.087 50.4488C108.178 47.714 107.104 45.3999 105.502 44.6309L105.501 44.6308C104.14 43.975 102.454 44.3957 100.587 45.9885L100.587 45.9888L100.331 46.2058L100.212 46.3068L100.085 46.2159L99.813 46.0206C99.8129 46.0206 99.8129 46.0206 99.8128 46.0205C98.2469 44.9036 96.8636 44.3584 95.7203 44.3584C95.1799 44.3584 94.692 44.48 94.2605 44.7218L94.1627 44.5473L94.2605 44.7218C92.8641 45.504 92.0566 47.6291 92.2503 50.3532L92.2513 50.3673H92.2508C92.2518 52.0386 92.7826 53.8504 93.608 55.3623C94.4362 56.8792 95.5424 58.0609 96.6689 58.5133L108.087 50.4488ZM108.087 50.4488V50.4555M108.087 50.4488V50.4555M108.087 50.4555V50.4705C108.087 52.0539 107.543 53.7953 106.695 55.2632C105.844 56.7347 104.705 57.9006 103.539 58.3673L103.539 58.3673M108.087 50.4555L103.539 58.3673M103.539 58.3673C102.992 58.5864 102.483 58.6326 102.007 58.519M103.539 58.3673L102.007 58.519M100.178 57.1911L100.323 57.3428L100.634 57.6693L100.178 57.1911ZM100.178 57.1911L100.034 57.3428M100.178 57.1911L100.034 57.3428M100.034 57.3428L99.7221 57.6694L99.722 57.6694M100.034 57.3428L99.722 57.6694M99.722 57.6694C99.2364 58.1789 98.7392 58.4938 98.2363 58.6307M99.722 57.6694L98.2363 58.6307M102.007 58.519C101.531 58.4052 101.072 58.127 100.635 57.6694L102.007 58.519ZM98.2363 58.6307C97.7358 58.7668 97.2143 58.731 96.6693 58.5134L98.2363 58.6307ZM106.049 43.4927L106.049 43.4926C104.487 42.7418 102.669 43.0255 100.853 44.2131C101.01 43.2138 101.524 41.8901 103.083 41.234L103.084 41.2337C103.385 41.1054 103.528 40.7659 103.428 40.4627L103.428 40.4627C103.311 40.1098 102.918 39.9354 102.578 40.079L102.577 40.0791C100.32 41.0357 99.7199 43.0661 99.5755 44.3594C96.7477 42.6626 94.8165 42.9635 93.6438 43.6209L93.6436 43.621C91.7268 44.6982 90.7697 47.2717 90.9914 50.4046C90.9929 52.3226 91.598 54.3564 92.5436 56.048C93.488 57.7375 94.7888 59.1145 96.2023 59.6796C96.6112 59.8436 97.105 59.9711 97.6496 59.9711C98.4312 59.9711 99.3047 59.7116 100.183 58.9628C101.304 59.8702 102.647 60.077 104.006 59.5336L104.006 59.5336C105.45 58.9559 106.782 57.6021 107.75 55.9528C108.72 54.3017 109.342 52.3279 109.344 50.4782C109.449 47.2852 108.184 44.5221 106.049 43.4927Z" fill="#5E4F94" stroke="#5E4F94" stroke-width="0.4"/>
<path d="M94.1908 47.3383L94.1912 47.3384C94.5131 47.4103 94.7289 47.7155 94.6784 48.0471L94.1908 47.3383ZM94.1908 47.3383C93.8361 47.2598 93.4867 47.4954 93.4301 47.8572L93.6277 47.8881L93.4302 47.8568C93.3104 48.6128 93.1351 50.1965 93.4037 51.9335C93.6725 53.6709 94.3886 55.5804 96.0682 56.9587C96.3477 57.1887 96.7725 57.1514 96.9899 56.8445L96.9904 56.8439M94.1908 47.3383L96.9904 56.8439M96.9904 56.8439C97.1718 56.5856 97.145 56.212 96.8841 56L96.758 56.1553M96.9904 56.8439L96.758 56.1553M96.758 56.1553C96.9299 56.2949 96.9535 56.5484 96.8267 56.7289L96.758 56.1553ZM96.758 56.1553L96.8846 56.0005M96.758 56.1553L96.8846 56.0005M96.8846 56.0005C95.4897 54.8591 94.8835 53.215 94.6546 51.6709M96.8846 56.0005L94.6546 51.6709M94.6546 51.6709C94.4258 50.1276 94.5778 48.7075 94.6784 48.0471L94.6546 51.6709Z" fill="#5E4F94" stroke="#5E4F94" stroke-width="0.4"/>
</g>
<defs>
<clipPath id="clip0_450_16">
<rect width="200" height="100" fill="white"/>
</clipPath>
</defs>
</svg>
