<svg width="200" height="100" viewBox="0 0 200 100" fill="none" xmlns="http://www.w3.org/2000/svg">
<g clip-path="url(#clip0_502_635)">
<rect width="200" height="100" fill="#FFFCF9"/>
<rect x="1" y="1" width="198" height="98" rx="9" stroke="#5E4F94" stroke-width="2"/>
<path d="M39 15.5C39 19.0899 36.0899 22 32.5 22C28.9101 22 26 19.0899 26 15.5C26 11.9101 28.9101 9 32.5 9C36.0899 9 39 11.9101 39 15.5Z" stroke="#5E4F94" stroke-width="2"/>
<path d="M50.5797 53.5768L50.5851 53.6213L50.5945 53.6652L50.9458 55.3123C51.2265 56.6291 50.3845 57.927 49.0558 58.2082L49.0557 58.2083C47.727 58.4896 46.4261 57.6437 46.1444 56.3269L43.1257 42.1728L41.1477 42.3814V58.3831V61.6147V63.6345V82.5927V87.8449C41.1477 89.5809 39.7285 91 37.9807 91C36.2295 91 34.8099 89.5794 34.8099 87.8449V82.5927V63.6345V61.6147V60.6147H33.8099H31.0689H30.0689V61.6147V63.6345V82.5917V87.844C30.0689 89.5803 28.6504 90.9991 26.9028 90.9991C25.1516 90.9991 23.7321 89.5785 23.7321 87.844V82.5917V63.6335V61.6137V58.3822V42.9474L21.7541 42.7388L18.8559 56.3269C18.5743 57.6436 17.2725 58.4896 15.9447 58.2083L15.9444 58.2082C14.6147 57.9269 13.7732 56.6283 14.0544 55.3128L14.0545 55.3123L14.4661 53.3816L14.4686 53.3699L14.4709 53.3581C14.4762 53.33 14.4798 53.3045 14.4823 53.2829L19.5223 29.6546L19.5226 29.6532C19.5965 29.3044 19.7531 28.9846 19.9725 28.6958L20.005 28.6531L20.0327 28.6072C20.1448 28.4212 20.4756 28.1146 21.1931 27.7699C21.8807 27.4396 22.8091 27.1285 23.9458 26.8618C26.2155 26.3293 29.2035 26 32.5006 26C35.256 26 37.8014 26.2299 39.8936 26.6176C42.0013 27.0082 43.5515 27.5417 44.4082 28.0941L44.4235 28.1062C44.439 28.1183 44.4627 28.1365 44.4915 28.1565L44.4947 28.1587C44.6195 28.2447 44.7143 28.3202 44.7839 28.3857L44.7908 28.3921C44.7923 28.3938 44.7943 28.396 44.797 28.3989L44.8097 28.413L44.8279 28.4331C44.8393 28.4457 44.8544 28.4623 44.8718 28.4806L44.8879 28.4981L44.9084 28.5204C44.9213 28.5345 44.9312 28.5455 44.9395 28.555C44.9519 28.569 44.9571 28.5756 44.9579 28.5766L44.9756 28.6013L44.9963 28.6266C45.2486 28.9339 45.4266 29.2765 45.5072 29.6546L45.5072 29.6546L50.5568 53.3277C50.5572 53.3308 50.5589 53.3434 50.5614 53.3746L50.5642 53.4101L50.5678 53.4556C50.5704 53.4885 50.5741 53.5306 50.5797 53.5768Z" stroke="#5E4F94" stroke-width="2"/>
<path d="M174 15.5C174 19.0899 171.09 22 167.5 22C163.91 22 161 19.0899 161 15.5C161 11.9101 163.91 9 167.5 9C171.09 9 174 11.9101 174 15.5Z" stroke="#5E4F94" stroke-width="2"/>
<path d="M185.58 53.5768L185.585 53.6213L185.594 53.6652L185.946 55.3123C186.227 56.6291 185.385 57.927 184.056 58.2082L184.056 58.2083C182.727 58.4896 181.426 57.6437 181.144 56.3269L178.126 42.1728L176.148 42.3814V58.3831V61.6147V63.6345V82.5927V87.8449C176.148 89.5809 174.728 91 172.981 91C171.229 91 169.81 89.5794 169.81 87.8449V82.5927V63.6345V61.6147V60.6147H168.81H166.069H165.069V61.6147V63.6345V82.5917V87.844C165.069 89.5803 163.65 90.9991 161.903 90.9991C160.152 90.9991 158.732 89.5785 158.732 87.844V82.5917V63.6335V61.6137V58.3822V42.9474L156.754 42.7388L153.856 56.3269C153.574 57.6436 152.272 58.4896 150.945 58.2083L150.944 58.2082C149.615 57.9269 148.773 56.6283 149.054 55.3128L149.055 55.3123L149.466 53.3816L149.469 53.3699L149.471 53.3581C149.476 53.33 149.48 53.3045 149.482 53.2829L154.522 29.6546L154.523 29.6532C154.596 29.3044 154.753 28.9846 154.973 28.6958L155.005 28.6531L155.033 28.6072C155.145 28.4212 155.476 28.1146 156.193 27.7699C156.881 27.4396 157.809 27.1285 158.946 26.8618C161.215 26.3293 164.203 26 167.501 26C170.256 26 172.801 26.2299 174.894 26.6176C177.001 27.0082 178.552 27.5417 179.408 28.0941L179.424 28.1062C179.439 28.1183 179.463 28.1365 179.492 28.1565L179.495 28.1587C179.619 28.2447 179.714 28.3202 179.784 28.3857L179.791 28.3921C179.792 28.3938 179.794 28.396 179.797 28.3989L179.81 28.413L179.828 28.4331C179.839 28.4457 179.854 28.4623 179.872 28.4806L179.888 28.4981L179.908 28.5204C179.921 28.5345 179.931 28.5455 179.94 28.555C179.952 28.569 179.957 28.5756 179.958 28.5766L179.976 28.6013L179.996 28.6266C180.249 28.9339 180.427 29.2765 180.507 29.6546L180.507 29.6546L185.557 53.3277C185.557 53.3308 185.559 53.3434 185.561 53.3746L185.564 53.4101L185.568 53.4556C185.57 53.4885 185.574 53.5306 185.58 53.5768Z" stroke="#5E4F94" stroke-width="2"/>
<path d="M73.1014 51.3082C71.173 50.3595 68.8741 50.7868 66.5489 52.5013C66.6435 51.2007 67.1637 49.0266 69.4862 48.0269C69.7332 47.9194 69.854 47.6319 69.77 47.3712C69.6728 47.0702 69.3443 46.9197 69.058 47.0433C66.1811 48.2903 65.5952 51.0609 65.5006 52.5927C61.9169 50.2709 59.5445 50.6659 58.1572 51.4613C55.9319 52.7405 54.768 55.839 55.0386 59.7196C55.0386 64.4251 57.9444 69.7434 61.2575 71.0978C61.7356 71.294 62.3084 71.4444 62.9363 71.4444C63.8769 71.4444 64.9462 71.1112 66.0313 70.1035C67.366 71.2966 68.9765 71.5869 70.6186 70.915C74.0131 69.5257 76.9898 64.3418 76.9925 59.8163C77.1212 55.874 75.5921 52.5363 73.1014 51.3082Z" stroke="#5E4F94" stroke-linecap="round" stroke-dasharray="2 2"/>
<path d="M136.252 59.5666L136.252 59.5666C136.308 57.8464 136.006 56.2397 135.435 54.9385C134.863 53.6365 134.023 52.6471 133.008 52.1485L133.007 52.1485C131.267 51.291 129.144 51.8596 126.843 53.8674L126.843 53.8676L126.531 54.139L126.47 54.1914L126.406 54.1442L126.072 53.8998C124.146 52.4944 122.425 51.7933 120.984 51.7933C120.301 51.7933 119.68 51.9507 119.129 52.2665C118.239 52.7765 117.546 53.7135 117.105 54.9572C116.664 56.2004 116.478 57.7435 116.597 59.4528L116.597 59.4596L116.597 59.4596C116.598 61.5798 117.256 63.8709 118.275 65.7803C119.296 67.6925 120.67 69.2048 122.092 69.7887C122.092 69.7887 122.092 69.7887 122.092 69.7887L122.054 69.8812C123.475 70.4617 124.823 70.0882 126.055 68.766L136.252 59.5666ZM136.252 59.5666V59.5699V59.5887C136.252 61.6012 135.577 63.8055 134.529 65.6596C133.481 67.5157 132.066 69.0052 130.599 69.6059L130.599 69.606C129.907 69.8895 129.254 69.9523 128.639 69.8022C128.024 69.652 127.44 69.2863 126.89 68.6978L136.252 59.5666ZM133.553 50.9962L133.553 50.9962C131.629 50.0499 129.358 50.4494 127.075 52.0697C127.21 50.7716 127.786 48.8209 129.933 47.8965L129.934 47.8964C130.231 47.767 130.371 47.4246 130.273 47.1183L130.273 47.1182C130.158 46.7622 129.767 46.5819 129.426 46.7293L129.426 46.7294C126.599 47.9544 125.948 50.623 125.82 52.1955C124.081 51.0933 122.623 50.6272 121.42 50.5361C120.184 50.4424 119.225 50.7455 118.515 51.1524L118.515 51.1524C116.241 52.4593 115.075 55.606 115.346 59.5008C115.347 61.8717 116.078 64.3925 117.225 66.4911C118.372 68.5884 119.941 70.2787 121.627 70.9681C122.114 71.168 122.7 71.3222 123.344 71.3222C124.291 71.3222 125.36 70.9924 126.44 70.0156C127.789 71.1835 129.413 71.4606 131.064 70.7854L131.026 70.6928L131.064 70.7854C132.789 70.0792 134.397 68.4154 135.572 66.3693C136.747 64.322 137.498 61.8784 137.5 59.5957C137.629 55.6339 136.093 52.2487 133.553 50.9962Z" fill="#5E4F94" stroke="#5E4F94" stroke-width="0.2"/>
<path d="M119.155 56.3974C119.202 56.0592 119.004 55.7351 118.686 55.657L118.686 55.657C118.333 55.5709 118.001 55.8309 117.948 56.2016C117.808 57.1774 117.603 59.2207 117.917 61.4591C118.232 63.6966 119.067 66.1405 121.017 67.9028C121.293 68.1534 121.708 68.1065 121.915 67.7849L121.915 67.7846C122.088 67.5135 122.061 67.1277 121.816 66.9091L121.75 66.9837M119.155 56.3974L119.056 56.3837M119.155 56.3974L119.056 56.3837M119.155 56.3974C119.035 57.266 118.853 59.1343 119.127 61.1677C119.401 63.2024 120.129 65.3886 121.817 66.9094L121.75 66.9837M119.056 56.3837C119.097 56.0899 118.924 55.8185 118.662 55.7541L121.75 66.9837M119.056 56.3837C118.815 58.1299 118.324 63.8971 121.75 66.9837" fill="#5E4F94" stroke="#5E4F94" stroke-width="0.2"/>
<path fill-rule="evenodd" clip-rule="evenodd" d="M119.091 73.6403L116.694 79.6452C116.492 80.1518 116.738 80.7272 117.245 80.9295C117.752 81.1316 118.327 80.8844 118.529 80.3781L120.927 74.3732C121.129 73.8668 120.882 73.2912 120.375 73.0892C119.869 72.8869 119.293 73.134 119.091 73.6403ZM135.834 79.399L133.283 73.458C133.068 72.9568 132.486 72.7246 131.985 72.9397C131.484 73.1551 131.252 73.7366 131.467 74.2378L134.018 80.1789C134.233 80.68 134.815 80.9122 135.316 80.6971C135.817 80.482 136.049 79.9004 135.834 79.399ZM110.762 64.4669L104.821 67.0179C104.32 67.233 104.088 67.8145 104.303 68.3157C104.518 68.817 105.1 69.0492 105.601 68.8339L111.542 66.2831C112.043 66.068 112.275 65.4862 112.06 64.9851C111.845 64.484 111.263 64.2518 110.762 64.4669ZM147.378 66.4707L141.373 64.0734C140.867 63.8711 140.291 64.1182 140.089 64.6248C139.887 65.1314 140.134 65.7068 140.64 65.9089L146.645 68.3062C147.152 68.5085 147.727 68.2613 147.929 67.755C148.132 67.2484 147.885 66.673 147.378 66.4707ZM111.359 52.0909L105.355 49.6939C104.848 49.4916 104.273 49.7387 104.071 50.245C103.868 50.7516 104.115 51.327 104.622 51.5293L110.627 53.9266C111.133 54.1287 111.709 53.8818 111.911 53.3752C112.113 52.8686 111.866 52.2932 111.359 52.0909ZM146.399 49.1662L140.458 51.7169C139.957 51.932 139.725 52.5138 139.94 53.0149C140.155 53.5161 140.737 53.7483 141.238 53.5329L147.179 50.9822C147.68 50.7671 147.912 50.1855 147.697 49.6841C147.482 49.183 146.9 48.9508 146.399 49.1662ZM120.533 43.7623L117.982 37.8212C117.767 37.32 117.185 37.0879 116.684 37.303C116.183 37.5181 115.951 38.0996 116.166 38.601L118.717 44.5421C118.932 45.0432 119.514 45.2754 120.015 45.0603C120.516 44.8449 120.748 44.2634 120.533 43.7623ZM133.471 37.622L131.073 43.6268C130.871 44.1332 131.118 44.7088 131.625 44.9109C132.131 45.1132 132.707 44.866 132.909 44.3595L135.306 38.3548C135.509 37.8482 135.261 37.2728 134.755 37.0705C134.248 36.8685 133.673 37.1154 133.471 37.622Z" fill="#B2AAD1"/>
</g>
<defs>
<clipPath id="clip0_502_635">
<rect width="200" height="100" fill="white"/>
</clipPath>
</defs>
</svg>
