<svg width="200" height="100" viewBox="0 0 200 100" fill="none" xmlns="http://www.w3.org/2000/svg">
<g clip-path="url(#clip0_467_166)">
<rect width="200" height="100" fill="#FFFCF9"/>
<rect x="1" y="1" width="198" height="98" rx="9" stroke="#5E4F94" stroke-width="2"/>
<path d="M51 10C73.0932 10 91 27.9068 91 50C91 72.0932 73.0932 90 51 90C28.9068 90 11 72.0932 11 50C11 27.9068 28.9068 10 51 10ZM51 14.2105C31.2322 14.2105 15.2105 30.2322 15.2105 50C15.2105 69.7678 31.2322 85.7895 51 85.7895C70.7678 85.7895 86.7895 69.7678 86.7895 50C86.7895 30.2322 70.7678 14.2105 51 14.2105ZM51 53.8947C57.0365 53.8947 61.5263 60.6278 61.5263 68.63C61.5263 76.6322 57.0365 83.3684 51 83.3684C44.9635 83.3684 40.4737 76.6322 40.4737 68.63C40.4737 60.6278 44.9635 53.8947 51 53.8947ZM51 58.1053C47.7341 58.1053 44.6842 62.6785 44.6842 68.63C44.6842 74.5815 47.7341 79.1579 51 79.1579C54.2659 79.1579 57.3158 74.5815 57.3158 68.63C57.3158 62.6785 54.2659 58.1053 51 58.1053ZM38.3684 35.2632C39.4019 35.2632 40.2615 36.0079 40.4398 36.99L40.4737 37.3684V45.7895C40.4737 46.9522 39.5311 47.8947 38.3684 47.8947C37.3349 47.8947 36.4753 47.15 36.2971 46.1679L36.2632 45.7895V37.3684C36.2632 36.2057 37.2057 35.2632 38.3684 35.2632ZM63.6316 35.2632C64.6651 35.2632 65.5247 36.0079 65.7029 36.99L65.7368 37.3684V45.7895C65.7368 46.9522 64.7943 47.8947 63.6316 47.8947C62.5981 47.8947 61.7385 47.15 61.5602 46.1679L61.5263 45.7895V37.3684C61.5263 36.2057 62.4689 35.2632 63.6316 35.2632ZM61.5263 24.7366C67.8235 24.7366 72.6993 27.1745 75.9096 31.9899C76.5545 32.9573 76.2931 34.2644 75.3257 34.9094C74.3583 35.5543 73.0512 35.2929 72.4062 34.3255C70.0024 30.7198 66.4572 28.9471 61.5263 28.9471C60.3636 28.9471 59.4211 28.0046 59.4211 26.8419C59.4211 25.6792 60.3636 24.7366 61.5263 24.7366ZM40.4739 24.7366C41.6366 24.7366 42.5792 25.6792 42.5792 26.8419C42.5792 28.0046 41.6366 28.9471 40.4739 28.9471C35.5431 28.9471 31.9978 30.7198 29.594 34.3255C28.9491 35.2929 27.642 35.5543 26.6745 34.9094C25.7071 34.2644 25.4457 32.9573 26.0906 31.9899C29.3009 27.1745 34.1767 24.7366 40.4739 24.7366Z" fill="#5E4F94"/>
<path d="M193.125 36.2219C193.247 35.8262 193.026 35.4061 192.63 35.2836L186.182 33.287C185.786 33.1645 185.366 33.386 185.244 33.7817C185.121 34.1773 185.343 34.5974 185.738 34.7199L191.47 36.4946L189.695 42.2262C189.573 42.6218 189.794 43.0419 190.19 43.1644C190.585 43.287 191.005 43.0655 191.128 42.6698L193.125 36.2219ZM192.058 35.3366C179.023 42.2078 168.861 46.6172 158.817 49.3122C148.779 52.0056 138.826 52.9956 126.202 52.9901L126.201 54.4901C138.909 54.4957 149.002 53.4988 159.206 50.7609C169.403 48.0247 179.678 43.5584 192.758 36.6635L192.058 35.3366Z" fill="#B2AAD1"/>
<path d="M192.923 90.4486C193.046 90.8442 192.824 91.2643 192.429 91.3868L185.981 93.3834C185.585 93.5059 185.165 93.2844 185.042 92.8888C184.92 92.4931 185.141 92.073 185.537 91.9505L191.269 90.1758L189.494 84.4443C189.371 84.0486 189.593 83.6285 189.988 83.506C190.384 83.3835 190.804 83.6049 190.927 84.0006L192.923 90.4486ZM191.857 91.3339C178.822 84.4626 168.659 80.0532 158.616 77.3582C148.578 74.6648 138.624 73.6748 126 73.6803L126 72.1803C138.708 72.1747 148.801 73.1716 159.004 75.9095C169.202 78.6458 179.477 83.112 192.557 90.0069L191.857 91.3339Z" fill="#B2AAD1"/>
<path d="M194.25 63.2123C194.543 63.5052 194.543 63.9801 194.25 64.273L189.477 69.046C189.184 69.3389 188.709 69.3389 188.416 69.046C188.123 68.7531 188.123 68.2782 188.416 67.9853L192.659 63.7427L188.416 59.5C188.123 59.2071 188.123 58.7323 188.416 58.4394C188.709 58.1465 189.184 58.1465 189.477 58.4394L194.25 63.2123ZM193.719 64.4927H126V62.9927H193.719V64.4927Z" fill="#B2AAD1"/>
<rect width="22" height="22" transform="translate(155 52)" fill="#FFFCF9"/>
<path d="M174.087 63.4488L174.087 63.4488C174.178 60.714 173.104 58.3999 171.502 57.6309L171.501 57.6308C170.14 56.975 168.454 57.3957 166.587 58.9885L166.587 58.9888L166.331 59.2058L166.212 59.3068L166.085 59.2159L165.813 59.0206C165.813 59.0206 165.813 59.0206 165.813 59.0205C164.247 57.9036 162.864 57.3584 161.72 57.3584C161.18 57.3584 160.692 57.48 160.26 57.7218L160.163 57.5473L160.26 57.7218C158.864 58.504 158.057 60.6291 158.25 63.3532L158.251 63.3673H158.251C158.252 65.0386 158.783 66.8504 159.608 68.3623C160.436 69.8792 161.542 71.0609 162.669 71.5133L174.087 63.4488ZM174.087 63.4488V63.4555M174.087 63.4488V63.4555M174.087 63.4555V63.4705C174.087 65.0539 173.543 66.7953 172.695 68.2632C171.844 69.7347 170.705 70.9006 169.539 71.3673L169.539 71.3673M174.087 63.4555L169.539 71.3673M169.539 71.3673C168.992 71.5864 168.483 71.6326 168.007 71.519M169.539 71.3673L168.007 71.519M166.178 70.1911L166.323 70.3428L166.634 70.6693L166.178 70.1911ZM166.178 70.1911L166.034 70.3428M166.178 70.1911L166.034 70.3428M166.034 70.3428L165.722 70.6694L165.722 70.6694M166.034 70.3428L165.722 70.6694M165.722 70.6694C165.236 71.1789 164.739 71.4938 164.236 71.6307M165.722 70.6694L164.236 71.6307M168.007 71.519C167.531 71.4052 167.072 71.127 166.635 70.6694L168.007 71.519ZM164.236 71.6307C163.736 71.7668 163.214 71.731 162.669 71.5134L164.236 71.6307ZM172.049 56.4927L172.049 56.4926C170.487 55.7418 168.669 56.0255 166.853 57.2131C167.01 56.2138 167.524 54.8901 169.083 54.234L169.084 54.2337C169.385 54.1054 169.528 53.7659 169.428 53.4627L169.428 53.4627C169.311 53.1098 168.918 52.9354 168.578 53.079L168.577 53.0791C166.32 54.0357 165.72 56.0661 165.576 57.3594C162.748 55.6626 160.817 55.9635 159.644 56.6209L159.644 56.621C157.727 57.6982 156.77 60.2717 156.991 63.4046C156.993 65.3226 157.598 67.3564 158.544 69.048C159.488 70.7375 160.789 72.1145 162.202 72.6796C162.611 72.8436 163.105 72.9711 163.65 72.9711C164.431 72.9711 165.305 72.7116 166.183 71.9628C167.304 72.8702 168.647 73.077 170.006 72.5336L170.006 72.5336C171.45 71.9559 172.782 70.6021 173.75 68.9528C174.72 67.3017 175.342 65.3279 175.344 63.4782C175.449 60.2852 174.184 57.5221 172.049 56.4927Z" fill="#5E4F94" stroke="#5E4F94" stroke-width="0.4"/>
<path d="M160.191 60.3384L160.191 60.3385C160.513 60.4103 160.729 60.7156 160.678 61.0472L160.191 60.3384ZM160.191 60.3384C159.836 60.2599 159.487 60.4955 159.43 60.8572L159.628 60.8881L159.43 60.8568C159.31 61.6129 159.135 63.1965 159.404 64.9336C159.672 66.671 160.389 68.5805 162.068 69.9588C162.348 70.1888 162.773 70.1515 162.99 69.8446L162.99 69.8439M160.191 60.3384L162.99 69.8439M162.99 69.8439C163.172 69.5856 163.145 69.2121 162.884 69.0001L162.758 69.1553M162.99 69.8439L162.758 69.1553M162.758 69.1553C162.93 69.295 162.953 69.5485 162.827 69.729L162.758 69.1553ZM162.758 69.1553L162.885 69.0005M162.758 69.1553L162.885 69.0005M162.885 69.0005C161.49 67.8591 160.883 66.215 160.655 64.671M162.885 69.0005L160.655 64.671M160.655 64.671C160.426 63.1277 160.578 61.7075 160.678 61.0472L160.655 64.671Z" fill="#5E4F94" stroke="#5E4F94" stroke-width="0.4"/>
<path d="M114.958 64.3853L114.958 64.3853C114.996 63.2165 114.791 62.1259 114.404 61.2436C114.016 60.3604 113.448 59.6927 112.764 59.3571L112.764 59.357C111.594 58.7808 110.161 59.1587 108.596 60.5245L108.596 60.5246L108.383 60.7097L108.322 60.762L108.258 60.7148L108.031 60.5482C106.72 59.5918 105.553 59.1181 104.58 59.1181C104.12 59.1181 103.702 59.2242 103.331 59.4365C102.733 59.7794 102.264 60.4109 101.965 61.2542C101.667 62.0968 101.54 63.1445 101.62 64.3065L101.621 64.3133L101.621 64.3133C101.622 65.7529 102.068 67.3099 102.761 68.6079C103.455 69.9087 104.388 70.9324 105.347 71.3265C105.814 71.5168 106.263 71.5492 106.695 71.4289C107.129 71.3082 107.553 71.0316 107.964 70.5904L107.964 70.5904L108.224 70.3119L108.297 70.2335L108.37 70.3119L108.63 70.5903L114.958 64.3853ZM114.958 64.3853V64.3885M114.958 64.3853V64.3885M114.958 64.3885V64.4013C114.958 65.767 114.5 67.2646 113.788 68.5249C113.074 69.7873 112.115 70.796 111.124 71.2018L111.124 71.2019M114.958 64.3885L111.124 71.2019M111.124 71.2019C110.657 71.3931 110.219 71.4347 109.807 71.3342M111.124 71.2019L109.807 71.3342M109.807 71.3342C109.395 71.2336 109.002 70.9882 108.63 70.5904L109.807 71.3342ZM113.164 58.5143L113.164 58.5143C111.854 57.8702 110.316 58.1332 108.773 59.2081C108.877 58.3297 109.283 57.0659 110.694 56.4587L110.695 56.4585C110.913 56.3633 111.015 56.1124 110.943 55.889L110.943 55.889C110.859 55.6287 110.574 55.4963 110.323 55.6044L110.323 55.6044C108.411 56.4332 107.948 58.223 107.85 59.3058C106.68 58.5721 105.696 58.2592 104.88 58.1974C104.03 58.133 103.37 58.3413 102.881 58.6217L102.881 58.6218C101.315 59.5217 100.519 61.6824 100.704 64.3425C100.705 65.9648 101.205 67.6883 101.989 69.1228C102.773 70.5561 103.847 71.7156 105.006 72.1895C105.341 72.3269 105.745 72.4333 106.189 72.4333C106.837 72.4333 107.566 72.2095 108.301 71.553C109.225 72.3415 110.337 72.5264 111.465 72.0649L111.465 72.0649C112.65 71.5797 113.751 70.4389 114.554 69.0403C115.357 67.6407 115.871 65.9693 115.873 64.4067C115.961 61.6992 114.911 59.376 113.164 58.5143Z" fill="#5E4F94" stroke="#5E4F94" stroke-width="0.2"/>
<path d="M102.578 62.1017C102.609 61.8823 102.801 61.7392 102.997 61.7869L105.157 69.9528C105.04 70.136 104.806 70.1627 104.648 70.0196C102.022 67.6461 102.387 63.4258 102.578 62.1017ZM102.578 62.1017L102.479 62.0875M102.578 62.1017L102.479 62.0876C102.479 62.0876 102.479 62.0875 102.479 62.0875M102.479 62.0875C102.517 61.8191 102.759 61.6259 103.021 61.6897L103.021 61.6898C103.255 61.7474 103.399 61.9851 103.365 62.2299M102.479 62.0875C102.383 62.7543 102.243 64.1508 102.458 65.681C102.672 67.2106 103.244 68.8852 104.581 70.0937C104.784 70.2774 105.09 70.243 105.242 70.0069L105.242 70.0066C105.367 69.8104 105.348 69.5299 105.169 69.3691C104.026 68.3394 103.532 66.8574 103.345 65.4737C103.159 64.0913 103.283 62.8206 103.365 62.2299M103.365 62.2299L103.266 62.2162L103.365 62.2299Z" fill="#5E4F94" stroke="#5E4F94" stroke-width="0.2"/>
<path fill-rule="evenodd" clip-rule="evenodd" d="M103.289 73.9821L101.655 78.0763C101.517 78.4217 101.685 78.814 102.031 78.9519C102.376 79.0897 102.768 78.9212 102.906 78.576L104.541 74.4817C104.679 74.1365 104.51 73.744 104.165 73.6062C103.82 73.4683 103.427 73.6368 103.289 73.9821ZM114.705 77.9084L112.966 73.8577C112.819 73.516 112.422 73.3577 112.081 73.5044C111.739 73.6512 111.581 74.0477 111.727 74.3894L113.467 78.4401C113.613 78.7818 114.01 78.9401 114.352 78.7935C114.693 78.6468 114.852 78.2503 114.705 77.9084ZM97.6106 67.7274L93.5599 69.4667C93.2182 69.6134 93.0599 70.0099 93.2066 70.3516C93.3532 70.6934 93.7497 70.8517 94.0914 70.7049L98.1423 68.9658C98.484 68.8191 98.6423 68.4224 98.4955 68.0807C98.3488 67.7391 97.9523 67.5808 97.6106 67.7274ZM122.576 69.0937L118.482 67.4592C118.136 67.3212 117.744 67.4897 117.606 67.8351C117.468 68.1805 117.637 68.5728 117.982 68.7106L122.076 70.3451C122.422 70.4831 122.814 70.3146 122.952 69.9693C123.09 69.6239 122.921 69.2316 122.576 69.0937ZM98.0178 59.2893L93.9237 57.6549C93.5783 57.517 93.186 57.6855 93.0481 58.0307C92.9103 58.3761 93.0787 58.7684 93.4241 58.9063L97.5183 60.5409C97.8636 60.6786 98.2559 60.5103 98.3938 60.1649C98.5317 59.8195 98.3632 59.4272 98.0178 59.2893ZM121.909 57.2951L117.858 59.0343C117.516 59.1809 117.358 59.5776 117.504 59.9193C117.651 60.261 118.048 60.4193 118.389 60.2724L122.44 58.5333C122.782 58.3866 122.94 57.9901 122.794 57.6483C122.647 57.3066 122.25 57.1483 121.909 57.2951ZM104.272 53.6106L102.533 49.5599C102.387 49.2182 101.99 49.0599 101.648 49.2066C101.307 49.3532 101.148 49.7497 101.295 50.0916L103.034 54.1423C103.181 54.484 103.577 54.6423 103.919 54.4957C104.261 54.3488 104.419 53.9523 104.272 53.6106ZM113.094 49.4241L111.459 53.5183C111.321 53.8635 111.49 54.256 111.835 54.3938C112.181 54.5317 112.573 54.3632 112.711 54.0178L114.345 49.9237C114.483 49.5783 114.315 49.186 113.969 49.0481C113.624 48.9103 113.232 49.0787 113.094 49.4241Z" fill="#B2AAD1"/>
</g>
<defs>
<clipPath id="clip0_467_166">
<rect width="200" height="100" fill="white"/>
</clipPath>
</defs>
</svg>
