<svg width="200" height="100" viewBox="0 0 200 100" fill="none" xmlns="http://www.w3.org/2000/svg">
<g clip-path="url(#clip0_467_188)">
<rect width="200" height="100" fill="#FFFCF9"/>
<rect x="1" y="1" width="198" height="98" rx="9" stroke="#5E4F94" stroke-width="2"/>
<path d="M80 10C102.093 10 120 27.9068 120 50C120 72.0932 102.093 90 80 90C57.9068 90 40 72.0932 40 50C40 27.9068 57.9068 10 80 10ZM80 14.2105C60.2322 14.2105 44.2105 30.2322 44.2105 50C44.2105 69.7678 60.2322 85.7895 80 85.7895C99.7678 85.7895 115.789 69.7678 115.789 50C115.789 30.2322 99.7678 14.2105 80 14.2105ZM80 53.8947C86.0365 53.8947 90.5263 60.6278 90.5263 68.63C90.5263 76.6322 86.0365 83.3684 80 83.3684C73.9635 83.3684 69.4737 76.6322 69.4737 68.63C69.4737 60.6278 73.9635 53.8947 80 53.8947ZM80 58.1053C76.7341 58.1053 73.6842 62.6785 73.6842 68.63C73.6842 74.5815 76.7341 79.1579 80 79.1579C83.2659 79.1579 86.3158 74.5815 86.3158 68.63C86.3158 62.6785 83.2659 58.1053 80 58.1053ZM67.3684 35.2632C68.4019 35.2632 69.2615 36.0079 69.4398 36.99L69.4737 37.3684V45.7895C69.4737 46.9522 68.5311 47.8947 67.3684 47.8947C66.3349 47.8947 65.4753 47.15 65.2971 46.1679L65.2632 45.7895V37.3684C65.2632 36.2057 66.2057 35.2632 67.3684 35.2632ZM92.6316 35.2632C93.6651 35.2632 94.5247 36.0079 94.7029 36.99L94.7368 37.3684V45.7895C94.7368 46.9522 93.7943 47.8947 92.6316 47.8947C91.5981 47.8947 90.7385 47.15 90.5602 46.1679L90.5263 45.7895V37.3684C90.5263 36.2057 91.4689 35.2632 92.6316 35.2632ZM90.5263 24.7366C96.8235 24.7366 101.699 27.1745 104.91 31.9899C105.555 32.9573 105.293 34.2644 104.326 34.9094C103.358 35.5543 102.051 35.2929 101.406 34.3255C99.0024 30.7198 95.4572 28.9471 90.5263 28.9471C89.3636 28.9471 88.4211 28.0046 88.4211 26.8419C88.4211 25.6792 89.3636 24.7366 90.5263 24.7366ZM69.4739 24.7366C70.6366 24.7366 71.5792 25.6792 71.5792 26.8419C71.5792 28.0046 70.6366 28.9471 69.4739 28.9471C64.5431 28.9471 60.9978 30.7198 58.594 34.3255C57.9491 35.2929 56.642 35.5543 55.6745 34.9094C54.7071 34.2644 54.4457 32.9573 55.0906 31.9899C58.3009 27.1745 63.1767 24.7366 69.4739 24.7366Z" fill="#5E4F94"/>
<path d="M152.252 72.5667L152.252 72.5667C152.308 70.8464 152.006 69.2397 151.435 67.9386C150.863 66.6365 150.023 65.6471 149.008 65.1486L149.007 65.1485C147.267 64.291 145.144 64.8596 142.843 66.8675L142.843 66.8677L142.531 67.1391L142.47 67.1914L142.406 67.1442L142.072 66.8998C140.146 65.4944 138.425 64.7933 136.984 64.7933C136.301 64.7933 135.68 64.9507 135.129 65.2665C134.239 65.7765 133.546 66.7136 133.105 67.9573C132.664 69.2005 132.478 70.7436 132.597 72.4528L132.597 72.4597L132.597 72.4597C132.598 74.5799 133.256 76.8709 134.275 78.7803C135.296 80.6925 136.67 82.2049 138.092 82.7888C138.092 82.7888 138.092 82.7888 138.092 82.7888L138.054 82.8813C139.475 83.4618 140.823 83.0882 142.055 81.766L152.252 72.5667ZM152.252 72.5667V72.5699V72.5888C152.252 74.6013 151.577 76.8055 150.529 78.6597C149.481 80.5158 148.066 82.0052 146.599 82.606L146.599 82.606C145.907 82.8896 145.254 82.9524 144.639 82.8023C144.024 82.6521 143.44 82.2863 142.89 81.6978L152.252 72.5667ZM149.553 63.9963L149.553 63.9963C147.629 63.0499 145.358 63.4494 143.075 65.0697C143.21 63.7717 143.786 61.8209 145.933 60.8966L145.934 60.8964C146.231 60.7671 146.371 60.4247 146.273 60.1183L146.273 60.1183C146.158 59.7622 145.767 59.5819 145.426 59.7294L145.426 59.7294C142.599 60.9544 141.948 63.6231 141.82 65.1956C140.081 64.0934 138.623 63.6273 137.42 63.5362C136.184 63.4425 135.225 63.7455 134.515 64.1524L134.515 64.1525C132.241 65.4594 131.075 68.606 131.346 72.5009C131.347 74.8717 132.078 77.3926 133.225 79.4911C134.372 81.5885 135.941 83.2788 137.627 83.9682C138.114 84.168 138.7 84.3223 139.344 84.3223C140.291 84.3223 141.36 83.9924 142.44 83.0157C143.789 84.1836 145.413 84.4607 147.064 83.7854L147.026 83.6929L147.064 83.7854C148.789 83.0792 150.397 81.4155 151.572 79.3694C152.747 77.3221 153.498 74.8784 153.5 72.5958C153.629 68.634 152.093 65.2487 149.553 63.9963Z" fill="#5E4F94" stroke="#5E4F94" stroke-width="0.2"/>
<path d="M135.155 69.3975C135.202 69.0592 135.004 68.7351 134.686 68.6571L134.686 68.657C134.333 68.5709 134.001 68.831 133.948 69.2017C133.808 70.1775 133.603 72.2208 133.917 74.4591C134.232 76.6967 135.067 79.1406 137.017 80.9029C137.293 81.1534 137.708 81.1066 137.915 80.785L137.915 80.7846C138.088 80.5136 138.061 80.1278 137.816 79.9092L137.75 79.9837M135.155 69.3975L135.056 69.3838M135.155 69.3975L135.056 69.3838M135.155 69.3975C135.035 70.266 134.853 72.1344 135.127 74.1678C135.401 76.2024 136.129 78.3887 137.817 79.9094L137.75 79.9837M135.056 69.3838C135.097 69.09 134.924 68.8185 134.662 68.7542L137.75 79.9837M135.056 69.3838C134.815 71.1299 134.324 76.8972 137.75 79.9837" fill="#5E4F94" stroke="#5E4F94" stroke-width="0.2"/>
<path fill-rule="evenodd" clip-rule="evenodd" d="M135.091 86.6403L132.694 92.6452C132.492 93.1518 132.738 93.7272 133.245 93.9295C133.752 94.1316 134.327 93.8844 134.529 93.3781L136.927 87.3732C137.129 86.8668 136.882 86.2912 136.375 86.0892C135.869 85.8869 135.293 86.134 135.091 86.6403ZM151.834 92.399L149.283 86.458C149.068 85.9568 148.486 85.7246 147.985 85.9397C147.484 86.1551 147.252 86.7366 147.467 87.2378L150.018 93.1789C150.233 93.68 150.815 93.9122 151.316 93.6971C151.817 93.482 152.049 92.9004 151.834 92.399ZM126.762 77.4669L120.821 80.0179C120.32 80.233 120.088 80.8145 120.303 81.3157C120.518 81.817 121.1 82.0492 121.601 81.8339L127.542 79.2831C128.043 79.068 128.275 78.4862 128.06 77.9851C127.845 77.484 127.263 77.2518 126.762 77.4669ZM163.378 79.4707L157.373 77.0734C156.867 76.8711 156.291 77.1182 156.089 77.6248C155.887 78.1314 156.134 78.7068 156.64 78.9089L162.645 81.3062C163.152 81.5085 163.727 81.2613 163.929 80.755C164.132 80.2484 163.885 79.673 163.378 79.4707ZM127.359 65.0909L121.355 62.6939C120.848 62.4916 120.273 62.7387 120.071 63.245C119.868 63.7516 120.115 64.327 120.622 64.5293L126.627 66.9266C127.133 67.1287 127.709 66.8818 127.911 66.3752C128.113 65.8686 127.866 65.2932 127.359 65.0909ZM162.399 62.1662L156.458 64.7169C155.957 64.932 155.725 65.5138 155.94 66.0149C156.155 66.5161 156.737 66.7483 157.238 66.5329L163.179 63.9822C163.68 63.7671 163.912 63.1855 163.697 62.6841C163.482 62.183 162.9 61.9508 162.399 62.1662ZM136.533 56.7623L133.982 50.8212C133.767 50.32 133.185 50.0879 132.684 50.303C132.183 50.5181 131.951 51.0996 132.166 51.601L134.717 57.5421C134.932 58.0432 135.514 58.2754 136.015 58.0603C136.516 57.8449 136.748 57.2634 136.533 56.7623ZM149.471 50.622L147.073 56.6268C146.871 57.1332 147.118 57.7088 147.625 57.9109C148.131 58.1132 148.707 57.866 148.909 57.3595L151.306 51.3548C151.509 50.8482 151.261 50.2728 150.755 50.0705C150.248 49.8685 149.673 50.1154 149.471 50.622Z" fill="#B2AAD1"/>
</g>
<defs>
<clipPath id="clip0_467_188">
<rect width="200" height="100" fill="white"/>
</clipPath>
</defs>
</svg>
