<svg width="200" height="100" viewBox="0 0 200 100" fill="none" xmlns="http://www.w3.org/2000/svg">
<g clip-path="url(#clip0_452_63)">
<rect width="200" height="100" fill="#FFFCF9"/>
<rect x="1" y="1" width="198" height="98" rx="9" stroke="#5E4F94" stroke-width="2"/>
<path d="M80 10C102.093 10 120 27.9068 120 50C120 72.0932 102.093 90 80 90C57.9068 90 40 72.0932 40 50C40 27.9068 57.9068 10 80 10ZM80 14.2105C60.2322 14.2105 44.2105 30.2322 44.2105 50C44.2105 69.7678 60.2322 85.7895 80 85.7895C99.7678 85.7895 115.789 69.7678 115.789 50C115.789 30.2322 99.7678 14.2105 80 14.2105ZM80 53.8947C86.0365 53.8947 90.5263 60.6278 90.5263 68.63C90.5263 76.6322 86.0365 83.3684 80 83.3684C73.9635 83.3684 69.4737 76.6322 69.4737 68.63C69.4737 60.6278 73.9635 53.8947 80 53.8947ZM80 58.1053C76.7341 58.1053 73.6842 62.6785 73.6842 68.63C73.6842 74.5815 76.7341 79.1579 80 79.1579C83.2659 79.1579 86.3158 74.5815 86.3158 68.63C86.3158 62.6785 83.2659 58.1053 80 58.1053ZM67.3684 35.2632C68.4019 35.2632 69.2615 36.0079 69.4398 36.99L69.4737 37.3684V45.7895C69.4737 46.9522 68.5311 47.8947 67.3684 47.8947C66.3349 47.8947 65.4753 47.15 65.2971 46.1679L65.2632 45.7895V37.3684C65.2632 36.2057 66.2057 35.2632 67.3684 35.2632ZM92.6316 35.2632C93.6651 35.2632 94.5247 36.0079 94.7029 36.99L94.7368 37.3684V45.7895C94.7368 46.9522 93.7943 47.8947 92.6316 47.8947C91.5981 47.8947 90.7385 47.15 90.5602 46.1679L90.5263 45.7895V37.3684C90.5263 36.2057 91.4689 35.2632 92.6316 35.2632ZM90.5263 24.7366C96.8235 24.7366 101.699 27.1745 104.91 31.9899C105.555 32.9573 105.293 34.2644 104.326 34.9094C103.358 35.5543 102.051 35.2929 101.406 34.3255C99.0024 30.7198 95.4572 28.9471 90.5263 28.9471C89.3636 28.9471 88.4211 28.0046 88.4211 26.8419C88.4211 25.6792 89.3636 24.7366 90.5263 24.7366ZM69.4739 24.7366C70.6366 24.7366 71.5792 25.6792 71.5792 26.8419C71.5792 28.0046 70.6366 28.9471 69.4739 28.9471C64.5431 28.9471 60.9978 30.7198 58.594 34.3255C57.9491 35.2929 56.642 35.5543 55.6745 34.9094C54.7071 34.2644 54.4457 32.9573 55.0906 31.9899C58.3009 27.1745 63.1767 24.7366 69.4739 24.7366Z" fill="#5E4F94"/>
<path d="M142.215 65.2873C139.849 64.1231 137.027 64.6475 134.174 66.7517C134.29 65.1554 134.928 62.4872 137.779 61.2603C138.082 61.1284 138.23 60.7755 138.127 60.4556C138.007 60.0862 137.604 59.9015 137.253 60.0532C133.722 61.5835 133.003 64.9839 132.887 66.8638C128.489 64.0142 125.577 64.499 123.875 65.4753C121.144 67.0452 119.715 70.8479 120.047 75.6104C120.047 81.3853 123.614 87.9123 127.68 89.5745C128.266 89.8153 128.969 90 129.74 90C130.894 90 132.207 89.591 133.538 88.3542C135.176 89.8186 137.153 90.1748 139.168 89.3503C143.334 87.6452 146.988 81.2831 146.991 75.7291C147.149 70.8908 145.272 66.7945 142.215 65.2873Z" stroke="#5E4F94" stroke-linecap="round" stroke-dasharray="2 2"/>
</g>
<defs>
<clipPath id="clip0_452_63">
<rect width="200" height="100" fill="white"/>
</clipPath>
</defs>
</svg>
