<svg width="200" height="100" viewBox="0 0 200 100" fill="none" xmlns="http://www.w3.org/2000/svg">
<g clip-path="url(#clip0_450_42)">
<rect width="200" height="100" fill="#FFFCF9"/>
<rect x="1" y="1" width="198" height="98" rx="9" stroke="#5E4F94" stroke-width="2"/>
<path d="M51 10C73.0932 10 91 27.9068 91 50C91 72.0932 73.0932 90 51 90C28.9068 90 11 72.0932 11 50C11 27.9068 28.9068 10 51 10ZM51 14.2105C31.2322 14.2105 15.2105 30.2322 15.2105 50C15.2105 69.7678 31.2322 85.7895 51 85.7895C70.7678 85.7895 86.7895 69.7678 86.7895 50C86.7895 30.2322 70.7678 14.2105 51 14.2105ZM51 53.8947C57.0365 53.8947 61.5263 60.6278 61.5263 68.63C61.5263 76.6322 57.0365 83.3684 51 83.3684C44.9635 83.3684 40.4737 76.6322 40.4737 68.63C40.4737 60.6278 44.9635 53.8947 51 53.8947ZM51 58.1053C47.7341 58.1053 44.6842 62.6785 44.6842 68.63C44.6842 74.5815 47.7341 79.1579 51 79.1579C54.2659 79.1579 57.3158 74.5815 57.3158 68.63C57.3158 62.6785 54.2659 58.1053 51 58.1053ZM38.3684 35.2632C39.4019 35.2632 40.2615 36.0079 40.4398 36.99L40.4737 37.3684V45.7895C40.4737 46.9522 39.5311 47.8947 38.3684 47.8947C37.3349 47.8947 36.4753 47.15 36.2971 46.1679L36.2632 45.7895V37.3684C36.2632 36.2057 37.2057 35.2632 38.3684 35.2632ZM63.6316 35.2632C64.6651 35.2632 65.5247 36.0079 65.7029 36.99L65.7368 37.3684V45.7895C65.7368 46.9522 64.7943 47.8947 63.6316 47.8947C62.5981 47.8947 61.7385 47.15 61.5602 46.1679L61.5263 45.7895V37.3684C61.5263 36.2057 62.4689 35.2632 63.6316 35.2632ZM61.5263 24.7366C67.8235 24.7366 72.6993 27.1745 75.9096 31.9899C76.5545 32.9573 76.2931 34.2644 75.3257 34.9094C74.3583 35.5543 73.0512 35.2929 72.4062 34.3255C70.0024 30.7198 66.4572 28.9471 61.5263 28.9471C60.3636 28.9471 59.4211 28.0046 59.4211 26.8419C59.4211 25.6792 60.3636 24.7366 61.5263 24.7366ZM40.4739 24.7366C41.6366 24.7366 42.5792 25.6792 42.5792 26.8419C42.5792 28.0046 41.6366 28.9471 40.4739 28.9471C35.5431 28.9471 31.9978 30.7198 29.594 34.3255C28.9491 35.2929 27.642 35.5543 26.6745 34.9094C25.7071 34.2644 25.4457 32.9573 26.0906 31.9899C29.3009 27.1745 34.1767 24.7366 40.4739 24.7366Z" fill="#5E4F94"/>
<path d="M114.671 56.2095C114.378 56.5023 114.378 56.9772 114.671 57.2702L119.442 62.0453C119.734 62.3383 120.209 62.3385 120.502 62.0457C120.795 61.753 120.795 61.2781 120.503 60.9851L116.262 56.7406L120.506 52.4998C120.799 52.207 120.8 51.7321 120.507 51.4391C120.214 51.1461 119.739 51.1459 119.446 51.4387L114.671 56.2095ZM181.058 38.3366C168.023 45.2078 157.861 49.6172 147.817 52.3122C137.779 55.0056 127.826 55.9956 115.202 55.9901L115.201 57.4901C127.909 57.4957 138.002 56.4988 148.206 53.7609C158.403 51.0247 168.678 46.5584 181.758 39.6635L181.058 38.3366Z" fill="#B2AAD1"/>
<path d="M114.47 76.4609C114.177 76.1681 114.177 75.6932 114.469 75.4002L119.24 70.6252C119.533 70.3321 120.008 70.3319 120.301 70.6247C120.594 70.9175 120.594 71.3923 120.301 71.6853L116.061 75.9299L120.305 80.1706C120.598 80.4634 120.598 80.9383 120.306 81.2313C120.013 81.5243 119.538 81.5245 119.245 81.2318L114.47 76.4609ZM180.857 94.3339C167.822 87.4626 157.659 83.0532 147.616 80.3582C137.578 77.6648 127.624 76.6748 115 76.6803L115 75.1803C127.708 75.1747 137.801 76.1716 148.004 78.9095C158.202 81.6458 168.477 86.112 181.557 93.0069L180.857 94.3339Z" fill="#B2AAD1"/>
<path d="M114.47 67.2729C114.177 66.9801 114.177 66.5052 114.47 66.2123L119.243 61.4393C119.536 61.1464 120.01 61.1464 120.303 61.4393C120.596 61.7322 120.596 62.2071 120.303 62.5L116.061 66.7426L120.303 70.9853C120.596 71.2781 120.596 71.753 120.303 72.0459C120.01 72.3388 119.536 72.3388 119.243 72.0459L114.47 67.2729ZM182.719 67.4926H115V65.9926H182.719V67.4926Z" fill="#B2AAD1"/>
<rect width="22" height="22" transform="translate(144 55)" fill="#FFFCF9"/>
<path d="M163.087 66.4488L163.087 66.4488C163.178 63.714 162.104 61.3999 160.502 60.6309L160.501 60.6308C159.14 59.975 157.454 60.3957 155.587 61.9885L155.587 61.9888L155.331 62.2058L155.212 62.3068L155.085 62.2159L154.813 62.0206C154.813 62.0206 154.813 62.0206 154.813 62.0205C153.247 60.9036 151.864 60.3584 150.72 60.3584C150.18 60.3584 149.692 60.48 149.26 60.7218L149.163 60.5473L149.26 60.7218C147.864 61.504 147.057 63.6291 147.25 66.3532L147.251 66.3673H147.251C147.252 68.0386 147.783 69.8504 148.608 71.3623C149.436 72.8792 150.542 74.0609 151.669 74.5133L163.087 66.4488ZM163.087 66.4488V66.4555M163.087 66.4488V66.4555M163.087 66.4555V66.4705C163.087 68.0539 162.543 69.7953 161.695 71.2632C160.844 72.7347 159.705 73.9006 158.539 74.3673L158.539 74.3673M163.087 66.4555L158.539 74.3673M158.539 74.3673C157.992 74.5864 157.483 74.6326 157.007 74.519M158.539 74.3673L157.007 74.519M155.178 73.1911L155.323 73.3428L155.634 73.6693L155.178 73.1911ZM155.178 73.1911L155.034 73.3428M155.178 73.1911L155.034 73.3428M155.034 73.3428L154.722 73.6694L154.722 73.6694M155.034 73.3428L154.722 73.6694M154.722 73.6694C154.236 74.1789 153.739 74.4938 153.236 74.6307M154.722 73.6694L153.236 74.6307M157.007 74.519C156.531 74.4052 156.072 74.127 155.635 73.6694L157.007 74.519ZM153.236 74.6307C152.736 74.7668 152.214 74.731 151.669 74.5134L153.236 74.6307ZM161.049 59.4927L161.049 59.4926C159.487 58.7418 157.669 59.0255 155.853 60.2131C156.01 59.2138 156.524 57.8901 158.083 57.234L158.084 57.2337C158.385 57.1054 158.528 56.7659 158.428 56.4627L158.428 56.4627C158.311 56.1098 157.918 55.9354 157.578 56.079L157.577 56.0791C155.32 57.0357 154.72 59.0661 154.576 60.3594C151.748 58.6626 149.817 58.9635 148.644 59.6209L148.644 59.621C146.727 60.6982 145.77 63.2717 145.991 66.4046C145.993 68.3226 146.598 70.3564 147.544 72.048C148.488 73.7375 149.789 75.1145 151.202 75.6796C151.611 75.8436 152.105 75.9711 152.65 75.9711C153.431 75.9711 154.305 75.7116 155.183 74.9628C156.304 75.8702 157.647 76.077 159.006 75.5336L159.006 75.5336C160.45 74.9559 161.782 73.6021 162.75 71.9528C163.72 70.3017 164.342 68.3279 164.344 66.4782C164.449 63.2852 163.184 60.5221 161.049 59.4927Z" fill="#5E4F94" stroke="#5E4F94" stroke-width="0.4"/>
<path d="M149.191 63.3383L149.191 63.3384C149.513 63.4103 149.729 63.7155 149.678 64.0471L149.191 63.3383ZM149.191 63.3383C148.836 63.2598 148.487 63.4954 148.43 63.8572L148.628 63.8881L148.43 63.8568C148.31 64.6128 148.135 66.1965 148.404 67.9335C148.672 69.6709 149.389 71.5804 151.068 72.9587C151.348 73.1887 151.773 73.1514 151.99 72.8445L151.99 72.8439M149.191 63.3383L151.99 72.8439M151.99 72.8439C152.172 72.5856 152.145 72.212 151.884 72L151.758 72.1553M151.99 72.8439L151.758 72.1553M151.758 72.1553C151.93 72.2949 151.953 72.5484 151.827 72.7289L151.758 72.1553ZM151.758 72.1553L151.885 72.0005M151.758 72.1553L151.885 72.0005M151.885 72.0005C150.49 70.8591 149.883 69.215 149.655 67.6709M151.885 72.0005L149.655 67.6709M149.655 67.6709C149.426 66.1276 149.578 64.7075 149.678 64.0471L149.655 67.6709Z" fill="#5E4F94" stroke="#5E4F94" stroke-width="0.4"/>
<path d="M107.81 59.5249C106.232 58.7487 104.351 59.0983 102.449 60.5011C102.526 59.4369 102.952 57.6581 104.852 56.8402C105.054 56.7523 105.153 56.517 105.085 56.3037C105.005 56.0575 104.736 55.9343 104.502 56.0355C102.148 57.0557 101.669 59.3226 101.591 60.5759C98.6593 58.6762 96.7182 58.9994 95.5832 59.6502C93.7625 60.6968 92.8102 63.2319 93.0316 66.4069C93.0316 70.2569 95.4091 74.6082 98.1197 75.7164C98.511 75.8769 98.9796 76 99.4934 76C100.263 76 101.138 75.7274 102.026 74.9028C103.118 75.8791 104.435 76.1165 105.779 75.5668C108.556 74.4301 110.992 70.1887 110.994 66.4861C111.099 63.2605 109.848 60.5297 107.81 59.5249Z" stroke="#5E4F94" stroke-linecap="round" stroke-dasharray="2 2"/>
</g>
<defs>
<clipPath id="clip0_450_42">
<rect width="200" height="100" fill="white"/>
</clipPath>
</defs>
</svg>
