<svg width="200" height="100" viewBox="0 0 200 100" fill="none" xmlns="http://www.w3.org/2000/svg">
<g clip-path="url(#clip0_500_595)">
<rect width="200" height="100" fill="#FFFCF9"/>
<rect x="1" y="1" width="198" height="98" rx="9" stroke="#5E4F94" stroke-width="2"/>
<path d="M39 43C39 47.4729 35.5891 51 31.5 51C27.4109 51 24 47.4729 24 43C24 38.5271 27.4109 35 31.5 35C35.5891 35 39 38.5271 39 43Z" stroke="#5E4F94" stroke-width="2"/>
<path d="M53.4977 88.1442L53.4922 88.0993C53.4859 88.0477 53.4816 88.0002 53.4785 87.962L53.4743 87.9084L53.4709 87.865C53.4668 87.8156 53.464 87.7968 53.4626 87.7895C53.4624 87.7887 53.4623 87.7881 53.4622 87.7876L47.3764 59.5191L47.3764 59.5191C47.2721 59.0345 47.0422 58.5982 46.7211 58.2106L46.7003 58.1854L46.6811 58.1589L46.681 58.1589C46.6807 58.1584 46.6784 58.1553 46.6732 58.149C46.6674 58.1419 46.6594 58.1326 46.6482 58.12C46.6292 58.0986 46.6109 58.0789 46.5853 58.0512C46.5782 58.0436 46.5706 58.0355 46.5623 58.0265C46.5426 58.0059 46.5253 57.9871 46.5118 57.9724L46.4903 57.9488L46.4743 57.9312C46.4661 57.9223 46.4613 57.9173 46.4592 57.915L46.4558 57.912L46.4476 57.9044C46.3542 57.8174 46.2312 57.7208 46.075 57.6142L46.0719 57.6121C46.0415 57.5911 46.0163 57.572 45.9992 57.5588L45.9774 57.5417L45.9742 57.5392C44.9087 56.8554 43.0045 56.2102 40.4493 55.741C37.9133 55.2753 34.8325 55 31.5008 55C27.5145 55 23.8967 55.3944 21.1423 56.0346C19.7632 56.3552 18.6285 56.731 17.7816 57.134C16.9043 57.5516 16.4626 57.9391 16.2975 58.2104L16.2695 58.2563L16.2368 58.299C15.957 58.6637 15.755 59.071 15.6595 59.5177L15.6592 59.5191L9.58346 87.7408C9.58081 87.7648 9.57683 87.7938 9.57069 87.8262L9.56842 87.8381L9.56587 87.8499L9.06982 90.1552L9.0697 90.1557C8.70999 91.8228 9.78501 93.4807 11.5041 93.841L11.5044 93.8411C13.2235 94.202 14.8969 93.1155 15.258 91.4445L53.4977 88.1442ZM53.4977 88.1442L53.5072 88.1885M53.4977 88.1442L53.5072 88.1885M53.5072 88.1885L53.9306 90.1551C54.2896 91.8239 53.2141 93.4808 51.4962 93.8411L51.4961 93.8411M53.5072 88.1885L51.4961 93.8411M51.4961 93.8411C49.7759 94.202 48.1035 93.1155 47.7424 91.4445L51.4961 93.8411ZM18.7508 75.2193L15.2581 91.4439H47.7423L44.1043 74.5435L42.1267 74.7539V93.8605V97.719V100.131V122.767V129.039C42.1267 131.211 40.3327 133 38.1049 133C35.8731 133 34.0786 131.209 34.0786 129.039V122.767V100.131V97.719V96.719H33.0786H29.7754H28.7754V97.719V100.131V122.766V129.038C28.7754 131.21 26.9822 132.999 24.7547 132.999C22.5229 132.999 20.7284 131.208 20.7284 129.038V122.766V100.13V97.7179V93.8594V75.4297L18.7508 75.2193Z" stroke="#5E4F94" stroke-width="2"/>
<path d="M53.4977 88.1442L53.4922 88.0993C53.4859 88.0477 53.4816 88.0002 53.4785 87.962L53.4743 87.9084L53.4709 87.865C53.4668 87.8156 53.464 87.7968 53.4626 87.7895C53.4624 87.7887 53.4623 87.7881 53.4622 87.7876L47.3764 59.5191L47.3764 59.5191C47.2721 59.0345 47.0422 58.5982 46.7211 58.2106L46.7003 58.1854L46.6811 58.1589L46.681 58.1589C46.6807 58.1584 46.6784 58.1553 46.6732 58.149C46.6674 58.1419 46.6594 58.1326 46.6482 58.12C46.6292 58.0986 46.6109 58.0789 46.5853 58.0512C46.5782 58.0436 46.5706 58.0355 46.5623 58.0265C46.5426 58.0059 46.5253 57.9871 46.5118 57.9724L46.4903 57.9488L46.4743 57.9312C46.4661 57.9223 46.4613 57.9173 46.4592 57.915L46.4558 57.912L46.4476 57.9044C46.3542 57.8174 46.2312 57.7208 46.075 57.6142L46.0719 57.6121C46.0415 57.5911 46.0163 57.572 45.9992 57.5588L45.9774 57.5417L45.9742 57.5392C44.9087 56.8554 43.0045 56.2102 40.4493 55.741C37.9133 55.2753 34.8325 55 31.5008 55C27.5145 55 23.8967 55.3944 21.1423 56.0346C19.7632 56.3552 18.6285 56.731 17.7816 57.134C16.9043 57.5516 16.4626 57.9391 16.2975 58.2104L16.2695 58.2563L16.2368 58.299C15.957 58.6637 15.755 59.071 15.6595 59.5177L15.6592 59.5191L9.58346 87.7408C9.58081 87.7648 9.57683 87.7938 9.57069 87.8262L9.56842 87.8381L9.56587 87.8499L9.06982 90.1552L9.0697 90.1557C8.70999 91.8228 9.78501 93.4807 11.5041 93.841L11.5044 93.8411C13.2235 94.202 14.8969 93.1155 15.258 91.4445L53.4977 88.1442ZM53.4977 88.1442L53.5072 88.1885M53.4977 88.1442L53.5072 88.1885M53.5072 88.1885L53.9306 90.1551C54.2896 91.8239 53.2141 93.4808 51.4962 93.8411L51.4961 93.8411M53.5072 88.1885L51.4961 93.8411M51.4961 93.8411C49.7759 94.202 48.1035 93.1155 47.7424 91.4445L51.4961 93.8411ZM18.7508 75.2193L15.2581 91.4439H47.7423L44.1043 74.5435L42.1267 74.7539V93.8605V97.719V100.131V122.767V129.039C42.1267 131.211 40.3327 133 38.1049 133C35.8731 133 34.0786 131.209 34.0786 129.039V122.767V100.131V97.719V96.719H33.0786H29.7754H28.7754V97.719V100.131V122.766V129.038C28.7754 131.21 26.9822 132.999 24.7547 132.999C22.5229 132.999 20.7284 131.208 20.7284 129.038V122.766V100.13V97.7179V93.8594V75.4297L18.7508 75.2193Z" stroke="#5E4F94" stroke-width="2"/>
<g opacity="0.6">
<path d="M70.0048 66C71.6642 66 73.0095 64.6547 73.0095 62.9952C73.0095 61.3358 71.6642 59.9905 70.0048 59.9905C68.3453 59.9905 67 61.3358 67 62.9952C67 64.6547 68.3453 66 70.0048 66Z" fill="#FFFCF9" stroke="#5E4F94" stroke-width="2.0527" stroke-miterlimit="10" stroke-linecap="round" stroke-linejoin="round"/>
<path d="M79.019 60.9921C81.2317 60.9921 83.0254 59.1984 83.0254 56.9857C83.0254 54.7731 81.2317 52.9794 79.019 52.9794C76.8064 52.9794 75.0127 54.7731 75.0127 56.9857C75.0127 59.1984 76.8064 60.9921 79.019 60.9921Z" fill="#FFFCF9" stroke="#5E4F94" stroke-width="2.0527" stroke-miterlimit="10" stroke-linecap="round" stroke-linejoin="round"/>
<path d="M147.683 42.1845C146.904 43.2974 148.796 43.4087 149.464 44.4103C150.911 46.5247 151.022 49.1956 149.798 51.5326C145.012 60.7695 133.216 57.2083 133.216 57.2083C124.202 69.2273 111.181 59.8792 111.181 59.8792C109.734 61.7711 104.17 62.4388 104.17 62.4388C87.2543 62.4388 89.1462 52.2004 89.1462 52.2004C79.1303 51.7552 78.4626 44.1877 78.4626 44.1877C78.4626 33.7267 89.5913 34.5057 89.5913 34.5057C89.5913 19.927 109.957 25.3801 109.957 25.3801C109.957 25.3801 123.979 13.6949 133.55 28.4962C133.55 28.4962 148.574 26.2704 148.574 37.1766C148.574 37.5104 149.241 40.1813 147.683 42.1845Z" fill="#FFFCF9" stroke="#5E4F94" stroke-width="2.0527" stroke-miterlimit="10" stroke-linecap="round" stroke-linejoin="round"/>
</g>
<g opacity="0.2">
<path d="M57.1367 66C58.3168 66 59.2734 65.0434 59.2734 63.8633C59.2734 62.6832 58.3168 61.7266 57.1367 61.7266C55.9566 61.7266 55 62.6832 55 63.8633C55 65.0434 55.9566 66 57.1367 66Z" fill="#FFFCF9" stroke="#5E4F94" stroke-width="2.0527" stroke-miterlimit="10" stroke-linecap="round" stroke-linejoin="round"/>
<path d="M63.5469 62.4388C65.1203 62.4388 66.3958 61.1632 66.3958 59.5898C66.3958 58.0164 65.1203 56.7408 63.5469 56.7408C61.9735 56.7408 60.6979 58.0164 60.6979 59.5898C60.6979 61.1632 61.9735 62.4388 63.5469 62.4388Z" fill="#FFFCF9" stroke="#5E4F94" stroke-width="2.0527" stroke-miterlimit="10" stroke-linecap="round" stroke-linejoin="round"/>
<path d="M112.375 49.0645C111.821 49.8559 113.166 49.9351 113.641 50.6473C114.67 52.1509 114.749 54.0502 113.878 55.7121C110.476 62.2805 102.087 59.7481 102.087 59.7481C95.6768 68.295 86.4177 61.6474 86.4177 61.6474C85.3889 62.9928 81.432 63.4676 81.432 63.4676C69.4031 63.4676 70.7484 56.1869 70.7484 56.1869C63.626 55.8704 63.1512 50.489 63.1512 50.489C63.1512 43.0501 71.065 43.604 71.065 43.604C71.065 33.237 85.5471 37.1147 85.5471 37.1147C85.5471 37.1147 95.5185 28.8053 102.324 39.3306C102.324 39.3306 113.008 37.7478 113.008 45.5033C113.008 45.7408 113.483 47.6401 112.375 49.0645Z" fill="#FFFCF9" stroke="#5E4F94" stroke-width="2.0527" stroke-miterlimit="10" stroke-linecap="round" stroke-linejoin="round"/>
</g>
<path d="M83.0595 65.7967C85.3016 65.7967 87.1191 63.9792 87.1191 61.7372C87.1191 59.4951 85.3016 57.6776 83.0595 57.6776C80.8175 57.6776 79 59.4951 79 61.7372C79 63.9792 80.8175 65.7967 83.0595 65.7967Z" fill="#FFFCF9" stroke="#5E4F94" stroke-width="2.0527" stroke-miterlimit="10" stroke-linecap="round" stroke-linejoin="round"/>
<path d="M95.2382 59.0308C98.2275 59.0308 100.651 56.6074 100.651 53.618C100.651 50.6287 98.2275 48.2053 95.2382 48.2053C92.2488 48.2053 89.8254 50.6287 89.8254 53.618C89.8254 56.6074 92.2488 59.0308 95.2382 59.0308Z" fill="#FFFCF9" stroke="#5E4F94" stroke-width="2.0527" stroke-miterlimit="10" stroke-linecap="round" stroke-linejoin="round"/>
<path d="M188.006 33.6211C186.954 35.1246 189.51 35.275 190.412 36.6281C192.366 39.4849 192.517 43.0933 190.863 46.2508C184.398 58.7301 168.46 53.9188 168.46 53.9188C156.282 70.157 138.69 57.5273 138.69 57.5273C136.736 60.0833 129.218 60.9854 129.218 60.9854C106.364 60.9854 108.92 47.1529 108.92 47.1529C95.3885 46.5515 94.4864 36.3274 94.4864 36.3274C94.4864 22.1942 109.522 23.2467 109.522 23.2467C109.522 3.55038 137.036 10.9177 137.036 10.9177C137.036 10.9177 155.981 -4.86941 168.911 15.1276C168.911 15.1276 189.209 12.1205 189.209 26.8552C189.209 27.3062 190.111 30.9147 188.006 33.6211Z" fill="#FFFCF9" stroke="#5E4F94" stroke-width="2.0527" stroke-miterlimit="10" stroke-linecap="round" stroke-linejoin="round"/>
<path d="M145.629 45.1282L156.958 23.0322C157.199 22.5622 157.734 22.3815 158.14 22.5897C158.546 22.7978 158.711 23.3398 158.47 23.8102L147.142 45.9038C146.902 46.372 146.364 46.5566 145.958 46.3487C145.553 46.1406 145.388 45.5986 145.629 45.1282Z" fill="#AF99C7" stroke="#FFFCF9" stroke-width="0.3"/>
<path d="M141.515 27.4163H135.809C135.621 27.4163 135.435 27.3079 135.29 27.1027C135.145 26.8981 135.051 26.6084 135.051 26.2831C135.051 25.9577 135.145 25.6679 135.289 25.4634C135.434 25.2585 135.62 25.15 135.809 25.15H141.515C141.703 25.15 141.889 25.2584 142.034 25.4635C142.179 25.6681 142.273 25.9579 142.273 26.2831C142.273 26.6086 142.179 26.8983 142.035 27.1028C141.89 27.3078 141.704 27.4163 141.515 27.4163Z" fill="#5E4F94" stroke="#FFFCF9" stroke-width="0.3"/>
<path d="M112.208 33.6825H116.285C116.474 33.6825 116.66 33.791 116.805 33.9959C116.949 34.2004 117.043 34.4902 117.043 34.8156C117.043 35.141 116.949 35.4308 116.805 35.6353C116.66 35.8402 116.474 35.9487 116.285 35.9487H112.208C112.02 35.9487 111.834 35.8403 111.689 35.6352C111.544 35.4306 111.45 35.1409 111.45 34.8156C111.45 34.4902 111.544 34.2004 111.688 33.9959C111.833 33.791 112.019 33.6825 112.208 33.6825Z" fill="#5E4F94" stroke="#FFFCF9" stroke-width="0.3"/>
<path d="M121.051 33.4656H141.809C141.997 33.4656 142.183 33.5739 142.327 33.7788C142.471 33.9833 142.564 34.2731 142.564 34.5987C142.564 34.9241 142.47 35.2139 142.326 35.4184C142.181 35.6233 141.995 35.7318 141.806 35.7318H121.051C120.863 35.7318 120.677 35.6234 120.532 35.4183C120.387 35.2137 120.293 34.9239 120.293 34.5987C120.293 34.2732 120.387 33.9835 120.531 33.779C120.676 33.5741 120.862 33.4656 121.051 33.4656Z" fill="#5E4F94" stroke="#FFFCF9" stroke-width="0.3"/>
<path d="M131.005 27.4258H111.908C111.719 27.4258 111.533 27.3173 111.388 27.1123C111.244 26.9078 111.15 26.6181 111.15 26.2927C111.15 25.9672 111.244 25.6775 111.388 25.473C111.533 25.268 111.719 25.1595 111.908 25.1595H131.005C131.192 25.1595 131.378 25.2679 131.523 25.4731C131.668 25.6776 131.762 25.9674 131.762 26.2927C131.762 26.6181 131.668 26.9078 131.524 27.1123C131.379 27.3173 131.193 27.4258 131.005 27.4258Z" fill="#5E4F94" stroke="#FFFCF9" stroke-width="0.3"/>
<path d="M141.515 43.8403H135.809C135.621 43.8403 135.435 43.7319 135.29 43.5268C135.145 43.3222 135.051 43.0325 135.051 42.7072C135.051 42.3818 135.145 42.092 135.289 41.8875C135.434 41.6826 135.62 41.5741 135.809 41.5741H141.515C141.703 41.5741 141.889 41.6825 142.034 41.8876C142.179 42.0922 142.273 42.382 142.273 42.7072C142.273 43.0326 142.179 43.3224 142.035 43.5269C141.89 43.7318 141.704 43.8403 141.515 43.8403Z" fill="#5E4F94" stroke="#FFFCF9" stroke-width="0.3"/>
<path d="M131.005 43.85H111.908C111.719 43.85 111.533 43.7415 111.388 43.5365C111.244 43.332 111.15 43.0423 111.15 42.7168C111.15 42.3914 111.244 42.1017 111.388 41.8972C111.533 41.6922 111.719 41.5837 111.908 41.5837H131.005C131.192 41.5837 131.378 41.6921 131.523 41.8973C131.668 42.1018 131.762 42.3916 131.762 42.7168C131.762 43.0423 131.668 43.332 131.524 43.5365C131.379 43.7415 131.193 43.85 131.005 43.85Z" fill="#5E4F94" stroke="#FFFCF9" stroke-width="0.3"/>
<path d="M181.593 34.5316L181.593 34.5316C181.701 31.2929 180.43 28.5397 178.518 27.6219L178.517 27.6218C176.889 26.8375 174.881 27.3453 172.671 29.2314L172.67 29.2318L172.368 29.4882L172.249 29.5893L172.122 29.4983L171.8 29.2675C171.8 29.2675 171.8 29.2674 171.8 29.2674C169.946 27.9454 168.304 27.2963 166.942 27.2963C166.298 27.2963 165.715 27.4414 165.199 27.7304L165.101 27.5559L165.199 27.7304C163.53 28.6653 162.576 31.1959 162.805 34.42L162.806 34.4341H162.805C162.807 36.4163 163.436 38.5635 164.414 40.3547C165.395 42.1508 166.707 43.5558 168.05 44.0949L181.593 34.5316ZM181.593 34.5316V34.5383M181.593 34.5316V34.5383M181.593 34.5383V34.5561C181.593 36.4349 180.949 38.4993 179.943 40.2384C178.936 41.9811 177.585 43.3666 176.196 43.9223L176.196 43.9224M181.593 34.5383L176.196 43.9224M176.196 43.9224C175.544 44.1837 174.934 44.2395 174.364 44.1033M176.196 43.9224L174.364 44.1033M172.211 42.5513L172.355 42.703L172.724 43.0888L172.211 42.5513ZM172.211 42.5513L172.066 42.703M172.211 42.5513L172.066 42.703M172.066 42.703L171.698 43.0889L171.698 43.089M172.066 42.703L171.698 43.089M171.698 43.089C171.121 43.6945 170.528 44.0711 169.925 44.235M171.698 43.089L169.925 44.235M174.364 44.1033C173.792 43.9669 173.244 43.6337 172.724 43.0889L174.364 44.1033ZM169.925 44.235C169.325 44.3982 168.701 44.3548 168.05 44.0951L169.925 44.235ZM179.133 26.3423L179.133 26.3422C177.283 25.4529 175.122 25.7995 172.96 27.2361C173.132 26.0399 173.728 24.4068 175.63 23.6066L175.63 23.6063C175.969 23.4624 176.129 23.0812 176.016 22.7401L176.016 22.74C175.885 22.3434 175.444 22.1471 175.061 22.3087L175.06 22.3088C172.377 23.4459 171.687 25.8752 171.528 27.3944C168.169 25.3616 165.885 25.7196 164.506 26.4927L164.506 26.4928C162.258 27.756 161.128 30.7799 161.39 34.4769C161.391 36.7369 162.104 39.1349 163.22 41.1299C164.334 43.1228 165.866 44.7423 167.525 45.4058C168.005 45.5983 168.584 45.7477 169.222 45.7477C170.144 45.7477 171.176 45.4397 172.216 44.5451C173.536 45.6255 175.118 45.8743 176.721 45.2332L176.721 45.2332C178.417 44.5545 179.986 42.9619 181.128 41.0168C182.272 39.0698 183.004 36.7432 183.006 34.5645C183.131 30.7985 181.638 27.5502 179.133 26.3423Z" fill="#5E4F94" stroke="#5E4F94" stroke-width="0.4"/>
<path d="M165.127 30.8899L165.127 30.89C165.489 30.9709 165.732 31.314 165.675 31.6866L165.127 30.8899ZM165.127 30.8899C164.728 30.8017 164.335 31.0666 164.272 31.4732L164.469 31.5042L164.272 31.4729M165.127 30.8899L164.272 31.4729M168.413 42.0674L168.413 42.068C168.169 42.4124 167.691 42.4552 167.376 42.1959L168.413 42.0674ZM168.413 42.0674C168.618 41.7763 168.587 41.3566 168.295 41.1193L168.169 41.2744L168.295 41.1197M168.413 42.0674L168.295 41.1197M164.272 31.4729C164.13 32.3644 163.924 34.2319 164.24 36.2796M164.272 31.4729L164.24 36.2796M164.24 36.2796C164.557 38.3275 165.401 40.5745 167.376 42.1957L164.24 36.2796ZM168.295 41.1197C166.637 39.7628 165.918 37.8098 165.647 35.9801M168.295 41.1197L165.647 35.9801M165.647 35.9801C165.376 34.1512 165.556 32.4689 165.675 31.6866L165.647 35.9801Z" fill="#5E4F94" stroke="#5E4F94" stroke-width="0.4"/>
</g>
<defs>
<clipPath id="clip0_500_595">
<rect width="200" height="100" fill="white"/>
</clipPath>
</defs>
</svg>
