<svg width="200" height="100" viewBox="0 0 200 100" fill="none" xmlns="http://www.w3.org/2000/svg">
<g clip-path="url(#clip0_521_1213)">
<rect width="200" height="100" fill="#FFFCF9"/>
<rect x="1" y="1" width="198" height="98" rx="9" stroke="#5E4F94" stroke-width="2"/>
<path d="M95.8024 8.5774C92.3324 8.5774 89.5197 11.3902 89.5197 14.8601C89.5197 18.33 92.3324 21.1428 95.8024 21.1428C99.2723 21.1428 102.085 18.33 102.085 14.8601C102.085 11.3902 99.2723 8.5774 95.8024 8.5774ZM87.9424 14.8601C87.9424 10.5189 91.4614 7 95.8024 7C100.143 7 103.662 10.5189 103.662 14.8601C103.662 19.2011 100.143 22.7202 95.8024 22.7202C91.4614 22.7202 87.9424 19.2009 87.9424 14.8601Z" fill="#B2AAD1"/>
<path d="M87.9 45.6555V59.4979V87.7349C87.9 89.771 89.5506 91.4218 91.5871 91.4218C93.5926 91.4218 95.2374 89.7814 95.2374 87.7349V61.0074C95.2374 59.9987 95.7221 59.0505 96.5606 58.4715C97.3542 57.886 98.3922 57.719 99.3302 57.9874L110.48 61.4948C111.274 61.759 111.984 62.3429 112.371 63.1168C112.748 63.9188 112.772 64.8592 112.456 65.6719L108.883 74.6241C108.124 76.5284 109.044 78.6706 110.91 79.422C112.815 80.1814 114.96 79.2597 115.709 77.3916L122.478 60.5062C122.741 59.8349 122.72 59.0761 122.414 58.4114C122.081 57.7153 121.493 57.2262 120.835 57.0303L106.401 52.5014C105.739 52.2975 105.18 51.8668 104.786 51.3417C104.393 50.8003 104.183 50.1416 104.183 49.4842V33.3595C104.183 32.6865 104.436 32.0117 104.94 31.5079C105.428 31.0197 106.1 30.7144 106.828 30.7144H128.144C129.449 30.7144 130.506 29.6569 130.506 28.3526C130.506 27.0482 129.449 25.9907 128.144 25.9907H63.9392C62.6347 25.9907 61.5774 27.0482 61.5774 28.3526C61.5774 29.6569 62.6347 30.7144 63.9392 30.7144H85.2549C85.9586 30.7144 86.6246 31.0013 87.1074 31.507C87.613 31.9898 87.9 32.6557 87.9 33.3595V45.6555ZM86.3226 59.4979V45.6555V33.3595C86.3226 33.0766 86.2035 32.8117 85.9913 32.6231C85.8027 32.4109 85.5378 32.2918 85.2549 32.2918H63.9392C61.7636 32.2918 60 30.5282 60 28.3526C60 26.177 61.7636 24.4133 63.9392 24.4133H128.144C130.32 24.4133 132.083 26.177 132.083 28.3526C132.083 30.5282 130.32 32.2918 128.144 32.2918H106.828C106.546 32.2918 106.267 32.4109 106.055 32.6231C105.867 32.8117 105.761 33.0766 105.761 33.3595V49.4842C105.761 49.8192 105.864 50.1414 106.055 50.4046C106.271 50.6918 106.554 50.898 106.865 50.9937L121.297 55.5219C122.4 55.8508 123.32 56.6508 123.837 57.7309C124.33 58.7873 124.37 60.0009 123.947 61.081L117.173 77.9793C116.096 80.6631 113.03 81.965 110.326 80.8875C107.642 79.81 106.34 76.7443 107.417 74.04L110.988 65.0941C111.153 64.6715 111.139 64.2046 110.952 63.8057C110.764 63.43 110.417 63.1366 109.995 62.9958L98.8765 59.4984C98.3907 59.3595 97.8708 59.4556 97.4775 59.7562C97.0611 60.0337 96.8148 60.4991 96.8148 61.0079V87.7356C96.8148 90.643 94.4743 93 91.5871 93C88.6796 93 86.3226 90.643 86.3226 87.7356V59.4979Z" fill="#B2AAD1"/>
<path d="M95.8025 8.5774C92.3326 8.5774 89.5198 11.3902 89.5198 14.8601C89.5198 18.33 92.3326 21.1428 95.8025 21.1428C99.2725 21.1428 102.085 18.33 102.085 14.8601C102.085 11.3902 99.2723 8.5774 95.8025 8.5774ZM87.9424 14.8601C87.9424 10.5189 91.4615 7 95.8025 7C100.144 7 103.663 10.5189 103.663 14.8601C103.663 19.2011 100.144 22.7202 95.8025 22.7202C91.4615 22.72 87.9424 19.2009 87.9424 14.8601Z" fill="#5E4F94"/>
<path d="M87.8633 45.6555V59.4979V87.7349C87.8633 89.771 89.5141 91.4218 91.5504 91.4218C93.5867 91.4218 95.2376 89.771 95.2376 87.7349V61.0074C95.2376 59.9987 95.7222 59.0506 96.5605 58.4717C97.354 57.8861 98.3918 57.7188 99.3296 57.9872L133.577 68.7399C135.54 69.3418 137.604 68.2414 138.199 66.317C138.81 64.3836 137.741 62.3164 135.809 61.7031L106.432 52.5105C105.761 52.3189 105.18 51.9062 104.78 51.3324C104.386 50.7914 104.184 50.1422 104.184 49.4842V33.3595C104.184 32.6865 104.436 32.0115 104.94 31.5077C105.398 31.0499 106.048 30.7144 106.791 30.7144H128.107C129.446 30.7144 130.506 29.6434 130.506 28.3526C130.506 27.0619 129.446 25.9907 128.107 25.9907H63.9392C62.6347 25.9907 61.5774 27.0482 61.5774 28.3526C61.5774 29.6569 62.6349 30.7144 63.9392 30.7144H85.2551C85.9742 30.7144 86.6542 31.0141 87.1397 31.5413C87.6216 32.0414 87.8633 32.7014 87.8633 33.3595V45.6555ZM86.2859 59.4979V45.6555V33.3595C86.2859 33.0766 86.1799 32.8117 85.9913 32.6231C85.8028 32.4109 85.538 32.2918 85.2551 32.2918H63.9392C61.7636 32.2918 60 30.5282 60 28.3526C60 26.177 61.7636 24.4133 63.9392 24.4133H128.107C130.303 24.4133 132.083 26.177 132.083 28.3526C132.083 30.5282 130.303 32.2918 128.107 32.2918H106.792C106.533 32.2918 106.268 32.4109 106.055 32.6231C105.867 32.8117 105.761 33.0766 105.761 33.3595V49.4842C105.761 49.8192 105.864 50.1414 106.055 50.4046C106.247 50.6918 106.531 50.898 106.865 50.9937L136.28 60.1975C139.046 61.0717 140.579 64.0221 139.704 66.7874C138.85 69.5523 135.9 71.1019 133.114 70.2477L98.8765 59.4979C98.3909 59.3589 97.8708 59.455 97.4775 59.7557C97.0613 60.0332 96.815 60.4986 96.815 61.0074V87.7351C96.815 90.6424 94.4579 92.9994 91.5504 92.9994C88.6429 92.9994 86.2859 90.6424 86.2859 87.7351V59.4979Z" fill="#5E4F94"/>
<path d="M112.381 88.2897C112.101 88.6317 112.152 89.1357 112.494 89.4154L118.067 93.9733C118.409 94.253 118.913 94.2025 119.193 93.8605C119.473 93.5184 119.422 93.0144 119.08 92.7347L114.126 88.6833L118.177 83.7289C118.457 83.3869 118.406 82.8829 118.064 82.6032C117.722 82.3235 117.218 82.374 116.939 82.7161L112.381 88.2897ZM149.105 69.9257C149.064 69.4858 148.674 69.1624 148.234 69.2035L141.066 69.8724C140.626 69.9134 140.302 70.3033 140.343 70.7433C140.384 71.1832 140.774 71.5065 141.214 71.4655L147.586 70.8709L148.181 77.2432C148.222 77.6831 148.612 78.0064 149.052 77.9654C149.492 77.9244 149.815 77.5345 149.774 77.0945L149.105 69.9257ZM113 88.7961C113.08 89.5922 113.08 89.5921 113.08 89.5921C113.08 89.5921 113.08 89.5921 113.081 89.5921C113.081 89.592 113.082 89.5919 113.083 89.5918C113.085 89.5917 113.087 89.5914 113.091 89.591C113.098 89.5903 113.107 89.5893 113.12 89.588C113.146 89.5853 113.185 89.5813 113.235 89.5759C113.334 89.5651 113.481 89.549 113.669 89.5272C114.045 89.4836 114.589 89.4173 115.263 89.3262C116.61 89.1443 118.479 88.8631 120.566 88.4661C124.715 87.677 129.818 86.4137 133.38 84.5178L132.628 83.1055C129.295 84.8798 124.397 86.1087 120.267 86.8943C118.215 87.2847 116.375 87.5615 115.049 87.7406C114.386 87.8302 113.852 87.8952 113.485 87.9378C113.301 87.9591 113.159 87.9748 113.063 87.9851C113.015 87.9902 112.979 87.994 112.955 87.9965C112.943 87.9978 112.934 87.9987 112.928 87.9993C112.925 87.9996 112.923 87.9998 112.922 88C112.921 88 112.921 88.0001 112.92 88.0001C112.92 88.0001 112.92 88.0001 112.92 88.0001C112.92 88.0001 112.92 88.0001 113 88.7961ZM133.38 84.5178C136.941 82.6219 140.839 79.0933 143.81 76.0924C145.305 74.5828 146.582 73.1895 147.485 72.1735C147.937 71.6653 148.295 71.251 148.542 70.9631C148.665 70.8191 148.76 70.7067 148.825 70.63C148.857 70.5916 148.882 70.5622 148.898 70.5421C148.907 70.5321 148.913 70.5244 148.917 70.5191C148.92 70.5165 148.921 70.5145 148.923 70.5131C148.923 70.5124 148.924 70.5118 148.924 70.5114C148.924 70.5112 148.924 70.511 148.924 70.5109C148.924 70.5108 148.925 70.5107 148.309 70C147.693 69.4893 147.693 69.4893 147.693 69.4893C147.693 69.4894 147.693 69.4894 147.693 69.4895C147.693 69.4897 147.692 69.4901 147.692 69.4906C147.691 69.4917 147.69 69.4933 147.688 69.4956C147.684 69.5001 147.678 69.507 147.67 69.5163C147.655 69.5349 147.632 69.5628 147.601 69.5996C147.539 69.6732 147.446 69.7823 147.326 69.9228C147.086 70.2039 146.733 70.6105 146.289 71.1104C145.4 72.1106 144.143 73.4821 142.673 74.9667C139.716 77.954 135.961 81.3312 132.628 83.1055L133.38 84.5178Z" fill="#AF99C7"/>
</g>
<defs>
<clipPath id="clip0_521_1213">
<rect width="200" height="100" fill="white"/>
</clipPath>
</defs>
</svg>
