<svg width="200" height="100" viewBox="0 0 200 100" fill="none" xmlns="http://www.w3.org/2000/svg">
<g clip-path="url(#clip0_522_1286)">
<rect width="200" height="100" fill="#FFFCF9"/>
<rect x="1" y="1" width="198" height="98" rx="9" stroke="#5E4F94" stroke-width="2"/>
<g opacity="0.3">
<path d="M48.3558 23.074C52.7917 23.074 56.3928 19.4632 56.3928 15.037C56.3928 10.6108 52.7917 7 48.3558 7C43.9199 7 40.3188 10.6011 40.3188 15.037C40.3188 19.4729 43.9199 23.074 48.3558 23.074ZM48.3558 8.90248C51.7434 8.90248 54.4903 11.6591 54.4903 15.037C54.4903 18.4149 51.7337 21.1715 48.3558 21.1715C44.9779 21.1715 42.2213 18.4149 42.2213 15.037C42.2213 11.6591 44.9779 8.90248 48.3558 8.90248Z" fill="#5E4F94"/>
<path d="M72.7774 30.2763C71.4379 28.1117 68.5939 27.442 66.4293 28.7718L57.8391 34.0715L50.4815 26.714C50.3262 26.5587 50.1612 26.4228 49.9865 26.2869C48.9187 25.3065 47.5501 24.6368 46.0068 24.4621C44.609 24.2971 43.2016 24.5494 41.9494 25.1804L39.484 26.3063L29.0689 30.8296C28.1759 31.2178 27.4382 31.8682 26.9334 32.7126L20.1777 44.1275C18.8867 46.3212 19.605 49.1555 21.7987 50.4465C22.5072 50.8639 23.3226 51.0871 24.1476 51.0871C25.7686 51.0871 27.2926 50.2232 28.1176 48.8255L34.1066 38.6919L37.3 37.3038L35.4461 53.0478L30.9325 71.4223L20.1583 84.6038C18.3625 86.7975 18.6926 90.0395 20.8862 91.8352C21.7987 92.5826 22.9537 93 24.1379 93C25.691 93 27.1373 92.3108 28.1176 91.1169L39.6296 77.0424C40.1149 76.4503 40.4643 75.7514 40.6391 75.0137L42.0562 69.2286L52.5587 90.1656C53.4323 91.9128 55.1989 93 57.1499 93C57.9555 93 58.7223 92.8155 59.4503 92.4564C61.9837 91.1848 63.0126 88.0982 61.7411 85.5647L49.0158 60.1918L50.53 46.9618L51.2774 40.5749L53.8788 43.1763C54.7524 44.0499 55.9074 44.5255 57.1402 44.5255C57.9944 44.5255 58.8291 44.2828 59.5668 43.8363L71.2632 36.6147C73.4278 35.2752 74.0975 32.4311 72.7677 30.2666L72.7774 30.2763ZM38.7948 74.5575C38.6783 75.0234 38.4648 75.4602 38.1542 75.8291L26.6422 89.9036C26.021 90.6607 25.1086 91.0878 24.1379 91.0878C23.3808 91.0878 22.682 90.8354 22.0899 90.3598C20.7115 89.2338 20.5077 87.1857 21.6336 85.8074L32.5438 72.4609C32.6312 72.3541 32.6991 72.2183 32.7282 72.0824L36.2614 57.6779L40.7361 66.5982L38.7851 74.5478L38.7948 74.5575ZM47.191 60.7937L60.0424 86.4189C60.8384 88.0108 60.1977 89.9618 58.6059 90.7577C58.1497 90.9907 57.6643 91.0975 57.1596 91.0975C55.9269 91.0975 54.8203 90.418 54.267 89.3115L42.6095 66.0643L37.9018 56.6878L37.8727 56.6296L37.8533 56.6004C37.6689 56.251 37.533 55.8919 37.4359 55.5133C37.3194 55.0765 37.2612 54.63 37.2709 54.1738C37.2709 53.9797 37.2806 53.7855 37.3097 53.5914L37.3388 53.3487L39.3869 35.9061C39.4257 35.5664 39.2801 35.2363 39.0084 35.0325C38.8433 34.9063 38.6395 34.8481 38.4454 34.8481C38.3192 34.8481 38.1833 34.8772 38.0668 34.9257L33.068 37.1C32.8835 37.1776 32.7282 37.3135 32.6312 37.4883L26.4772 47.884C25.9919 48.709 25.0989 49.2137 24.1379 49.2137C23.6526 49.2137 23.177 49.0876 22.7596 48.8352C21.4686 48.0781 21.0416 46.4086 21.8084 45.1176L28.5641 33.7027C28.8553 33.2077 29.2921 32.8291 29.8163 32.5962L40.2411 28.0632H40.2605L42.7163 26.9372C42.7163 26.9372 42.7648 26.9178 42.7939 26.9081C43.716 26.4325 44.7546 26.2481 45.7932 26.3646C48.2975 26.6558 50.1806 28.6844 50.3941 31.1013V31.1208C50.3941 31.1887 50.4038 31.2664 50.4135 31.3343C50.4135 31.3634 50.4135 31.3925 50.4135 31.4217C50.4135 31.4799 50.4135 31.5381 50.4135 31.5964C50.4135 31.6449 50.4135 31.6934 50.4135 31.7517C50.4135 31.7905 50.4135 31.839 50.4135 31.8779C50.4135 31.9749 50.4038 32.072 50.3844 32.1691L48.6664 46.758L47.123 60.2695C47.1036 60.4539 47.1327 60.6384 47.2201 60.8034L47.191 60.7937ZM70.2634 35.0034L58.567 42.225C58.14 42.4871 57.6449 42.6327 57.1402 42.6327C56.4122 42.6327 55.7327 42.3512 55.2183 41.8368L51.5492 38.1677L52.1898 32.7126L52.2287 32.3729C52.2384 32.2661 52.2481 32.1594 52.2578 32.0429C52.2578 31.9943 52.2578 31.9555 52.2578 31.907C52.2578 31.8488 52.2578 31.7905 52.2578 31.7323C52.2578 31.674 52.2578 31.6061 52.2578 31.5478C52.2578 31.5187 52.2578 31.4799 52.2578 31.4508C52.2578 31.3731 52.2578 31.2955 52.2578 31.2178L56.9849 35.9449C57.2955 36.2555 57.7808 36.3138 58.1594 36.0808L67.3903 30.3831C68.6618 29.5968 70.3411 29.9948 71.1176 31.2664C71.9038 32.5379 71.5059 34.2074 70.2343 34.9937L70.2634 35.0034Z" fill="#5E4F94"/>
</g>
<g opacity="0.6">
<path d="M102.45 23.1323C106.895 23.1323 110.516 19.5117 110.516 15.0661C110.516 10.6205 106.895 7 102.45 7C98.0041 7 94.3836 10.6205 94.3836 15.0661C94.3836 19.5117 98.0041 23.1323 102.45 23.1323ZM102.45 8.86366C105.876 8.86366 108.662 11.6494 108.662 15.0758C108.662 18.5023 105.876 21.288 102.45 21.288C99.0233 21.288 96.2375 18.5023 96.2375 15.0758C96.2375 11.6494 99.0233 8.86366 102.45 8.86366Z" fill="#5E4F94"/>
<path d="M120.931 45.9329L113.874 42.2444L107.07 28.665C107.041 28.6164 107.021 28.5679 106.992 28.5097V28.4902C105.74 26.1315 103.265 24.5203 100.411 24.5203C98.4797 24.5203 96.6549 25.258 95.2669 26.5975C95.1407 26.6945 95.0145 26.8013 94.9077 26.9081L83.9296 37.6144C83.3569 38.1677 82.9493 38.8762 82.7357 39.6431L79.6782 50.7668C79.0181 53.1546 80.4353 55.6394 82.8231 56.2898C83.2113 56.3965 83.619 56.4548 84.017 56.4548C86.0359 56.4548 87.8122 55.0959 88.3461 53.1546L91.0833 43.2054L93.0052 41.332V54.2126L89.375 72.1891L78.5134 84.7202C77.6398 85.7297 77.2127 87.0207 77.3001 88.3505C77.3971 89.6803 78.0086 90.9033 79.0181 91.7769C79.9305 92.5631 81.0953 92.9999 82.2892 92.9999C83.7452 92.9999 85.1235 92.369 86.0748 91.2722L97.8003 77.7412C98.3633 77.0909 98.7515 76.295 98.9262 75.4505L100.13 69.4713L111.186 90.3306C112.059 91.971 113.748 92.9902 115.612 92.9902C116.427 92.9902 117.233 92.7864 117.951 92.4078C120.387 91.1168 121.319 88.0787 120.028 85.6424L107.827 62.6184V49.1458C108.021 49.2914 108.215 49.4175 108.439 49.5243L116.777 53.8826C117.417 54.2126 118.135 54.397 118.854 54.397C120.533 54.397 122.067 53.4749 122.843 51.9801C123.989 49.7864 123.134 47.0589 120.941 45.9135L120.931 45.9329ZM97.1014 75.1011C96.9946 75.6349 96.752 76.1299 96.3928 76.5376L84.6673 90.0685C84.0655 90.7577 83.2016 91.1557 82.2795 91.1557C81.5224 91.1557 80.7944 90.8839 80.2217 90.3889C79.5811 89.8356 79.2025 89.0688 79.1443 88.234C79.0861 87.3992 79.3578 86.5839 79.9014 85.9433L90.9183 73.2277C91.0251 73.1112 91.0931 72.9656 91.1222 72.8006L94.0827 58.1146L97.412 64.385L98.7418 66.899L97.0917 75.0913L97.1014 75.1011ZM118.388 86.5354C119.203 88.069 118.611 89.9812 117.077 90.7965C116.621 91.0392 116.126 91.1654 115.602 91.1654C114.428 91.1654 113.36 90.5247 112.816 89.4861L95.6745 57.144C95.6745 57.144 95.626 57.0469 95.5969 56.9789C95.5872 56.9595 95.5775 56.9304 95.5581 56.911V56.8916C95.5581 56.8916 95.4998 56.8042 95.4707 56.7557C95.461 56.7363 95.4513 56.7072 95.4319 56.6877C95.4222 56.6586 95.4028 56.6295 95.3931 56.6004C95.3736 56.5713 95.3639 56.5421 95.3542 56.513C95.3445 56.4936 95.3348 56.4742 95.3251 56.4451C95.3057 56.4063 95.296 56.3771 95.2766 56.3383L95.2572 56.2898C95.2572 56.2898 95.228 56.2121 95.2086 56.1733L95.1892 56.1345C95.1892 56.1345 95.1601 56.0471 95.1407 55.9986V55.9695C95.1407 55.9695 95.1019 55.8724 95.0824 55.8336V55.8141C95.063 55.7656 95.0436 55.7171 95.0339 55.6686V55.6491C95.0145 55.6006 95.0048 55.5424 94.9951 55.4938C94.9854 55.4259 94.966 55.3774 94.9563 55.3191C94.9465 55.2609 94.9368 55.2026 94.9271 55.1444C94.9271 55.0862 94.9077 55.0279 94.898 54.9697C94.898 54.9114 94.8786 54.8532 94.8786 54.795C94.8592 54.6202 94.8495 54.4552 94.8495 54.2805C94.8495 54.2805 94.8495 54.2126 94.8495 54.1737V39.1286C94.8495 38.7598 94.6262 38.42 94.2865 38.2744C94.17 38.2259 94.0438 38.2065 93.9274 38.2065C93.6944 38.2065 93.4614 38.2938 93.277 38.4686L89.5982 42.0503C89.4818 42.1668 89.3944 42.3124 89.3556 42.4677L86.5504 52.6498C86.2398 53.7952 85.1915 54.5911 84.0073 54.5911C83.7743 54.5911 83.5317 54.562 83.3084 54.4941C81.901 54.1058 81.0759 52.6498 81.4642 51.2424L84.5217 40.1187C84.6479 39.6625 84.8906 39.2548 85.2206 38.9248L96.1987 28.2185C96.2666 28.1505 96.3443 28.0826 96.4414 28.0146C96.4705 27.9952 96.4996 27.9661 96.5287 27.9467C97.577 26.9275 98.9553 26.3645 100.411 26.3645C102.586 26.3645 104.469 27.6167 105.381 29.4415C105.41 29.4997 105.439 29.558 105.468 29.6162C105.488 29.655 105.498 29.6841 105.517 29.723C105.546 29.7812 105.566 29.8394 105.585 29.8977C105.604 29.9365 105.614 29.9753 105.633 30.0142C105.653 30.0821 105.682 30.1501 105.701 30.2083C105.731 30.2859 105.75 30.3636 105.769 30.4413C105.779 30.4801 105.789 30.5189 105.798 30.5577C105.818 30.616 105.828 30.6742 105.837 30.7324C105.837 30.7713 105.857 30.8101 105.866 30.8489C105.876 30.9072 105.886 30.9654 105.896 31.0139C105.896 31.0625 105.905 31.1013 105.915 31.1498C105.915 31.1984 105.925 31.2566 105.934 31.3051C105.934 31.3634 105.944 31.4216 105.954 31.4799C105.954 31.5187 105.954 31.5672 105.954 31.606C105.954 31.7128 105.954 31.8099 105.954 31.9166V62.8417C105.954 62.997 105.993 63.1426 106.061 63.2785L118.378 86.5062L118.388 86.5354ZM121.193 51.1453C120.737 52.0189 119.834 52.5625 118.854 52.5625C118.427 52.5625 118.019 52.4654 117.631 52.2616L109.293 47.9033C108.798 47.6412 108.4 47.2433 108.157 46.7482L107.827 46.0979V34.3142L112.36 43.351C112.447 43.5257 112.583 43.6713 112.758 43.7586L120.077 47.583C120.698 47.913 121.164 48.4566 121.377 49.1361C121.591 49.8058 121.523 50.5241 121.203 51.1453H121.193Z" fill="#5E4F94"/>
</g>
<path d="M153.487 23.0577C157.91 23.0577 161.516 19.4615 161.516 15.0288C161.516 10.5962 157.92 7 153.487 7C149.054 7 145.458 10.5962 145.458 15.0288C145.458 19.4615 149.054 23.0577 153.487 23.0577ZM153.487 8.91346C156.862 8.91346 159.603 11.6538 159.603 15.0288C159.603 18.4038 156.862 21.1442 153.487 21.1442C150.112 21.1442 147.372 18.4038 147.372 15.0288C147.372 11.6538 150.112 8.91346 153.487 8.91346Z" fill="#5E4F94"/>
<path d="M181.651 41.4231C181.516 40.1923 180.91 39.0866 179.939 38.3173C178.977 37.5385 177.766 37.1923 176.535 37.3269H176.526L169.352 38.2308L158.651 27.3846C157.304 25.7885 155.429 24.7789 153.343 24.5481C152.429 24.4423 151.516 24.5 150.622 24.7019C150.506 24.7308 149.804 24.9231 149.41 25.0769L134.343 30.125C132.91 30.6058 131.795 31.7596 131.372 33.2116L128.122 44.2981C127.401 46.75 128.814 49.3269 131.266 50.0481C131.689 50.1731 132.131 50.2404 132.574 50.2404C134.612 50.2404 136.449 48.875 137.016 46.9039L139.583 38.1442L143.814 36.7212L142.16 51.5673C142.16 51.5673 142.131 51.6346 142.122 51.6731L131.91 86.3558C131.526 87.6827 131.67 89.0769 132.333 90.2789C132.997 91.4808 134.083 92.3654 135.41 92.7596C135.881 92.9039 136.381 92.9712 136.872 92.9712C139.141 92.9712 141.179 91.4519 141.824 89.2692L149.276 63.9423L157.045 71.9808L158.689 88.3558C158.958 91 161.16 93 163.814 93C163.987 93 164.16 93 164.333 92.9712C165.708 92.8366 166.939 92.1731 167.814 91.1058C168.689 90.0385 169.093 88.6923 168.958 87.3269L167.141 69.1731C167.026 68.0192 166.516 66.9327 165.718 66.0962L157.843 57.9616L159.276 44.75L159.651 41.3558L164.439 46.3654L164.468 46.3942C165.333 47.2404 166.487 47.7019 167.699 47.7019C167.872 47.7019 168.035 47.7019 168.208 47.6731H168.218L177.574 46.5289C178.804 46.3942 179.901 45.7885 180.679 44.8173C181.458 43.8558 181.804 42.6442 181.67 41.4135L181.651 41.4231ZM147.737 62.375L139.977 88.7404C139.574 90.1154 138.295 91.0769 136.862 91.0769C136.554 91.0769 136.247 91.0289 135.939 90.9423C135.102 90.7019 134.42 90.1442 134.006 89.3846C133.593 88.625 133.497 87.7404 133.747 86.9135L142.699 56.5C142.699 56.5 142.727 56.5769 142.747 56.6154C142.766 56.6539 142.785 56.6923 142.804 56.7308C142.824 56.7692 142.833 56.7981 142.852 56.8269C142.872 56.8654 142.891 56.9039 142.91 56.9423C142.929 56.9808 142.949 57.0096 142.968 57.0385C142.987 57.0769 143.006 57.1154 143.026 57.1539C143.045 57.1827 143.064 57.2212 143.083 57.25C143.102 57.2885 143.122 57.3269 143.151 57.3654C143.17 57.3942 143.189 57.4327 143.208 57.4616C143.227 57.5 143.256 57.5385 143.276 57.5673C143.295 57.5962 143.314 57.6346 143.333 57.6635C143.352 57.7019 143.381 57.7308 143.401 57.7692C143.42 57.7981 143.439 57.8366 143.468 57.8654C143.497 57.9039 143.516 57.9327 143.545 57.9712C143.564 58 143.593 58.0289 143.612 58.0673C143.641 58.1058 143.66 58.1346 143.689 58.1731C143.708 58.2019 143.737 58.2308 143.756 58.2596C143.785 58.2981 143.814 58.3269 143.833 58.3654C143.862 58.3942 143.881 58.4231 143.91 58.4519C143.939 58.4904 143.968 58.5192 143.997 58.5481C144.026 58.5769 144.045 58.6058 144.074 58.6346C144.102 58.6635 144.131 58.7019 144.16 58.7308C144.189 58.7596 144.208 58.7885 144.237 58.8173C144.266 58.8462 144.304 58.8846 144.333 58.9135C144.362 58.9423 144.381 58.9616 144.41 58.9904C144.439 59.0192 144.477 59.0577 144.516 59.0866C144.545 59.1154 144.564 59.1346 144.593 59.1635C144.631 59.2019 144.67 59.2308 144.708 59.2692C144.727 59.2885 144.756 59.3077 144.776 59.3366C144.833 59.3846 144.881 59.4327 144.939 59.4808L144.958 59.5L147.295 61.9135L147.737 62.375ZM156.141 58.9712L164.324 67.4327C164.833 67.9519 165.151 68.6442 165.218 69.3654L167.035 87.5192C167.122 88.3846 166.862 89.2308 166.314 89.9039C165.766 90.5769 164.987 90.9904 164.122 91.0769C164.016 91.0866 163.901 91.0962 163.795 91.0962C162.122 91.0962 160.737 89.8366 160.564 88.1731L158.891 71.4712C158.872 71.2596 158.776 71.0577 158.631 70.9039L148.497 60.4231L146.285 58.1346C146.285 58.1346 146.237 58.0866 146.208 58.0577C144.574 56.7116 143.737 54.6635 143.968 52.5673V52.5481L145.872 35.4519C145.91 35.125 145.776 34.8077 145.526 34.6058C145.352 34.4712 145.141 34.3942 144.929 34.3942C144.824 34.3942 144.727 34.4135 144.622 34.4423L138.497 36.5C138.199 36.5962 137.968 36.8366 137.881 37.1346L135.17 46.375C134.833 47.5289 133.756 48.3366 132.554 48.3366C132.295 48.3366 132.035 48.2981 131.785 48.2212C130.343 47.7981 129.516 46.2789 129.939 44.8462L133.189 33.7596C133.439 32.9039 134.093 32.2308 134.939 31.9423L150.026 26.8846C150.026 26.8846 150.064 26.875 150.083 26.8654C150.314 26.7692 150.852 26.6154 151.045 26.5577C151.727 26.4039 152.42 26.3654 153.112 26.4423C154.727 26.625 156.17 27.4039 157.208 28.6539C157.343 28.8173 157.468 28.9904 157.583 29.1635C157.641 29.25 157.689 29.3366 157.737 29.4135L157.756 29.4423C157.804 29.5192 157.843 29.5962 157.891 29.6731L157.92 29.7212C157.958 29.7885 157.997 29.8654 158.026 29.9327C158.035 29.9519 158.045 29.9808 158.054 30C158.083 30.0673 158.112 30.125 158.141 30.1923C158.151 30.2212 158.17 30.25 158.179 30.2885C158.199 30.3462 158.227 30.4039 158.247 30.4616C158.266 30.5 158.276 30.5385 158.295 30.5769C158.314 30.625 158.333 30.6827 158.343 30.7308C158.362 30.7789 158.372 30.8269 158.391 30.875C158.401 30.9231 158.42 30.9616 158.429 31.0096C158.439 31.0673 158.458 31.1154 158.468 31.1731C158.477 31.2116 158.487 31.25 158.497 31.2981C158.506 31.3558 158.526 31.4135 158.535 31.4712C158.535 31.5096 158.545 31.5481 158.554 31.5866C158.564 31.6539 158.574 31.7116 158.583 31.7789C158.583 31.8173 158.583 31.8462 158.593 31.8846C158.593 31.9519 158.612 32.0192 158.612 32.0769C158.612 32.1154 158.612 32.1539 158.612 32.1923C158.612 32.2596 158.612 32.3173 158.622 32.3846C158.622 32.4231 158.622 32.4712 158.622 32.5096C158.622 32.5673 158.622 32.6346 158.622 32.6923C158.622 32.75 158.622 32.7981 158.622 32.8558C158.622 32.9039 158.622 32.9519 158.622 33.0096C158.622 33.1058 158.602 33.2019 158.593 33.2981V33.3173L157.343 44.5673L155.862 58.2212C155.833 58.5 155.929 58.7885 156.122 58.9904L156.141 58.9712ZM179.17 43.6346C178.718 44.2019 178.064 44.5577 177.343 44.6346H177.333L167.977 45.7789C167.881 45.7885 167.785 45.7981 167.689 45.7981C166.977 45.7981 166.314 45.5289 165.804 45.0385L159.92 38.8846L160.516 33.5C160.535 33.3654 160.545 33.2404 160.554 33.1058C160.554 33.0673 160.554 33.0289 160.554 32.9904C160.554 32.8942 160.554 32.8077 160.564 32.7116C160.564 32.6731 160.564 32.625 160.564 32.5866C160.564 32.5 160.564 32.4135 160.564 32.3269C160.564 32.2885 160.564 32.2404 160.564 32.2019C160.564 32.1442 160.564 32.0769 160.564 32.0192L168.343 39.9039C168.554 40.1154 168.843 40.2212 169.141 40.1827L176.776 39.2308C177.497 39.1539 178.208 39.3558 178.766 39.8173C179.333 40.2692 179.689 40.9231 179.766 41.6442C179.843 42.3654 179.641 43.0769 179.179 43.6442L179.17 43.6346Z" fill="#5E4F94"/>
<path d="M10 62C10 62 63.3718 62 98.519 62C133.666 62 190 62 190 62" stroke="#FFFCF9" stroke-width="4"/>
<path d="M190.707 62.7071C191.098 62.3166 191.098 61.6834 190.707 61.2929L184.343 54.9289C183.953 54.5384 183.319 54.5384 182.929 54.9289C182.538 55.3195 182.538 55.9526 182.929 56.3431L188.586 62L182.929 67.6569C182.538 68.0474 182.538 68.6805 182.929 69.0711C183.319 69.4616 183.953 69.4616 184.343 69.0711L190.707 62.7071ZM10 63H12.0118V61H10V63ZM16.0354 63H20.059V61H16.0354V63ZM24.0826 63L28.1062 63V61L24.0826 61V63ZM32.1297 63H36.1533V61H32.1297V63ZM40.1769 63H44.2005V61H40.1769V63ZM48.2241 63H52.2477V61H48.2241V63ZM56.2713 63H60.2949V61H56.2713V63ZM64.3185 63H68.3421V61H64.3185V63ZM72.3656 63H76.3892V61H72.3656V63ZM80.4128 63L84.4364 63V61L80.4128 61V63ZM88.46 63H92.4836V61H88.46V63ZM96.5072 63H98.519V61H96.5072V63ZM98.519 63H100.598V61H98.519V63ZM104.756 63H108.915V61H104.756V63ZM113.073 63H117.231V61H113.073V63ZM121.389 63H125.547V61H121.389V63ZM129.706 63H133.864V61H129.706V63ZM138.022 63L142.18 63V61L138.022 61V63ZM146.339 63H150.497V61H146.339V63ZM154.655 63H158.813V61H154.655V63ZM162.972 63H167.13V61H162.972V63ZM171.288 63H175.446V61H171.288V63ZM179.604 63H183.763V61H179.604V63ZM187.921 63H190V61H187.921V63ZM190.707 62.7071C191.098 62.3166 191.098 61.6834 190.707 61.2929L184.343 54.9289C183.953 54.5384 183.319 54.5384 182.929 54.9289C182.538 55.3195 182.538 55.9526 182.929 56.3431L188.586 62L182.929 67.6569C182.538 68.0474 182.538 68.6805 182.929 69.0711C183.319 69.4616 183.953 69.4616 184.343 69.0711L190.707 62.7071ZM10 63H12.0118V61H10V63ZM16.0354 63H20.059V61H16.0354V63ZM24.0826 63L28.1062 63V61L24.0826 61V63ZM32.1297 63H36.1533V61H32.1297V63ZM40.1769 63H44.2005V61H40.1769V63ZM48.2241 63H52.2477V61H48.2241V63ZM56.2713 63H60.2949V61H56.2713V63ZM64.3185 63H68.3421V61H64.3185V63ZM72.3656 63H76.3892V61H72.3656V63ZM80.4128 63L84.4364 63V61L80.4128 61V63ZM88.46 63H92.4836V61H88.46V63ZM96.5072 63H98.519V61H96.5072V63ZM98.519 63H100.598V61H98.519V63ZM104.756 63H108.915V61H104.756V63ZM113.073 63H117.231V61H113.073V63ZM121.389 63H125.547V61H121.389V63ZM129.706 63H133.864V61H129.706V63ZM138.022 63L142.18 63V61L138.022 61V63ZM146.339 63H150.497V61H146.339V63ZM154.655 63H158.813V61H154.655V63ZM162.972 63H167.13V61H162.972V63ZM171.288 63H175.446V61H171.288V63ZM179.604 63H183.763V61H179.604V63ZM187.921 63H190V61H187.921V63Z" fill="#AF99C7"/>
</g>
<defs>
<clipPath id="clip0_522_1286">
<rect width="200" height="100" fill="white"/>
</clipPath>
</defs>
</svg>
