<svg width="200" height="100" viewBox="0 0 200 100" fill="none" xmlns="http://www.w3.org/2000/svg">
<g clip-path="url(#clip0_517_1105)">
<rect width="200" height="100" fill="#FFFCF9"/>
<rect x="1" y="1" width="198" height="98" rx="9" stroke="#5E4F94" stroke-width="2"/>
<mask id="mask0_517_1105" style="mask-type:alpha" maskUnits="userSpaceOnUse" x="55" y="5" width="90" height="90">
<rect x="55" y="5" width="90" height="90" fill="#D9D9D9"/>
</mask>
<g mask="url(#mask0_517_1105)">
<path d="M116.082 23C116.082 32.4725 108.654 39.9 99.1818 39.9C89.7093 39.9 82.2818 32.4725 82.2818 23C82.2818 13.5275 89.7093 6.1 99.1818 6.1C108.654 6.1 116.082 13.5275 116.082 23ZM111.082 23C111.082 16.2725 105.909 11.1 99.1818 11.1C92.4543 11.1 87.2818 16.2725 87.2818 23C87.2818 29.7275 92.4543 34.9 99.1818 34.9C105.909 34.9 111.082 29.7275 111.082 23Z" fill="#5E4F94" stroke="#FFFCF9" stroke-width="2.2"/>
<path d="M143.805 66.787L143.812 66.8539L143.828 66.9192C144.372 69.0926 143.573 71.6697 142.077 73.777L126.031 93.017C126.03 93.0187 126.028 93.0205 126.027 93.0222C124.269 95.0689 121.966 96.2027 119.394 96.2027H118.394V97.2027V99.452V99.6045L118.44 99.75L130.981 139.916L130.981 139.917C132.422 144.525 129.829 149.43 125.206 150.874L125.197 150.877L125.188 150.88C124.401 151.142 123.597 151.15 122.61 151.15C118.532 151.15 115.393 148.851 114.24 145.108L114.239 145.106L101.376 103.654L101.158 102.951H100.421H99.778H99.0412L98.8229 103.654L85.9605 145.103C85.9604 145.104 85.9603 145.104 85.9602 145.104C84.5155 149.722 79.6067 152.315 74.9931 150.874C70.3703 149.43 67.7772 144.526 69.2175 139.918C69.2177 139.917 69.2178 139.917 69.218 139.917L81.7589 100.074L81.805 99.927V99.7733V97.524V96.524H80.805C78.2327 96.524 75.9301 95.3902 74.1722 93.3435L58.098 74.0692L58.098 74.0691L58.089 74.0586C56.3784 72.0644 55.7877 69.4859 56.0655 67.1686C56.6559 64.5664 58.0985 62.5445 60.1374 61.0814L85.8368 45.0316L85.9334 44.9713L85.9842 44.9205C85.9927 44.9141 86.0057 44.9046 86.0241 44.8915C86.0798 44.8519 86.1628 44.7956 86.2736 44.7241C86.4942 44.5816 86.8086 44.3891 87.2042 44.1635C87.9953 43.7125 89.0981 43.137 90.4071 42.5708C93.0404 41.4319 96.434 40.3635 99.778 40.3635H100.1C105.369 40.3635 110.294 41.9106 114.283 44.9763L114.322 45.0069L114.365 45.0334L139.767 60.7767C139.767 60.7769 139.767 60.7771 139.768 60.7773C142.126 62.2503 143.522 64.2488 143.805 66.787ZM127.691 71.1103L127.664 71.1375L127.639 71.1666L116.062 84.6624L115.982 84.7559L115.927 84.866L115.913 84.8952C115.589 85.5412 115.178 86.362 115.178 87.5628C115.178 88.2445 115.398 88.979 115.757 89.5933C116.101 90.1826 116.645 90.7814 117.399 91.0573C118.195 91.4409 119.165 91.6281 120.102 91.5296C121.063 91.4285 122.062 91.0141 122.75 90.1133L138.788 70.8826C139.274 70.3791 139.491 69.7796 139.592 69.2253C139.689 68.6936 139.689 68.1345 139.689 67.6794V67.6404V67.478L139.637 67.324C139.24 66.1343 138.452 65.3471 137.833 64.7291L137.788 64.6838L137.707 64.6033L137.61 64.543L111.981 48.5368L111.74 48.296L111.653 48.209L111.547 48.1457C108.215 46.1481 104.192 44.7966 100.129 44.7901C97.1754 44.624 94.2038 45.5743 92.0241 46.5194C90.9194 46.9985 89.9926 47.4875 89.3406 47.8576C89.0142 48.0428 88.7556 48.1989 88.5766 48.3099C88.4872 48.3654 88.4175 48.4097 88.3693 48.4408C88.3451 48.4563 88.3264 48.4685 88.3131 48.4772L88.3042 48.4831L62.5886 64.543L62.5762 64.5507L62.5639 64.5589C61.5674 65.2227 60.5105 66.127 60.5105 67.6404V67.6637C60.5105 68.1294 60.5104 68.6495 60.5548 69.1369C60.5993 69.6258 60.6946 70.1727 60.9378 70.6586L60.9897 70.7624L61.0641 70.8515L77.1428 90.1313L77.1506 90.1405L77.1585 90.1496C77.8162 90.9006 78.5111 91.3674 79.2316 91.5834C79.9562 91.8006 80.6215 91.7385 81.1725 91.5733C81.7111 91.4119 82.1473 91.15 82.4373 90.9606C82.5484 90.8879 82.5983 90.8537 82.6389 90.8257C82.6551 90.8146 82.6698 90.8045 82.6864 90.7933L82.8598 90.7067C83.8936 90.1902 84.3257 89.2022 84.3732 88.0941C84.5703 87.5412 84.5218 86.959 84.3756 86.4719C84.2096 85.9192 83.8917 85.389 83.4757 84.9622L72.2473 71.4986L72.2182 71.4637L72.1862 71.4317C72.0541 71.2997 71.9579 71.1113 71.9004 70.7952C71.8464 70.4985 71.8377 70.162 71.8364 69.7428C72.0754 69.1355 72.4969 68.6821 73.0728 68.1046L82.6152 62.0658C83.8257 61.3456 85.1024 61.6373 85.736 62.6926L85.7994 62.7982L85.8865 62.8852C86.0529 63.0514 86.102 63.1092 86.1412 63.1877C86.1758 63.2566 86.2365 63.416 86.2365 63.7845V80.1723V80.5058L86.4367 80.7725L87.4015 82.0579L87.4168 82.0784L87.4333 82.098C88.8974 83.8536 89.7387 86.1518 89.4611 88.3942C89.1636 90.463 88.2866 92.4563 86.5966 93.8636L86.2365 94.1634V94.632V100.095V100.097V100.098V100.1V100.102V100.104V100.106V100.108V100.11V100.112V100.113V100.115V100.117V100.119V100.121V100.123V100.125V100.127V100.129V100.13V100.132V100.134V100.136V100.138V100.14V100.142V100.144V100.145V100.147V100.149V100.151V100.153V100.155V100.157V100.159V100.161V100.162V100.164V100.166V100.168V100.17V100.172V100.174V100.176V100.177V100.179V100.181V100.183V100.185V100.187V100.189V100.191V100.193V100.194V100.196V100.198V100.2V100.202V100.204V100.206V100.208V100.209V100.211V100.213V100.215V100.217V100.219V100.221V100.223V100.225V100.226V100.228V100.23V100.232V100.234V100.236V100.238V100.24V100.241V100.243V100.245V100.247V100.249V100.251V100.253V100.255V100.257V100.258V100.26V100.262V100.264V100.266V100.268V100.27V100.272V100.273V100.275V100.277V100.279V100.281V100.283V100.285V100.287V100.289V100.29V100.292V100.294V100.296V100.298V100.3V100.302V100.304V100.305V100.307V100.309V100.311V100.313V100.315V100.317V100.319V100.321V100.322V100.324V100.326V100.328V100.33V100.332V100.334V100.336V100.337V100.339V100.341V100.343V100.345V100.347V100.349V100.351V100.353V100.354V100.356V100.358V100.36V100.362V100.364V100.366V100.368V100.37V100.371V100.373V100.375V100.377V100.379V100.381V100.383V100.385V100.386V100.388V100.39V100.392V100.394V100.396V100.398V100.4V100.402V100.403V100.405V100.407V100.409V100.411V100.413V100.415V100.417V100.418V100.42V100.422V100.424V100.426V100.428V100.43V100.432V100.434V100.435V100.437V100.439V100.441V100.443V100.445V100.447V100.449V100.45V100.452V100.454V100.456V100.458V100.46V100.462V100.464V100.466V100.467V100.469V100.471V100.473V100.475V100.477V100.479V100.481V100.482V100.484V100.486V100.488V100.49V100.492V100.494V100.496V100.498V100.499V100.501V100.503V100.505V100.507V100.509V100.511V100.513V100.514V100.516V100.518V100.52V100.522V100.524V100.526V100.528V100.53V100.531V100.533V100.535V100.537V100.539V100.541V100.543V100.545V100.546V100.548V100.55V100.552V100.554V100.556V100.558V100.56V100.562V100.563V100.565V100.567V100.569V100.571V100.573V100.575V100.577V100.578V100.58V100.582V100.584V100.586V100.588V100.59V100.592V100.594V100.595V100.597V100.599V100.601V100.603V100.605V100.607V100.609V100.611V100.612V100.614V100.616V100.618V100.62V100.622V100.624V100.626V100.627V100.629V100.631V100.633V100.635V100.637V100.639V100.641V100.643V100.644V100.646V100.648V100.65V100.652V100.654V100.656V100.658V100.659V100.661V100.663V100.665V100.667V100.669V100.671V100.673V100.675V100.676V100.678V100.68V100.682V100.684V100.686V100.688V100.69V100.691V100.693V100.695V100.697V100.699V100.701V100.703V100.705V100.707V100.708V100.71V100.712V100.714V100.716V100.718V100.72V100.722V100.723V100.725V100.727V100.729V100.731V100.733V100.735V100.737V100.739V100.74V100.742V100.744V100.746V100.748V100.75V100.752V100.754V100.755V100.757V100.759V100.761V100.763V100.765V100.767V100.769V100.771V100.772V100.774V100.776V100.778V100.78V100.782V100.784V100.786V100.787V100.789V100.791V100.793V100.795V100.797V100.799V100.801V100.803V100.804V100.806V100.808V100.81V100.812V100.814V100.816V100.818V100.819V100.821V100.823V100.825V100.827V100.829V100.831V100.833V100.835V100.836V100.838V100.84V100.842V100.844V100.846V100.848V100.85V100.852V100.853V100.855V100.857V100.859V100.861V100.863V100.865V100.867V100.868V100.87V100.872V100.874V100.876V100.878V100.88V100.882V100.884V100.885V100.887V100.889V100.891V100.893V100.895V100.897V100.899V100.9V100.902V100.902L73.4211 140.92L73.399 140.989L73.3871 141.06C72.9897 143.443 74.2007 145.51 76.2534 146.331L76.3386 146.365L76.4286 146.383C78.4881 146.794 80.9033 145.598 81.7334 143.524L81.7484 143.487L81.7604 143.448L95.2407 99.8309C95.7718 98.8262 96.7356 98.2027 97.5269 98.2027H102.994C104.217 98.2027 105.046 98.9229 105.239 99.6947L105.246 99.7212L105.254 99.7472L118.76 143.448L118.764 143.459L118.767 143.469C119.151 144.62 119.853 145.569 120.838 146.116C121.835 146.669 123.014 146.75 124.212 146.351L124.24 146.341L124.267 146.331C126.31 145.514 127.614 143.064 126.768 140.888L113.963 100.902V100.902V100.9V100.899V100.897V100.895V100.893V100.891V100.889V100.887V100.885V100.884V100.882V100.88V100.878V100.876V100.874V100.872V100.87V100.868V100.867V100.865V100.863V100.861V100.859V100.857V100.855V100.853V100.852V100.85V100.848V100.846V100.844V100.842V100.84V100.838V100.836V100.835V100.833V100.831V100.829V100.827V100.825V100.823V100.821V100.819V100.818V100.816V100.814V100.812V100.81V100.808V100.806V100.804V100.803V100.801V100.799V100.797V100.795V100.793V100.791V100.789V100.787V100.786V100.784V100.782V100.78V100.778V100.776V100.774V100.772V100.771V100.769V100.767V100.765V100.763V100.761V100.759V100.757V100.755V100.754V100.752V100.75V100.748V100.746V100.744V100.742V100.74V100.739V100.737V100.735V100.733V100.731V100.729V100.727V100.725V100.723V100.722V100.72V100.718V100.716V100.714V100.712V100.71V100.708V100.707V100.705V100.703V100.701V100.699V100.697V100.695V100.693V100.691V100.69V100.688V100.686V100.684V100.682V100.68V100.678V100.676V100.675V100.673V100.671V100.669V100.667V100.665V100.663V100.661V100.659V100.658V100.656V100.654V100.652V100.65V100.648V100.646V100.644V100.643V100.641V100.639V100.637V100.635V100.633V100.631V100.629V100.627V100.626V100.624V100.622V100.62V100.618V100.616V100.614V100.612V100.611V100.609V100.607V100.605V100.603V100.601V100.599V100.597V100.595V100.594V100.592V100.59V100.588V100.586V100.584V100.582V100.58V100.578V100.577V100.575V100.573V100.571V100.569V100.567V100.565V100.563V100.562V100.56V100.558V100.556V100.554V100.552V100.55V100.548V100.546V100.545V100.543V100.541V100.539V100.537V100.535V100.533V100.531V100.53V100.528V100.526V100.524V100.522V100.52V100.518V100.516V100.514V100.513V100.511V100.509V100.507V100.505V100.503V100.501V100.499V100.498V100.496V100.494V100.492V100.49V100.488V100.486V100.484V100.482V100.481V100.479V100.477V100.475V100.473V100.471V100.469V100.467V100.466V100.464V100.462V100.46V100.458V100.456V100.454V100.452V100.45V100.449V100.447V100.445V100.443V100.441V100.439V100.437V100.435V100.434V100.432V100.43V100.428V100.426V100.424V100.422V100.42V100.418V100.417V100.415V100.413V100.411V100.409V100.407V100.405V100.403V100.402V100.4V100.398V100.396V100.394V100.392V100.39V100.388V100.386V100.385V100.383V100.381V100.379V100.377V100.375V100.373V100.371V100.37V100.368V100.366V100.364V100.362V100.36V100.358V100.356V100.354V100.353V100.351V100.349V100.347V100.345V100.343V100.341V100.339V100.337V100.336V100.334V100.332V100.33V100.328V100.326V100.324V100.322V100.321V100.319V100.317V100.315V100.313V100.311V100.309V100.307V100.305V100.304V100.302V100.3V100.298V100.296V100.294V100.292V100.29V100.289V100.287V100.285V100.283V100.281V100.279V100.277V100.275V100.273V100.272V100.27V100.268V100.266V100.264V100.262V100.26V100.258V100.257V100.255V100.253V100.251V100.249V100.247V100.245V100.243V100.241V100.24V100.238V100.236V100.234V100.232V100.23V100.228V100.226V100.225V100.223V100.221V100.219V100.217V100.215V100.213V100.211V100.209V100.208V100.206V100.204V100.202V100.2V100.198V100.196V100.194V100.193V100.191V100.189V100.187V100.185V100.183V100.181V100.179V100.177V100.176V100.174V100.172V100.17V100.168V100.166V100.164V100.162V100.161V100.159V100.157V100.155V100.153V100.151V100.149V100.147V100.145V100.144V100.142V100.14V100.138V100.136V100.134V100.132V100.13V100.129V100.127V100.125V100.123V100.121V100.119V100.117V100.115V100.113V100.112V100.11V100.108V100.106V100.104V100.102V100.1V100.098V100.097V100.095V94.632V94.0966L113.517 93.7998C111.928 92.7414 111.042 90.8282 110.739 88.4027C110.458 86.1576 111.3 83.8559 112.766 82.098L112.782 82.0784L112.798 82.0579L113.762 80.7725L113.963 80.5058V80.1723V63.7845C113.963 63.4193 114.022 63.1597 114.117 62.9457C114.215 62.7275 114.372 62.5049 114.634 62.2426C115.124 61.753 115.623 61.5545 116.073 61.5295C116.53 61.5042 117.026 61.6526 117.508 62.0141L117.543 62.0405L117.581 62.0637L126.892 67.8388C127.814 68.4551 128.041 68.8345 128.041 69.2471V69.4095L128.093 69.5635C128.278 70.1181 128.106 70.6962 127.691 71.1103ZM118.394 72.4604V75.2208L120.162 73.1008L121.77 71.1729L122.518 70.2755L121.516 69.6747L119.908 68.7107L118.394 67.8029V69.5684V72.4604ZM81.805 69.5684V67.8029L80.2908 68.7107L78.6829 69.6747L77.6808 70.2755L78.4292 71.1729L80.037 73.1008L81.805 75.2208V72.4604V69.5684Z" fill="#5E4F94" stroke="#FFFCF9" stroke-width="2"/>
<path d="M71.3636 21.3636C71.3636 21.3636 88.3181 29.5455 99.1818 29.5455C110.045 29.5455 127 21.3636 127 21.3636" stroke="#FFFCF9" stroke-width="4"/>
<path d="M71.0341 20.4195C70.5126 20.6015 70.2375 21.1717 70.4194 21.6932L73.3851 30.1905C73.567 30.712 74.1373 30.9871 74.6587 30.8052C75.1802 30.6232 75.4553 30.0529 75.2734 29.5315L72.6373 21.9783L80.1905 19.3422C80.7119 19.1602 80.9871 18.59 80.8051 18.0685C80.6231 17.5471 80.0529 17.2719 79.5314 17.4539L71.0341 20.4195ZM127.944 21.6932C128.126 21.1717 127.851 20.6015 127.329 20.4195L118.832 17.4539C118.311 17.2719 117.74 17.5471 117.558 18.0685C117.376 18.59 117.652 19.1602 118.173 19.3422L125.726 21.9783L123.09 29.5315C122.908 30.0529 123.183 30.6232 123.705 30.8052C124.226 30.9871 124.797 30.712 124.978 30.1905L127.944 21.6932ZM71.3636 21.3636C70.929 22.2643 70.9291 22.2643 70.9294 22.2645C70.9296 22.2645 70.9299 22.2647 70.9302 22.2649C70.9309 22.2652 70.9318 22.2656 70.933 22.2662C70.9353 22.2673 70.9387 22.2689 70.9431 22.2711C70.9519 22.2753 70.9647 22.2814 70.9816 22.2895C71.0152 22.3055 71.0647 22.3291 71.1294 22.3597C71.2589 22.4208 71.449 22.51 71.6943 22.6232C72.1848 22.8496 72.896 23.1721 73.7828 23.5587C75.5556 24.3317 78.0337 25.3625 80.8555 26.3938C86.4624 28.443 93.5601 30.5455 99.1818 30.5455V28.5455C93.9397 28.5455 87.1283 26.557 81.5421 24.5153C78.7673 23.5012 76.3278 22.4865 74.5821 21.7254C73.7097 21.345 73.0114 21.0283 72.5323 20.8072C72.2928 20.6967 72.1081 20.6101 71.9838 20.5514C71.9217 20.522 71.8747 20.4997 71.8436 20.4848C71.828 20.4773 71.8163 20.4717 71.8087 20.4681C71.805 20.4663 71.8022 20.4649 71.8004 20.4641C71.7995 20.4637 71.7989 20.4634 71.7985 20.4632C71.7983 20.4631 71.7983 20.4631 71.7982 20.463C71.7982 20.463 71.7982 20.463 71.3636 21.3636ZM99.1818 30.5455C104.803 30.5455 111.901 28.443 117.508 26.3938C120.33 25.3625 122.808 24.3317 124.581 23.5587C125.467 23.1721 126.179 22.8496 126.669 22.6232C126.914 22.51 127.105 22.4208 127.234 22.3597C127.299 22.3291 127.348 22.3055 127.382 22.2895C127.399 22.2814 127.412 22.2753 127.42 22.2711C127.425 22.2689 127.428 22.2673 127.431 22.2662C127.432 22.2656 127.433 22.2652 127.433 22.2649C127.434 22.2647 127.434 22.2645 127.434 22.2645C127.434 22.2643 127.435 22.2643 127 21.3636C126.565 20.463 126.565 20.463 126.565 20.463C126.565 20.4631 126.565 20.4631 126.565 20.4632C126.565 20.4634 126.564 20.4637 126.563 20.4641C126.561 20.4649 126.559 20.4663 126.555 20.4681C126.547 20.4717 126.536 20.4773 126.52 20.4848C126.489 20.4997 126.442 20.522 126.38 20.5514C126.255 20.6101 126.071 20.6967 125.831 20.8072C125.352 21.0283 124.654 21.345 123.781 21.7254C122.036 22.4865 119.596 23.5012 116.821 24.5153C111.235 26.557 104.424 28.5455 99.1818 28.5455V30.5455Z" fill="#AF99C7"/>
</g>
</g>
<defs>
<clipPath id="clip0_517_1105">
<rect width="200" height="100" fill="white"/>
</clipPath>
</defs>
</svg>
