<svg width="200" height="100" viewBox="0 0 200 100" fill="none" xmlns="http://www.w3.org/2000/svg">
<g clip-path="url(#clip0_522_1267)">
<rect width="200" height="100" fill="#FFFCF9"/>
<rect x="1" y="1" width="198" height="98" rx="9" stroke="#5E4F94" stroke-width="2"/>
<path d="M96.4644 8.57511C92.9997 8.57511 90.191 11.3838 90.191 14.8487C90.191 18.3136 92.9997 21.1223 96.4644 21.1223C99.9291 21.1223 102.738 18.3136 102.738 14.8487C102.738 11.3838 99.9291 8.57511 96.4644 8.57511ZM88.6159 14.8487C88.6159 10.514 92.1295 7 96.4644 7C100.799 7 104.313 10.514 104.313 14.8487C104.313 19.1834 100.799 22.6974 96.4644 22.6974C92.1295 22.6972 88.6159 19.1832 88.6159 14.8487Z" fill="#B2AAD1"/>
<path d="M86.4781 41.372V45.5994V59.4218V87.6176C86.4781 89.651 88.1263 91.2992 90.1599 91.2992C92.1934 91.2992 93.8417 89.651 93.8417 87.6176V60.7084C93.8417 59.8821 94.3936 59.1966 95.1432 58.9795C96.0113 58.7032 96.8574 59.1423 97.2516 59.7987L114.464 89.5895C115.469 91.3443 117.714 91.9475 119.48 90.9218C121.235 89.917 121.842 87.6738 120.816 85.9073L102.738 54.6239V33.3212C102.738 32.6179 103.025 31.9534 103.529 31.4716C104.011 30.9663 104.676 30.68 105.379 30.68H126.664C127.966 30.68 129.022 29.624 129.022 28.3216C129.022 27.0191 127.966 25.9632 126.664 25.9632H99.2764H92.2073C91.4625 26.026 90.7216 26.2291 90.0187 26.5688C89.3095 26.9235 88.6566 27.4173 88.1312 27.9821L69.363 46.7137C68.4351 47.6417 68.4358 49.1456 69.3636 50.0734C70.2917 51.0014 71.7959 51.0014 72.724 50.0734L82.9069 39.8906C83.5209 39.2766 84.459 39.2005 85.1408 39.4272C85.8404 39.7383 86.4781 40.4779 86.4781 41.372ZM84.903 45.5994V41.372C84.903 41.1719 84.772 40.9828 84.5722 40.8939C84.3721 40.8274 84.1539 40.871 84.0204 41.0043L73.8376 51.1871C72.2945 52.7302 69.7929 52.7302 68.2499 51.1871C66.7068 49.6443 66.7068 47.1427 68.2499 45.5996L86.9982 26.888C87.6542 26.1832 88.4394 25.5975 89.3142 25.1601C90.2132 24.7228 91.1727 24.461 92.1447 24.3881H99.2764H126.664C128.836 24.3881 130.597 26.1491 130.597 28.3216C130.597 30.494 128.836 32.2551 126.664 32.2551H105.379C105.097 32.2551 104.832 32.374 104.644 32.5859C104.432 32.7743 104.313 33.0387 104.313 33.3212V54.2016L122.179 85.1179C123.641 87.6354 122.785 90.8449 120.267 92.2865C117.75 93.7482 114.54 92.8923 113.099 90.3748L95.8946 60.5982C95.8294 60.4896 95.7089 60.4444 95.6005 60.4878C95.4922 60.5092 95.4168 60.5998 95.4168 60.7082V87.6176C95.4168 90.5208 93.0632 92.8744 90.1599 92.8744C87.2566 92.8744 84.903 90.5208 84.903 87.6176V59.4218V45.5994Z" fill="#B2AAD1"/>
<path d="M96.3718 8.76029C92.9071 8.76029 90.0984 11.569 90.0984 15.0337C90.0984 18.4986 92.9071 21.3073 96.3718 21.3073C99.8367 21.3073 102.645 18.4986 102.645 15.0337C102.645 11.569 99.8367 8.76029 96.3718 8.76029ZM88.5233 15.0339C88.5233 10.6992 92.0371 7.18518 96.3718 7.18518C100.707 7.18518 104.221 10.6992 104.221 15.0339C104.221 19.3686 100.707 22.8826 96.3718 22.8826C92.0371 22.8826 88.5233 19.3686 88.5233 15.0339Z" fill="#5E4F94"/>
<path d="M99.2207 26.1484H92.1151C91.3663 26.2121 90.6152 26.4273 89.9393 26.7653C89.2333 27.0898 88.5585 27.5894 88.0473 28.1574L69.2705 46.8991C68.3425 47.827 68.3433 49.3308 69.271 50.2586C70.1992 51.1865 71.7033 51.1865 72.6315 50.2586L82.8141 40.0761C83.3742 39.5151 84.2949 39.2443 85.1518 39.6548C85.8375 39.9735 86.3855 40.6775 86.3855 41.5572V46.078L86.4224 87.6181C86.4224 89.662 88.0645 91.3009 90.0673 91.3009C92.1008 91.3009 93.7491 89.6524 93.7491 87.6189V60.9673C93.7491 59.9619 94.2288 59.0239 95.0292 58.4292C95.8443 57.8059 96.8986 57.6489 97.8508 57.956L108.968 61.4166C109.794 61.6918 110.492 62.2975 110.865 63.0901C111.234 63.8733 111.27 64.7791 110.941 65.5928L107.373 74.5679C106.604 76.4622 107.514 78.6041 109.398 79.3551C111.291 80.109 113.436 79.1858 114.19 77.2938L120.919 60.4533C121.201 59.7561 121.184 58.9947 120.892 58.3503C120.567 57.6861 119.977 57.1793 119.263 56.9561L104.97 52.4736C104.349 52.2827 103.762 51.8439 103.36 51.3521C103.003 50.817 102.757 50.1212 102.755 49.4683L102.682 33.5101C102.682 32.8403 102.962 32.1537 103.405 31.6546C103.909 31.151 104.614 30.8653 105.286 30.8653H126.571C127.874 30.8653 128.929 29.8094 128.929 28.5069C128.929 27.2045 127.874 26.1485 126.571 26.1485L99.2207 26.1484ZM92.0523 24.5732H99.2207H126.571C128.744 24.5732 130.504 26.3343 130.504 28.5068C130.504 30.6792 128.743 32.4403 126.571 32.4403H105.286C105.004 32.4403 104.739 32.546 104.551 32.7344C104.363 32.9463 104.257 33.2241 104.257 33.5064L104.331 49.4608C104.331 49.7954 104.434 50.1299 104.625 50.4166C104.84 50.6796 105.123 50.8724 105.433 50.968L119.734 55.4531C120.859 55.8046 121.791 56.6035 122.307 57.6587C122.799 58.7139 122.826 59.9385 122.38 61.0408L115.653 77.8776C114.577 80.5778 111.516 81.8943 108.815 80.8184C106.115 79.7421 104.815 76.6809 105.911 73.9808L109.477 65.011C109.641 64.6124 109.628 64.1593 109.44 63.7611C109.253 63.3625 108.907 63.056 108.485 62.9154L97.3827 59.4599C96.8978 59.2982 96.3785 59.3803 95.9858 59.6805C95.5702 59.9808 95.3242 60.459 95.3242 60.9673V87.6191C95.3242 90.5226 92.9706 92.8762 90.0673 92.8762C87.1844 92.8762 84.8473 90.5226 84.8473 87.6191L84.8104 46.0789V41.5573C84.8104 41.3573 84.6795 41.1682 84.4796 41.0795C84.3018 40.9906 84.0836 41.0341 83.928 41.1897L73.745 51.3725C72.2019 52.9154 69.7004 52.9154 68.1573 51.3725C66.6142 49.8296 66.6142 47.3279 68.1573 45.7848L86.9056 27.0732C87.5617 26.3439 88.3594 25.7583 89.2583 25.3452C90.1334 24.9079 91.0803 24.6462 92.0523 24.5732Z" fill="#5E4F94"/>
<path d="M130.2 91C130.2 91.4418 130.558 91.8 131 91.8C131.442 91.8 131.8 91.4418 131.8 91H130.2ZM131.8 91V76.2468H130.2V91H131.8ZM131.8 76.2468V61H130.2V76.2468H131.8Z" fill="#AF99C7"/>
<path d="M138.434 91.5657C138.747 91.8781 139.253 91.8781 139.566 91.5657L144.657 86.4745C144.969 86.1621 144.969 85.6556 144.657 85.3431C144.344 85.0307 143.838 85.0307 143.525 85.3431L139 89.8686L134.475 85.3431C134.162 85.0307 133.656 85.0307 133.343 85.3431C133.031 85.6556 133.031 86.1621 133.343 86.4745L138.434 91.5657ZM139.8 91V76.2468H138.2V91H139.8ZM139.8 76.2468V61H138.2V76.2468H139.8Z" fill="#AF99C7"/>
<path d="M131 61C131 61 131 57 135 57C139 57 139 61 139 61" stroke="#AF99C7" stroke-width="1.6"/>
</g>
<defs>
<clipPath id="clip0_522_1267">
<rect width="200" height="100" fill="white"/>
</clipPath>
</defs>
</svg>
