<svg width="200" height="100" viewBox="0 0 200 100" fill="none" xmlns="http://www.w3.org/2000/svg">
<g clip-path="url(#clip0_520_1138)">
<rect width="200" height="100" fill="#FFFCF9"/>
<rect x="1" y="1" width="198" height="98" rx="9" stroke="#5E4F94" stroke-width="2"/>
<path d="M89.2225 8.57536C85.7435 8.57536 82.9296 11.388 82.9296 14.8497C82.9296 18.3117 85.7435 21.1243 89.2225 21.1243C92.7013 21.1243 95.5154 18.3117 95.5154 14.8497C95.5154 11.388 92.7015 8.57536 89.2225 8.57536ZM81.3544 14.8499C81.3544 10.5145 84.8769 7 89.2225 7C93.5679 7 97.0908 10.5145 97.0908 14.8499C97.0908 19.1853 93.5679 22.6998 89.2225 22.6998C84.8769 22.6996 81.3544 19.1853 81.3544 14.8499Z" fill="#B2AAD1"/>
<path d="M63.5991 41.493L77.1956 33.2997C78.0003 32.8025 79.0192 32.7975 79.8365 33.2332C80.6764 33.7135 81.1649 34.6181 81.1649 35.5312V45.6054V59.3931V87.5935C81.1649 89.6271 82.8136 91.2759 84.8473 91.2759C86.8809 91.2759 88.5296 89.6271 88.5296 87.5935V60.7167C88.5296 60.0238 88.9902 59.113 90.005 58.9101C90.4953 58.8286 91.4777 58.9138 91.9619 59.8078L109.149 89.5921C110.176 91.3453 112.426 91.9409 114.168 90.9376C115.948 89.9046 116.544 87.6515 115.544 85.9179C115.544 85.9179 97.6302 54.8769 97.4638 54.0253V38.1419C97.4638 37.2532 98.0438 36.3565 99.0462 36.1303C99.8641 35.9306 100.856 36.2153 101.36 37.0974L108.123 48.8222C108.782 49.9582 110.243 50.3414 111.38 49.6816C112.502 49.0421 112.897 47.607 112.236 46.4692L101.275 27.5271C101.006 27.0525 100.585 26.6396 100.11 26.3706C99.6681 26.0961 99.1186 25.9297 98.5612 25.9297H81.0969C80.8059 25.9297 80.5226 25.9707 80.2548 26.0494C79.9678 26.1339 79.6968 26.2526 79.4484 26.4012L60.7564 37.6969C59.6444 38.3375 59.2463 39.7652 59.8831 40.8784C60.5171 41.9667 61.9396 42.3528 63.0668 41.7035L63.432 41.493H63.5991ZM79.5894 59.3931V45.6054V35.5312C79.5894 35.1455 79.3924 34.7935 79.0747 34.612C78.7342 34.4304 78.3261 34.4445 78.0084 34.6488L64.0368 43.0684H63.853C61.985 44.1447 59.5981 43.5191 58.5218 41.6712C57.4456 39.8032 58.0875 37.4163 59.9558 36.3402L78.6335 25.0526C78.9995 24.8331 79.3954 24.6598 79.8102 24.5378C80.2248 24.4159 80.6581 24.354 81.0971 24.354H98.5614C99.4045 24.354 100.216 24.5822 100.914 25.0157C101.637 25.4253 102.233 26.0212 102.643 26.7439L113.599 45.6789C114.696 47.5673 114.054 49.9708 112.166 51.0469C110.277 52.1435 107.857 51.5015 106.761 49.613L99.9954 37.8844C99.8869 37.6891 99.6457 37.5985 99.4071 37.6638C99.1902 37.7071 99.0394 37.9031 99.0394 38.1417V54.0251V54.1722L99.1129 54.3193L116.908 85.1299C118.35 87.6276 117.478 90.8377 114.96 92.2995C112.462 93.7411 109.252 92.8853 107.79 90.3878L90.5828 60.5694C90.5396 60.4827 90.4188 60.4375 90.2886 60.4592C90.1802 60.4808 90.105 60.5866 90.105 60.7165V87.5935C90.105 90.4973 87.7509 92.8512 84.8473 92.8512C81.9437 92.8512 79.5895 90.4973 79.5895 87.5935L79.5894 59.3931Z" fill="#B2AAD1"/>
<path d="M89.2088 8.57536C85.7434 8.57536 82.9342 11.3845 82.9342 14.8497C82.9342 18.3152 85.7434 21.1243 89.2088 21.1243C92.6742 21.1243 95.4834 18.3152 95.4834 14.8497C95.4834 11.3845 92.6742 8.57536 89.2088 8.57536ZM81.3591 14.8499C81.3591 10.5145 84.8734 7 89.2088 7C93.5442 7 97.0587 10.5145 97.0587 14.8499C97.0587 19.1853 93.5442 22.6998 89.2088 22.6998C84.8734 22.6998 81.3591 19.1853 81.3591 14.8499Z" fill="#5E4F94"/>
<path d="M63.5668 41.493L77.1645 33.2989C77.9307 32.839 78.9306 32.7545 79.7839 33.2219C80.6377 33.6772 81.1697 34.5634 81.1697 35.5312V45.6054V59.3931V87.5935C81.1697 89.6273 82.8184 91.2758 84.8519 91.2758C86.855 91.2758 88.4976 89.6375 88.4976 87.5935V60.7167C88.4976 59.8186 89.1349 59.08 89.9846 58.9146C90.6724 58.7771 91.4094 59.04 91.8478 59.6244L91.9047 59.7002L109.159 89.6003C110.16 91.334 112.398 91.9446 114.169 90.94C115.923 89.913 116.518 87.6605 115.512 85.9173L97.432 54.5942V33.2884C97.432 32.6165 97.7176 31.9105 98.2213 31.4072C98.7206 30.9633 99.4038 30.6836 100.074 30.6836H120.5C121.789 30.6836 122.858 29.6249 122.858 28.2879C122.858 26.9851 121.802 25.9292 120.5 25.9292H81.0651C80.807 25.9292 80.5362 25.9677 80.2594 26.0488C79.971 26.1337 79.7 26.2526 79.4504 26.4023L60.7272 37.6951C59.641 38.3277 59.2435 39.7521 59.8882 40.8784C60.5264 41.9743 61.9324 42.3454 63.0283 41.707L63.3959 41.4928L63.5668 41.493ZM79.5944 59.3931V45.6054V35.5312C79.5944 35.1455 79.3832 34.7935 79.0427 34.612C78.7252 34.4304 78.3169 34.4445 77.9766 34.6488L64.005 43.0684H63.8212C61.9733 44.1447 59.6029 43.5191 58.5268 41.6712C57.4505 39.8032 58.0761 37.4163 59.9239 36.3402L78.6383 25.0526C79.0042 24.8331 79.4002 24.6598 79.8148 24.5378C80.2296 24.4159 80.6503 24.354 81.0651 24.354H120.5C122.673 24.354 124.434 26.1153 124.434 28.2881C124.434 30.4811 122.672 32.2591 120.5 32.2591H100.074C99.7911 32.2591 99.5134 32.3649 99.3013 32.5533C99.1129 32.7415 99.0071 33.006 99.0071 33.2886V54.1724L116.876 85.13C118.318 87.6277 117.462 90.8379 114.964 92.2997C112.446 93.7413 109.236 92.8855 107.795 90.388L90.5876 60.5696C90.5226 60.4829 90.402 60.4377 90.2936 60.4594C90.1634 60.481 90.073 60.5868 90.073 60.7167V87.5937C90.073 90.4974 87.7355 92.8514 84.8519 92.8514C81.9483 92.8514 79.5944 90.4974 79.5944 87.5937V59.3931Z" fill="#5E4F94"/>
<path d="M120.029 59.8946C120.026 60.3364 120.381 60.6976 120.823 60.7013L128.022 60.762C128.464 60.7658 128.825 60.4106 128.829 59.9688C128.833 59.527 128.478 59.1658 128.036 59.1621L121.636 59.1081L121.69 52.7084C121.694 52.2666 121.339 51.9054 120.897 51.9017C120.455 51.8979 120.094 52.2531 120.09 52.6949L120.029 59.8946ZM137.149 22.5736C136.841 22.2564 136.335 22.2486 136.017 22.5562L130.849 27.5688C130.532 27.8764 130.524 28.3829 130.832 28.7001C131.139 29.0173 131.646 29.025 131.963 28.7174L136.557 24.2617L141.013 28.856C141.32 29.1732 141.827 29.1809 142.144 28.8733C142.461 28.5657 142.469 28.0592 142.161 27.7421L137.149 22.5736ZM120.829 59.9014C121.39 60.4718 121.39 60.4717 121.39 60.4716C121.391 60.4715 121.391 60.4713 121.391 60.4711C121.391 60.4708 121.392 60.4703 121.392 60.4696C121.394 60.4683 121.396 60.4665 121.398 60.4641C121.403 60.4593 121.41 60.4523 121.419 60.4431C121.438 60.4247 121.465 60.3976 121.501 60.3622C121.572 60.2913 121.676 60.187 121.809 60.0521C122.075 59.7823 122.457 59.3898 122.925 58.8967C123.861 57.9108 125.142 56.5209 126.52 54.9041C129.259 51.69 132.445 47.5079 134.034 43.799L132.563 43.1692C131.077 46.6402 128.029 50.6667 125.302 53.8663C123.947 55.4563 122.687 56.8245 121.765 57.795C121.305 58.2801 120.929 58.6653 120.669 58.9287C120.54 59.0604 120.439 59.1616 120.371 59.2296C120.336 59.2636 120.311 59.2892 120.293 59.3062C120.285 59.3147 120.278 59.3211 120.274 59.3252C120.272 59.3273 120.271 59.3288 120.27 59.3297C120.269 59.3302 120.269 59.3306 120.269 59.3308C120.269 59.3309 120.268 59.3309 120.268 59.331C120.268 59.331 120.268 59.3309 120.829 59.9014ZM134.034 43.799C135.622 40.09 136.449 34.8977 136.885 30.6973C137.104 28.5844 137.226 26.6986 137.294 25.3408C137.328 24.6616 137.348 24.1139 137.359 23.7352C137.365 23.5458 137.369 23.3986 137.371 23.2983C137.372 23.2482 137.373 23.2098 137.374 23.1836C137.374 23.1706 137.374 23.1606 137.374 23.1538C137.374 23.1503 137.374 23.1477 137.374 23.1459C137.374 23.145 137.374 23.1442 137.374 23.1437C137.374 23.1435 137.374 23.1432 137.374 23.1431C137.374 23.1429 137.374 23.1428 136.574 23.1305C135.774 23.1183 135.774 23.1182 135.774 23.1182C135.774 23.1183 135.774 23.1184 135.774 23.1185C135.774 23.1188 135.774 23.1193 135.774 23.12C135.774 23.1213 135.774 23.1235 135.774 23.1264C135.774 23.1323 135.774 23.1413 135.774 23.1534C135.773 23.1776 135.773 23.214 135.772 23.2621C135.769 23.3583 135.766 23.5011 135.76 23.686C135.749 24.0557 135.729 24.5933 135.696 25.2614C135.629 26.598 135.509 28.4544 135.293 30.5323C134.86 34.7136 134.049 39.6982 132.563 43.1692L134.034 43.799Z" fill="#AF99C7"/>
</g>
<defs>
<clipPath id="clip0_520_1138">
<rect width="200" height="100" fill="white"/>
</clipPath>
</defs>
</svg>
