<svg width="200" height="100" viewBox="0 0 200 100" fill="none" xmlns="http://www.w3.org/2000/svg">
<g clip-path="url(#clip0_521_1185)">
<rect width="200" height="100" fill="#FFFCF9"/>
<rect x="1" y="1" width="198" height="98" rx="9" stroke="#5E4F94" stroke-width="2"/>
<path d="M100.08 13.4211C96.9545 13.4211 94.4209 15.9553 94.4209 19.0815C94.4209 22.2075 96.9545 24.7417 100.08 24.7417C103.206 24.7417 105.739 22.2075 105.739 19.0815C105.739 15.9553 103.205 13.4211 100.08 13.4211ZM93 19.0815C93 15.1705 96.1699 12 100.08 12C103.99 12 107.16 15.1703 107.16 19.0815C107.16 22.9923 103.99 26.1628 100.08 26.1628C96.1699 26.1628 93 22.9923 93 19.0815Z" fill="#5E4F94"/>
<path d="M107.115 50.5472V49.8174L107.187 49.8151L108.609 32.6554C108.647 32.3551 108.745 31.9898 108.866 31.707C109.012 31.4122 109.228 31.1215 109.437 30.9104L124.965 15.0552C125.793 14.2128 125.785 12.8643 124.973 12.0492C124.135 11.2082 122.8 11.2213 121.989 12.0458L107.347 26.7457C105.392 28.6849 102.75 29.779 100.007 29.779C97.246 29.779 94.6027 28.6901 92.6629 26.7426L78.0277 12.0492C77.1901 11.2082 75.8514 11.2244 75.0409 12.0492C74.2195 12.8628 74.2077 14.2111 75.0451 15.0519L90.6154 30.9537C90.7582 31.1256 90.9283 31.3449 91.0425 31.517L91.1144 31.6253L91.1655 31.745C91.3007 32.0618 91.3697 32.3966 91.3782 32.7316L92.8631 50.2882L92.8656 50.6136C92.8656 50.8163 92.8343 51.0447 92.7841 51.2478L83.2953 84.3433C82.7854 86.0964 83.7842 87.935 85.5279 88.4514C87.275 88.9507 89.1131 87.9336 89.6276 86.1744L96.8304 61.0634C97.2432 59.6468 98.543 58.6787 100.007 58.6787C101.471 58.6787 102.77 59.6468 103.183 61.0634L110.387 86.1766C110.881 87.9199 112.705 88.95 114.476 88.4542C116.226 87.9412 117.229 86.0989 116.718 84.3425L107.223 51.223C107.216 51.196 107.21 51.1692 107.223 51.1422L107.202 51.0706C107.15 50.9142 107.115 50.7376 107.115 50.5472ZM108.589 50.7718L118.078 83.9476C118.807 86.457 117.373 89.0854 114.873 89.8182C112.355 90.5326 109.737 89.0772 109.026 86.5676L101.824 61.4596C101.589 60.6545 100.848 60.0998 100.007 60.0998C99.1655 60.0998 98.4243 60.6543 98.1896 61.4596L90.9877 86.5676C90.2578 89.0774 87.6399 90.5328 85.1402 89.8182C82.6405 89.0854 81.2058 86.457 81.9357 83.9476L91.4172 50.8788C91.4391 50.7907 91.4501 50.7018 91.4501 50.6134V50.348L89.9635 32.8023C89.9635 32.6268 89.9299 32.4584 89.8643 32.3048C89.7769 32.1731 89.6766 32.0384 89.5671 31.9067L74.04 16.0526C72.6533 14.6605 72.6533 12.4182 74.04 11.0443C75.4084 9.6519 77.6419 9.6519 79.0286 11.0443L93.6638 25.7377C95.3348 27.4154 97.6165 28.3579 100.007 28.3579C102.376 28.3579 104.658 27.4154 106.35 25.7377L120.985 11.0443C122.354 9.6519 124.587 9.6519 125.974 11.0443C127.342 12.4182 127.342 14.6605 125.974 16.0526L110.447 31.9069C110.315 32.0386 110.215 32.1733 110.149 32.305C110.084 32.4586 110.039 32.627 110.017 32.8025L108.563 50.3482L108.589 50.7718ZM108.566 50.6896C108.57 50.7526 108.581 50.8159 108.596 50.8789L108.59 50.7718L108.566 50.6896ZM108.53 49.8176V49.8839V49.9172V50.5474V50.6136C108.53 50.6358 108.541 50.658 108.563 50.6801C108.564 50.664 108.563 50.639 108.563 50.6136C108.541 50.5255 108.541 50.4366 108.563 50.3482L108.53 49.8176Z" fill="#5E4F94"/>
<path d="M130.43 20.9434C130.43 20.9434 123.969 18.845 121.169 16.1224C118.369 13.3997 116.092 6.99995 116.092 6.99995" stroke="#FFFCF9" stroke-width="2.2"/>
<path d="M130.964 20.6709C131.115 20.9661 130.997 21.3275 130.702 21.4779L125.891 23.9301C125.596 24.0806 125.234 23.9632 125.084 23.668C124.933 23.3727 125.051 23.0114 125.346 22.8609L129.623 20.6813L127.443 16.4047C127.292 16.1095 127.41 15.7481 127.705 15.5977C128 15.4472 128.362 15.5645 128.512 15.8598L130.964 20.6709ZM115.55 6.74251C115.692 6.44319 116.05 6.3158 116.349 6.45798L121.227 8.77492C121.526 8.9171 121.653 9.275 121.511 9.57432C121.369 9.87364 121.011 10.001 120.712 9.85885L116.376 7.79935L114.317 12.1351C114.174 12.4344 113.816 12.5618 113.517 12.4196C113.218 12.2774 113.09 11.9195 113.233 11.6202L115.55 6.74251ZM130.43 20.9434C130.244 21.514 130.244 21.514 130.244 21.5139C130.244 21.5139 130.244 21.5139 130.244 21.5138C130.243 21.5137 130.243 21.5136 130.243 21.5134C130.242 21.5131 130.24 21.5127 130.238 21.5121C130.235 21.511 130.23 21.5093 130.223 21.5072C130.21 21.5028 130.191 21.4965 130.166 21.4882C130.117 21.4716 130.044 21.4472 129.951 21.4152C129.766 21.3513 129.498 21.2572 129.169 21.136C128.511 20.8936 127.604 20.5416 126.608 20.103C124.636 19.2355 122.234 17.9948 120.751 16.5525L121.587 15.6922C122.904 16.9726 125.132 18.1424 127.091 19.0047C128.06 19.431 128.943 19.7738 129.584 20.0099C129.904 20.1279 130.163 20.2191 130.342 20.2805C130.431 20.3113 130.5 20.3346 130.546 20.35C130.57 20.3578 130.587 20.3636 130.599 20.3674C130.604 20.3693 130.609 20.3707 130.611 20.3715C130.613 20.372 130.614 20.3723 130.614 20.3725C130.615 20.3726 130.615 20.3727 130.615 20.3727C130.615 20.3727 130.615 20.3727 130.615 20.3727C130.615 20.3727 130.615 20.3727 130.43 20.9434ZM120.751 16.5525C119.268 15.1102 117.96 12.7432 117.038 10.7971C116.572 9.81318 116.195 8.91639 115.934 8.2655C115.804 7.93984 115.702 7.67519 115.633 7.4913C115.599 7.39934 115.572 7.32754 115.554 7.27837C115.545 7.25378 115.538 7.23485 115.534 7.22187C115.531 7.21539 115.53 7.21039 115.528 7.20692C115.528 7.20519 115.527 7.20383 115.527 7.20287C115.527 7.20239 115.527 7.202 115.526 7.20171C115.526 7.20157 115.526 7.20142 115.526 7.20135C115.526 7.20123 115.526 7.20114 116.092 6.99995C116.657 6.79875 116.657 6.79871 116.657 6.79869C116.657 6.79871 116.657 6.79872 116.657 6.79877C116.657 6.79887 116.657 6.79906 116.657 6.79936C116.657 6.79994 116.658 6.80092 116.658 6.80227C116.659 6.80497 116.661 6.8092 116.663 6.8149C116.667 6.82631 116.673 6.84365 116.681 6.8666C116.698 6.9125 116.723 6.98085 116.757 7.06921C116.823 7.24595 116.921 7.50255 117.048 7.81941C117.302 8.45357 117.669 9.32688 118.123 10.2832C119.039 12.2177 120.271 14.4119 121.587 15.6922L120.751 16.5525Z" fill="#AF99C7"/>
</g>
<defs>
<clipPath id="clip0_521_1185">
<rect width="200" height="100" fill="white"/>
</clipPath>
</defs>
</svg>
