<svg width="200" height="100" viewBox="0 0 200 100" fill="none" xmlns="http://www.w3.org/2000/svg">
<g clip-path="url(#clip0_520_1131)">
<rect width="200" height="100" fill="#FFFCF9"/>
<rect x="1" y="1" width="198" height="98" rx="9" stroke="#5E4F94" stroke-width="2"/>
<mask id="mask0_520_1131" style="mask-type:alpha" maskUnits="userSpaceOnUse" x="55" y="3" width="90" height="90">
<rect x="55" y="3" width="90" height="90" fill="#D9D9D9"/>
</mask>
<g mask="url(#mask0_520_1131)">
<path d="M116.082 26.9091C116.082 36.3815 108.654 43.8091 99.1818 43.8091C89.7093 43.8091 82.2818 36.3815 82.2818 26.9091C82.2818 17.4366 89.7093 10.0091 99.1818 10.0091C108.654 10.0091 116.082 17.4366 116.082 26.9091ZM111.082 26.9091C111.082 20.1815 105.909 15.0091 99.1818 15.0091C92.4543 15.0091 87.2818 20.1815 87.2818 26.9091C87.2818 33.6366 92.4543 38.8091 99.1818 38.8091C105.909 38.8091 111.082 33.6366 111.082 26.9091Z" fill="#5E4F94" stroke="#FFFCF9" stroke-width="2.2"/>
<path d="M143.805 73.2417L143.812 73.3086L143.828 73.3739C144.372 75.5473 143.573 78.1244 142.077 80.2317L126.031 99.4717C126.03 99.4735 126.028 99.4753 126.027 99.4771C124.269 101.524 121.966 102.657 119.394 102.657H118.394V103.657V105.907V106.059L118.44 106.205L130.981 146.371L130.981 146.371C132.422 150.98 129.829 155.885 125.206 157.329L125.197 157.331L125.188 157.334C124.401 157.597 123.597 157.605 122.61 157.605C118.532 157.605 115.393 155.306 114.24 151.562L114.239 151.56L101.376 110.109L101.158 109.405H100.421H99.778H99.0412L98.8229 110.109L85.9605 151.558C85.9604 151.558 85.9603 151.559 85.9602 151.559C84.5155 156.177 79.6067 158.769 74.9931 157.329C70.3703 155.885 67.7772 150.981 69.2175 146.373C69.2177 146.372 69.2178 146.372 69.218 146.371L81.7589 106.528L81.805 106.382V106.228V103.979V102.979H80.805C78.2327 102.979 75.9301 101.845 74.1722 99.7981L58.098 80.5239L58.098 80.5238L58.089 80.5133C56.3784 78.5191 55.7877 75.9407 56.0655 73.6233C56.6559 71.0211 58.0985 68.9992 60.1374 67.5361L85.8368 51.4863L85.9334 51.426L85.9842 51.3752C85.9927 51.3688 86.0057 51.3593 86.0241 51.3462C86.0798 51.3066 86.1628 51.2503 86.2736 51.1788C86.4942 51.0363 86.8086 50.8438 87.2042 50.6182C87.9953 50.1672 89.0981 49.5917 90.4071 49.0255C93.0404 47.8866 96.434 46.8182 99.778 46.8182H100.1C105.369 46.8182 110.294 48.3653 114.283 51.431L114.322 51.4617L114.365 51.4882L139.767 67.2314C139.767 67.2316 139.767 67.2318 139.768 67.2321C142.126 68.705 143.522 70.7035 143.805 73.2417ZM127.691 77.565L127.664 77.5922L127.639 77.6213L116.062 91.1171L115.982 91.2106L115.927 91.3207L115.913 91.3499C115.589 91.9959 115.178 92.8167 115.178 94.0175C115.178 94.6992 115.398 95.4337 115.757 96.048C116.101 96.6373 116.645 97.2361 117.399 97.512C118.195 97.8956 119.165 98.0829 120.102 97.9843C121.063 97.8832 122.062 97.4688 122.75 96.5679L138.788 77.3373C139.274 76.8338 139.491 76.2343 139.592 75.68C139.689 75.1483 139.689 74.5892 139.689 74.1341V74.0951V73.9327L139.637 73.7787C139.24 72.589 138.452 71.8018 137.833 71.1838L137.788 71.1385L137.707 71.058L137.61 70.9977L111.981 54.9916L111.74 54.7507L111.653 54.6637L111.547 54.6004C108.215 52.6028 104.192 51.2513 100.129 51.2448C97.1754 51.0787 94.2038 52.029 92.0241 52.9742C90.9194 53.4532 89.9926 53.9422 89.3406 54.3123C89.0142 54.4975 88.7556 54.6536 88.5766 54.7646C88.4872 54.8201 88.4175 54.8644 88.3693 54.8955C88.3451 54.911 88.3264 54.9233 88.3131 54.932L88.3042 54.9378L62.5886 70.9977L62.5762 71.0055L62.5639 71.0136C61.5674 71.6774 60.5105 72.5817 60.5105 74.0951V74.1184C60.5105 74.5841 60.5104 75.1042 60.5548 75.5916C60.5993 76.0805 60.6946 76.6274 60.9378 77.1133L60.9897 77.2171L61.0641 77.3063L77.1428 96.586L77.1506 96.5952L77.1585 96.6043C77.8162 97.3553 78.5111 97.8221 79.2316 98.0381C79.9562 98.2553 80.6215 98.1932 81.1725 98.028C81.7111 97.8666 82.1473 97.6047 82.4373 97.4153C82.5484 97.3426 82.5983 97.3084 82.6389 97.2804C82.6551 97.2693 82.6698 97.2592 82.6864 97.248L82.8598 97.1614C83.8936 96.6449 84.3257 95.6569 84.3732 94.5489C84.5703 93.9959 84.5218 93.4138 84.3756 92.9266C84.2096 92.3739 83.8917 91.8437 83.4756 91.4169L72.2473 77.9533L72.2182 77.9184L72.1861 77.8864C72.0541 77.7544 71.9579 77.566 71.9004 77.2499C71.8464 76.9532 71.8377 76.6168 71.8364 76.1975C72.0754 75.5902 72.4969 75.1369 73.0728 74.5593L82.6152 68.5205C83.8257 67.8003 85.1024 68.092 85.736 69.1474L85.7994 69.2529L85.8865 69.3399C86.0529 69.5061 86.102 69.564 86.1412 69.6424C86.1758 69.7113 86.2365 69.8707 86.2365 70.2392V86.627V86.9605L86.4367 87.2273L87.4015 88.5126L87.4168 88.5331L87.4333 88.5527C88.8974 90.3084 89.7387 92.6065 89.4611 94.8489C89.1636 96.9177 88.2866 98.911 86.5966 100.318L86.2365 100.618V101.087V106.549V106.551V106.553V106.555V106.557V106.559V106.561V106.563V106.564V106.566V106.568V106.57V106.572V106.574V106.576V106.578V106.579V106.581V106.583V106.585V106.587V106.589V106.591V106.593V106.595V106.596V106.598V106.6V106.602V106.604V106.606V106.608V106.61V106.611V106.613V106.615V106.617V106.619V106.621V106.623V106.625V106.627V106.628V106.63V106.632V106.634V106.636V106.638V106.64V106.642V106.643V106.645V106.647V106.649V106.651V106.653V106.655V106.657V106.659V106.66V106.662V106.664V106.666V106.668V106.67V106.672V106.674V106.675V106.677V106.679V106.681V106.683V106.685V106.687V106.689V106.691V106.692V106.694V106.696V106.698V106.7V106.702V106.704V106.706V106.707V106.709V106.711V106.713V106.715V106.717V106.719V106.721V106.723V106.724V106.726V106.728V106.73V106.732V106.734V106.736V106.738V106.739V106.741V106.743V106.745V106.747V106.749V106.751V106.753V106.755V106.756V106.758V106.76V106.762V106.764V106.766V106.768V106.77V106.771V106.773V106.775V106.777V106.779V106.781V106.783V106.785V106.787V106.788V106.79V106.792V106.794V106.796V106.798V106.8V106.802V106.804V106.805V106.807V106.809V106.811V106.813V106.815V106.817V106.819V106.82V106.822V106.824V106.826V106.828V106.83V106.832V106.834V106.836V106.837V106.839V106.841V106.843V106.845V106.847V106.849V106.851V106.852V106.854V106.856V106.858V106.86V106.862V106.864V106.866V106.868V106.869V106.871V106.873V106.875V106.877V106.879V106.881V106.883V106.884V106.886V106.888V106.89V106.892V106.894V106.896V106.898V106.9V106.901V106.903V106.905V106.907V106.909V106.911V106.913V106.915V106.916V106.918V106.92V106.922V106.924V106.926V106.928V106.93V106.932V106.933V106.935V106.937V106.939V106.941V106.943V106.945V106.947V106.948V106.95V106.952V106.954V106.956V106.958V106.96V106.962V106.964V106.965V106.967V106.969V106.971V106.973V106.975V106.977V106.979V106.98V106.982V106.984V106.986V106.988V106.99V106.992V106.994V106.996V106.997V106.999V107.001V107.003V107.005V107.007V107.009V107.011V107.012V107.014V107.016V107.018V107.02V107.022V107.024V107.026V107.028V107.029V107.031V107.033V107.035V107.037V107.039V107.041V107.043V107.045V107.046V107.048V107.05V107.052V107.054V107.056V107.058V107.06V107.061V107.063V107.065V107.067V107.069V107.071V107.073V107.075V107.077V107.078V107.08V107.082V107.084V107.086V107.088V107.09V107.092V107.093V107.095V107.097V107.099V107.101V107.103V107.105V107.107V107.109V107.11V107.112V107.114V107.116V107.118V107.12V107.122V107.124V107.125V107.127V107.129V107.131V107.133V107.135V107.137V107.139V107.141V107.142V107.144V107.146V107.148V107.15V107.152V107.154V107.156V107.157V107.159V107.161V107.163V107.165V107.167V107.169V107.171V107.173V107.174V107.176V107.178V107.18V107.182V107.184V107.186V107.188V107.189V107.191V107.193V107.195V107.197V107.199V107.201V107.203V107.205V107.206V107.208V107.21V107.212V107.214V107.216V107.218V107.22V107.221V107.223V107.225V107.227V107.229V107.231V107.233V107.235V107.237V107.238V107.24V107.242V107.244V107.246V107.248V107.25V107.252V107.253V107.255V107.257V107.259V107.261V107.263V107.265V107.267V107.269V107.27V107.272V107.274V107.276V107.278V107.28V107.282V107.284V107.285V107.287V107.289V107.291V107.293V107.295V107.297V107.299V107.301V107.302V107.304V107.306V107.308V107.31V107.312V107.314V107.316V107.318V107.319V107.321V107.323V107.325V107.327V107.329V107.331V107.333V107.334V107.336V107.338V107.34V107.342V107.344V107.346V107.348V107.35V107.351V107.353V107.355V107.357V107.357L73.4211 147.374L73.399 147.443L73.3871 147.515C72.9897 149.898 74.2007 151.965 76.2534 152.785L76.3386 152.819L76.4286 152.837C78.4881 153.249 80.9033 152.053 81.7334 149.979L81.7484 149.941L81.7604 149.903L95.2407 106.286C95.7718 105.281 96.7356 104.657 97.5269 104.657H102.994C104.217 104.657 105.046 105.378 105.239 106.149L105.246 106.176L105.254 106.202L118.76 149.903L118.764 149.913L118.767 149.924C119.151 151.075 119.853 152.024 120.838 152.57C121.835 153.124 123.014 153.204 124.212 152.805L124.24 152.796L124.267 152.785C126.31 151.969 127.614 149.519 126.768 147.343L113.963 107.357V107.357V107.355V107.353V107.351V107.35V107.348V107.346V107.344V107.342V107.34V107.338V107.336V107.334V107.333V107.331V107.329V107.327V107.325V107.323V107.321V107.319V107.318V107.316V107.314V107.312V107.31V107.308V107.306V107.304V107.302V107.301V107.299V107.297V107.295V107.293V107.291V107.289V107.287V107.285V107.284V107.282V107.28V107.278V107.276V107.274V107.272V107.27V107.269V107.267V107.265V107.263V107.261V107.259V107.257V107.255V107.253V107.252V107.25V107.248V107.246V107.244V107.242V107.24V107.238V107.237V107.235V107.233V107.231V107.229V107.227V107.225V107.223V107.221V107.22V107.218V107.216V107.214V107.212V107.21V107.208V107.206V107.205V107.203V107.201V107.199V107.197V107.195V107.193V107.191V107.189V107.188V107.186V107.184V107.182V107.18V107.178V107.176V107.174V107.173V107.171V107.169V107.167V107.165V107.163V107.161V107.159V107.157V107.156V107.154V107.152V107.15V107.148V107.146V107.144V107.142V107.141V107.139V107.137V107.135V107.133V107.131V107.129V107.127V107.125V107.124V107.122V107.12V107.118V107.116V107.114V107.112V107.11V107.109V107.107V107.105V107.103V107.101V107.099V107.097V107.095V107.093V107.092V107.09V107.088V107.086V107.084V107.082V107.08V107.078V107.077V107.075V107.073V107.071V107.069V107.067V107.065V107.063V107.061V107.06V107.058V107.056V107.054V107.052V107.05V107.048V107.046V107.045V107.043V107.041V107.039V107.037V107.035V107.033V107.031V107.029V107.028V107.026V107.024V107.022V107.02V107.018V107.016V107.014V107.012V107.011V107.009V107.007V107.005V107.003V107.001V106.999V106.997V106.996V106.994V106.992V106.99V106.988V106.986V106.984V106.982V106.98V106.979V106.977V106.975V106.973V106.971V106.969V106.967V106.965V106.964V106.962V106.96V106.958V106.956V106.954V106.952V106.95V106.948V106.947V106.945V106.943V106.941V106.939V106.937V106.935V106.933V106.932V106.93V106.928V106.926V106.924V106.922V106.92V106.918V106.916V106.915V106.913V106.911V106.909V106.907V106.905V106.903V106.901V106.9V106.898V106.896V106.894V106.892V106.89V106.888V106.886V106.884V106.883V106.881V106.879V106.877V106.875V106.873V106.871V106.869V106.868V106.866V106.864V106.862V106.86V106.858V106.856V106.854V106.852V106.851V106.849V106.847V106.845V106.843V106.841V106.839V106.837V106.836V106.834V106.832V106.83V106.828V106.826V106.824V106.822V106.82V106.819V106.817V106.815V106.813V106.811V106.809V106.807V106.805V106.804V106.802V106.8V106.798V106.796V106.794V106.792V106.79V106.788V106.787V106.785V106.783V106.781V106.779V106.777V106.775V106.773V106.771V106.77V106.768V106.766V106.764V106.762V106.76V106.758V106.756V106.755V106.753V106.751V106.749V106.747V106.745V106.743V106.741V106.739V106.738V106.736V106.734V106.732V106.73V106.728V106.726V106.724V106.723V106.721V106.719V106.717V106.715V106.713V106.711V106.709V106.707V106.706V106.704V106.702V106.7V106.698V106.696V106.694V106.692V106.691V106.689V106.687V106.685V106.683V106.681V106.679V106.677V106.675V106.674V106.672V106.67V106.668V106.666V106.664V106.662V106.66V106.659V106.657V106.655V106.653V106.651V106.649V106.647V106.645V106.643V106.642V106.64V106.638V106.636V106.634V106.632V106.63V106.628V106.627V106.625V106.623V106.621V106.619V106.617V106.615V106.613V106.611V106.61V106.608V106.606V106.604V106.602V106.6V106.598V106.596V106.595V106.593V106.591V106.589V106.587V106.585V106.583V106.581V106.579V106.578V106.576V106.574V106.572V106.57V106.568V106.566V106.564V106.563V106.561V106.559V106.557V106.555V106.553V106.551V106.549V101.087V100.551L113.517 100.254C111.928 99.1961 111.042 97.2829 110.739 94.8574C110.458 92.6123 111.3 90.3106 112.766 88.5527L112.782 88.5331L112.798 88.5126L113.762 87.2273L113.963 86.9605V86.627V70.2392C113.963 69.874 114.022 69.6144 114.117 69.4005C114.215 69.1822 114.372 68.9596 114.634 68.6973C115.124 68.2077 115.623 68.0092 116.073 67.9842C116.53 67.9589 117.026 68.1073 117.508 68.4688L117.543 68.4952L117.581 68.5184L126.892 74.2935C127.814 74.9098 128.041 75.2892 128.041 75.7018V75.8642L128.093 76.0182C128.278 76.5728 128.106 77.1509 127.691 77.565ZM118.394 78.9151V81.6755L120.162 79.5555L121.77 77.6276L122.518 76.7303L121.516 76.1294L119.908 75.1655L118.394 74.2576V76.0231V78.9151ZM81.805 76.0231V74.2576L80.2908 75.1655L78.6829 76.1294L77.6808 76.7303L78.4292 77.6276L80.037 79.5555L81.805 81.6755V78.9151V76.0231Z" fill="#5E4F94" stroke="#FFFCF9" stroke-width="2"/>
<path d="M99 48C99 48 103 34.5915 103 26C103 17.4085 99 4 99 4" stroke="#FFFCF9" stroke-width="3" stroke-linecap="round"/>
<path d="M98.1203 48.4755C98.3828 48.9613 98.9896 49.1423 99.4755 48.8797L107.393 44.6006C107.879 44.338 108.06 43.7313 107.797 43.2454C107.535 42.7596 106.928 42.5786 106.442 42.8411L99.4043 46.6448L95.6006 39.6069C95.338 39.121 94.7313 38.94 94.2454 39.2026C93.7596 39.4652 93.5786 40.0719 93.8411 40.5578L98.1203 48.4755ZM99.4755 3.12026C98.9896 2.85767 98.3828 3.03868 98.1203 3.52454L93.8411 11.4422C93.5786 11.9281 93.7596 12.5348 94.2454 12.7974C94.7313 13.06 95.338 12.879 95.6006 12.3931L99.4043 5.3552L106.442 9.15886C106.928 9.42145 107.535 9.24044 107.797 8.75458C108.06 8.26871 107.879 7.66197 107.393 7.39938L99.4755 3.12026ZM99 48C99.9583 48.2859 99.9583 48.2857 99.9584 48.2856C99.9584 48.2854 99.9585 48.2852 99.9585 48.2849C99.9587 48.2844 99.9589 48.2837 99.9592 48.2828C99.9597 48.2809 99.9605 48.2783 99.9616 48.2748C99.9636 48.2679 99.9666 48.2577 99.9705 48.2445C99.9784 48.2179 99.9899 48.1788 100.005 48.1277C100.035 48.0255 100.078 47.8752 100.134 47.6814C100.244 47.2938 100.402 46.7317 100.591 46.0309C100.968 44.6298 101.472 42.6716 101.975 40.4422C102.978 36.0053 104 30.4138 104 26H102C102 30.1777 101.022 35.5863 100.025 40.0014C99.5283 42.1981 99.0318 44.129 98.6595 45.5104C98.4734 46.2009 98.3184 46.7535 98.2102 47.1328C98.1562 47.3224 98.1138 47.4686 98.085 47.567C98.0707 47.6161 98.0597 47.6534 98.0524 47.6781C98.0488 47.6905 98.046 47.6997 98.0442 47.7057C98.0433 47.7087 98.0427 47.7109 98.0423 47.7123C98.0421 47.713 98.0419 47.7135 98.0418 47.7138C98.0418 47.714 98.0418 47.7141 98.0417 47.7141C98.0417 47.7142 98.0417 47.7141 99 48ZM104 26C104 21.5862 102.978 15.9947 101.975 11.5578C101.472 9.32842 100.968 7.37024 100.591 5.96907C100.402 5.26826 100.244 4.70622 100.134 4.3186C100.078 4.12479 100.035 3.97454 100.005 3.87231C99.9899 3.8212 99.9784 3.78209 99.9705 3.75555C99.9666 3.74227 99.9636 3.73214 99.9616 3.72521C99.9605 3.72175 99.9597 3.71909 99.9592 3.71724C99.9589 3.71631 99.9587 3.71559 99.9585 3.71507C99.9585 3.71481 99.9584 3.71458 99.9584 3.71445C99.9583 3.71426 99.9583 3.71413 99 4C98.0417 4.28587 98.0417 4.28584 98.0417 4.28586C98.0418 4.28593 98.0418 4.286 98.0418 4.28615C98.0419 4.28645 98.0421 4.28695 98.0423 4.28765C98.0427 4.28906 98.0433 4.29128 98.0442 4.29429C98.046 4.30032 98.0488 4.30955 98.0524 4.32191C98.0597 4.34662 98.0707 4.38385 98.085 4.43305C98.1138 4.53143 98.1562 4.67765 98.2102 4.86724C98.3184 5.24647 98.4734 5.79908 98.6595 6.48956C99.0318 7.87096 99.5283 9.80187 100.025 11.9986C101.022 16.4137 102 21.8223 102 26H104Z" fill="#AF99C7"/>
</g>
</g>
<defs>
<clipPath id="clip0_520_1131">
<rect width="200" height="100" fill="white"/>
</clipPath>
</defs>
</svg>
