<svg width="200" height="100" viewBox="0 0 200 100" fill="none" xmlns="http://www.w3.org/2000/svg">
<g clip-path="url(#clip0_553_1585)">
<rect width="200" height="100" fill="#FFFCF9"/>
<rect x="1" y="1" width="198" height="98" rx="9" stroke="#5E4F94" stroke-width="2"/>
<path d="M112.75 58.9154L112.839 58.9607L112.75 58.9154C111.593 61.1892 110.508 63.3201 109.491 64.5325L109.567 64.5968L109.491 64.5325C108.746 65.4202 107.502 66.3916 106.014 67.3996C104.527 68.4064 102.805 69.4443 101.108 70.4664L101.16 70.5521L101.108 70.4664L101.098 70.4726C97.9907 72.3455 95.0393 74.1244 93.3775 75.7758C92.8612 76.2888 92.3103 76.8759 91.7281 77.4963L91.7088 77.5169L91.6941 77.5326C90.636 78.6602 89.3911 79.9869 88.1979 80.9987C87.5985 81.507 87.0157 81.9328 86.4793 82.2136C85.9407 82.4956 85.4623 82.6244 85.0661 82.559L85.0641 82.5586C84.9759 82.5436 84.8041 82.5142 84.5867 82.3455C84.3648 82.1734 84.0888 81.8507 83.8124 81.2338C82.8259 79.0278 83.3924 76.7117 84.543 74.567C85.6935 72.4226 87.4175 70.4696 88.7144 69.0009L88.7145 69.0008L89.2452 68.3977L89.2455 68.3973C89.4613 68.1497 89.7005 67.8857 89.9537 67.6068L89.9538 67.6068L89.9587 67.6014C91.3023 66.12 93.2415 63.982 94.0012 61.4511C94.3825 60.1811 94.4675 58.8103 94.0317 57.3738C93.5962 55.9378 92.6426 54.4439 90.9593 52.9231C88.7561 50.9328 86.6962 50.0117 84.6656 50.1548C83.1131 50.2604 81.7798 50.9816 80.5943 51.961C79.4115 52.9382 78.3684 54.1787 77.3969 55.3341L77.3925 55.3394L77.3924 55.3395C77.0877 55.7028 76.7859 56.0566 76.4852 56.4018H68.8016C70.2341 54.125 73.0813 50.6051 75.7892 47.4551C78.5588 44.2333 81.1721 41.4109 81.9656 40.7101L81.8994 40.6352L81.9656 40.7101C82.0825 40.6069 82.3273 40.456 82.6902 40.2635C83.0499 40.0726 83.5173 39.8451 84.0721 39.5882C85.1814 39.0746 86.6362 38.4453 88.2702 37.7593C91.5382 36.3876 95.5197 34.791 98.8813 33.4432L98.8441 33.3504L98.8813 33.4432L98.9258 33.4254C103.253 31.6899 107.339 30.0513 109.276 29.163C114.183 26.9127 141.984 13.1987 144.814 11.8025C144.951 11.7346 145.03 11.6959 145.044 11.6889L145.134 11.6445L145.089 11.5544L144.289 9.95526L144.245 9.86631L144.156 9.91033L144.155 9.91044C143.835 10.0684 113.558 25.0123 108.44 27.3598C106.561 28.2216 102.541 29.8341 98.2641 31.55L98.1349 31.6018C93.2367 33.5661 89.1592 35.2117 86.1611 36.4946C84.6622 37.136 83.4318 37.6873 82.503 38.1428C81.5783 38.5962 80.9416 38.9598 80.6397 39.2267C79.7388 40.0217 76.7587 43.2491 73.7245 46.8175C70.7136 50.3585 67.6347 54.2523 66.4762 56.4524C66.0407 56.4914 65.6078 56.5541 65.1977 56.6644L59.7139 57.9268L59.6997 57.9301C59.0956 58.0069 58.4977 58.3723 57.9426 59.0192C57.3792 59.6757 56.8543 60.6282 56.4046 61.8859C55.505 64.4015 54.9 68.1548 54.9 73.2524C54.9 78.35 55.505 82.1031 56.4046 84.6185C56.8543 85.876 57.3792 86.8284 57.9426 87.4848C58.4977 88.1316 59.0956 88.4969 59.6996 88.5738L59.7139 88.577L65.1668 89.833C65.1673 89.8331 65.1679 89.8333 65.1684 89.8334C65.834 90.0101 66.5212 90.1 67.2104 90.1H115.847C116.744 90.1 117.504 89.5252 118.134 88.5726C118.765 87.6192 119.28 86.2695 119.686 84.6754C120.5 81.4857 120.887 77.2896 120.887 73.2514C120.887 69.3269 120.521 65.254 119.754 62.1007C119.37 60.5247 118.885 59.1726 118.291 58.1829C117.731 57.2502 117.065 56.6233 116.283 56.4525C117.912 53.4746 119.744 50.7019 121.96 49.3468C124.484 47.8036 130.185 45.3122 135.287 43.195C140.16 41.1727 144.475 39.496 144.924 39.3214L144.961 39.3069L145.054 39.2704L145.018 39.1774L144.367 37.5125L144.331 37.4196L144.238 37.4557L144.211 37.4663C143.688 37.6693 139.241 39.3943 134.258 41.467C129.176 43.581 123.525 46.0608 120.916 47.6558C119.141 48.7414 117.639 50.4976 116.313 52.5075C114.988 54.5159 113.833 56.7862 112.753 58.9089L112.75 58.9154ZM84.8045 52.1384L84.8049 52.1384C85.4026 52.0953 86.0233 52.2043 86.6734 52.4545C85.6912 53.4545 84.1909 55.0487 83.2222 56.4039H79.105C79.9552 55.3936 80.8163 54.3897 81.7295 53.6073C82.6919 52.7827 83.7017 52.2136 84.8045 52.1384ZM65.6552 87.9081L65.6521 87.9073L62.2265 87.1183C62.9863 86.0654 63.6621 84.4416 64.1541 82.216C64.6661 79.8999 64.9804 76.9259 64.9804 73.2524C64.9804 69.5789 64.6658 66.6049 64.1537 64.2888C63.6616 62.0633 62.9857 60.4394 62.2264 59.3866L65.6816 58.5904L65.6816 58.5905L65.6848 58.5896C66.1817 58.4575 66.6956 58.3899 67.2115 58.3899H92.2022C92.5155 59.9049 92.0846 61.3255 91.3276 62.6396C90.5567 63.9778 89.4537 65.1954 88.4708 66.2793C88.2097 66.5671 87.962 66.8406 87.7376 67.0981L87.2155 67.6926L87.2153 67.6928L87.214 67.6942C85.7779 69.3202 83.8484 71.5047 82.5895 73.9785C81.3292 76.4549 80.7338 79.2353 81.989 82.0428C82.6299 83.4773 83.5521 84.3219 84.7376 84.5191L84.7378 84.5192C84.9101 84.5474 85.0832 84.5609 85.2582 84.5609C86.5614 84.5609 87.9202 83.7924 89.2545 82.7081C90.5901 81.6228 91.9197 80.2052 93.1657 78.8769L93.1702 78.872L93.0973 78.8036L93.1702 78.872C93.749 78.2544 94.2936 77.6739 94.7892 77.1814C95.5315 76.4438 96.6458 75.626 97.9397 74.773C99.232 73.9211 100.698 73.0376 102.142 72.1675L102.144 72.1662L102.092 72.0806L102.144 72.1662L102.151 72.1617C103.907 71.1033 105.695 70.0251 107.258 68.9582C108.821 67.8906 110.165 66.8294 111.024 65.8046C112.185 64.4212 113.32 62.1934 114.513 59.8495L114.532 59.8123L114.532 59.8122C114.77 59.344 115.013 58.8675 115.259 58.3899H115.849C115.924 58.3899 116.036 58.4433 116.181 58.5967C116.323 58.7463 116.481 58.9753 116.649 59.2869C116.982 59.9092 117.344 60.8461 117.677 62.095C118.342 64.5917 118.892 68.3234 118.892 73.2524C118.892 78.1814 118.342 81.9132 117.677 84.4099C117.344 85.6588 116.982 86.5956 116.649 87.218C116.481 87.5296 116.323 87.7585 116.181 87.9081C116.036 88.0615 115.924 88.1149 115.849 88.1149H67.2125C66.6969 88.1149 66.1829 88.0474 65.6552 87.9081ZM90.6994 55.5082C90.5006 55.7393 90.2949 56.0333 90.0863 56.4039H85.7543C86.7008 55.2771 87.8171 54.1266 88.4781 53.4656C88.8494 53.7354 89.2285 54.0423 89.6195 54.3959C90.0345 54.7714 90.3899 55.1422 90.6994 55.5082ZM56.8984 73.2524C56.8984 68.9032 57.4165 65.5464 58.0659 63.2798C58.3907 62.146 58.7474 61.2885 59.0863 60.7167C59.2558 60.4306 59.4188 60.2198 59.5681 60.0817C59.7191 59.942 59.8449 59.8871 59.9417 59.8871C60.0385 59.8871 60.1643 59.942 60.3154 60.0818C60.4646 60.2198 60.6276 60.4307 60.7972 60.7169C61.136 61.2887 61.4927 62.1463 61.8175 63.2802C62.4669 65.5469 62.9851 68.9037 62.9851 73.2524C62.9851 77.6012 62.4669 80.958 61.8175 83.2246C61.4927 84.3585 61.136 85.2161 60.7972 85.788C60.6276 86.0742 60.4646 86.285 60.3154 86.4231C60.1643 86.5628 60.0385 86.6178 59.9417 86.6178C59.8449 86.6178 59.7191 86.5628 59.5681 86.4231C59.4188 86.285 59.2559 86.0742 59.0863 85.788C58.7474 85.2161 58.3907 84.3585 58.0659 83.2246C57.4165 80.958 56.8984 77.6012 56.8984 73.2524Z" fill="#5E4F94" stroke="#5E4F94" stroke-width="0.2"/>
</g>
<defs>
<clipPath id="clip0_553_1585">
<rect width="200" height="100" fill="white"/>
</clipPath>
</defs>
</svg>
