<svg width="200" height="100" viewBox="0 0 200 100" fill="none" xmlns="http://www.w3.org/2000/svg">
<g clip-path="url(#clip0_542_1456)">
<rect width="200" height="100" fill="#FFFCF9"/>
<rect x="1" y="1" width="198" height="98" rx="9" stroke="#5E4F94" stroke-width="2"/>
<path d="M56.5034 72.1413L66.8147 27.4445C67.1763 25.8529 68.0977 24.4487 69.4071 23.4939C70.7165 22.5391 72.3244 22.0989 73.9309 22.2553C75.5374 22.4118 77.0328 23.1543 78.1381 24.3443C79.2435 25.5343 79.8833 27.0905 79.9383 28.7227L85.4828 30.6804L91.5792 29.6444L92.1576 27.5387C92.2938 27.0268 92.5283 26.547 92.8478 26.1267C93.1672 25.7065 93.5653 25.354 94.0194 25.0894C94.4734 24.8249 94.9745 24.6534 95.4941 24.5848C96.0136 24.5162 96.5414 24.5519 97.0473 24.6897C97.5533 24.8275 98.0274 25.0648 98.4427 25.3881C98.858 25.7113 99.2063 26.1142 99.4678 26.5736C99.7292 27.0331 99.8987 27.5402 99.9665 28.0659C100.034 28.5916 99.999 29.1257 99.8628 29.6377C98.4002 34.9859 98.3338 35.1407 98.3005 35.2147C98.0121 35.9258 97.5245 36.5361 96.8978 36.9705C96.1126 37.5517 95.2003 37.9325 94.2385 38.0805L86.7925 40.018H86.6862C85.8061 40.1696 84.907 40.1696 84.0269 40.018L77.7776 38.9618L75.1782 50.2167L89.8773 68.8112C90.5308 69.6396 90.9817 70.6125 91.1931 71.6506C91.4045 72.6888 91.3705 73.7628 91.0939 74.7851L87.4839 88.1591C86.9952 89.8521 85.8689 91.2832 84.3476 92.1442C82.8264 93.0051 81.0318 93.2271 79.3504 92.7622C77.669 92.2974 76.2353 91.183 75.3579 89.6589C74.4806 88.1349 74.2298 86.3231 74.6596 84.6138L77.3787 74.5227L71.3953 66.9073L69.2879 76.0431C69.1567 76.61 68.9533 77.1573 68.6829 77.6712L62.4602 89.5315C61.6146 91.0723 60.2052 92.2157 58.5352 92.7159C56.8651 93.2162 55.0678 93.0333 53.5296 92.2065C51.9915 91.3798 50.8354 89.9753 50.3098 88.295C49.7843 86.6148 49.9314 84.7929 50.7195 83.2212L56.5034 72.1413ZM54.6818 89.9486C55.6156 90.4503 56.7079 90.5564 57.7189 90.2435C58.7298 89.9307 59.5767 89.2245 60.0735 88.2802L66.3161 76.4199C66.4769 76.1117 66.5976 75.7839 66.6751 75.4444L69.3942 63.6109C69.4513 63.3652 69.5756 63.1406 69.7529 62.9629C69.9301 62.7853 70.1532 62.6616 70.3966 62.6062C70.64 62.5508 70.8939 62.5658 71.1293 62.6494C71.3647 62.7331 71.5721 62.8822 71.7277 63.0795L79.8784 73.3925C80.01 73.5583 80.1009 73.7532 80.1436 73.9614C80.1864 74.1695 80.1798 74.3849 80.1244 74.59L77.2258 85.3538C77.09 85.8658 77.0553 86.3998 77.1234 86.9253C77.1916 87.4509 77.3614 87.9577 77.6232 88.4169C77.885 88.876 78.2335 89.2785 78.649 89.6014C79.0644 89.9242 79.5387 90.1611 80.0446 90.2984C80.5506 90.4358 81.0783 90.471 81.5977 90.402C82.117 90.333 82.6179 90.1612 83.0716 89.8963C83.5254 89.6314 83.9231 89.2787 84.2422 88.8583C84.5612 88.4379 84.7953 87.958 84.931 87.446L88.5277 74.0787C88.6937 73.465 88.714 72.8203 88.5869 72.1972C88.4598 71.574 88.189 70.9901 87.7964 70.493L72.7316 51.4007C72.607 51.2417 72.5196 51.0563 72.4758 50.8582C72.4321 50.6602 72.4331 50.4547 72.479 50.2571L75.5039 37.1387C75.5805 36.805 75.7799 36.5135 76.0616 36.3235C76.3432 36.1335 76.6859 36.0593 77.0197 36.1161L84.4923 37.3876C85.0536 37.4803 85.6262 37.4803 86.1875 37.3876L93.6667 35.4636H93.7798C94.3558 35.3742 94.9014 35.1432 95.3687 34.7908C95.5736 34.6481 95.7349 34.4499 95.8341 34.219C95.9737 33.7817 96.8047 30.7679 97.3033 28.9313C97.37 28.6753 97.3606 28.4051 97.2763 28.1545C97.1919 27.9039 97.0364 27.684 96.8292 27.5224C96.6219 27.3608 96.3722 27.2647 96.1112 27.2461C95.8503 27.2274 95.5896 27.2871 95.362 27.4176C95.2081 27.5074 95.0734 27.6274 94.9661 27.7707C94.8588 27.914 94.7809 28.0776 94.7371 28.2518L93.926 31.2186C93.8585 31.4659 93.7224 31.6885 93.5339 31.8601C93.3455 32.0318 93.1124 32.1453 92.8623 32.1873L85.5959 33.3848C85.3733 33.4243 85.1445 33.4058 84.931 33.331L78.1299 30.9361C77.8405 30.8349 77.5945 30.6357 77.4334 30.3722C77.2723 30.1086 77.206 29.7969 77.2457 29.4897C77.3888 28.4567 77.1311 27.4079 76.5268 26.5629C75.9224 25.718 75.0183 25.1426 74.004 24.9573C72.9897 24.772 71.9438 24.9913 71.0857 25.5691C70.2276 26.1469 69.6238 27.0384 69.4009 28.0567L59.0497 72.9284C59.0236 73.0407 58.9834 73.1493 58.93 73.2513L53.0198 84.486C52.7738 84.955 52.6216 85.4684 52.572 85.997C52.5224 86.5256 52.5764 87.0588 52.7307 87.5663C52.8851 88.0737 53.1369 88.5453 53.4717 88.9541C53.8065 89.3629 54.2177 89.7009 54.6818 89.9486Z" fill="#5E4F94"/>
<path d="M74.9588 20.4548C73.6439 20.4548 72.3585 20.0602 71.2652 19.321C70.1719 18.5818 69.3198 17.5311 68.8166 16.3018C68.3135 15.0726 68.1818 13.7199 68.4383 12.4149C68.6948 11.11 69.328 9.91125 70.2578 8.97041C71.1875 8.02957 72.3721 7.38885 73.6618 7.12927C74.9514 6.86969 76.2881 7.00291 77.5029 7.51209C78.7177 8.02127 79.756 8.88354 80.4865 9.98985C81.217 11.0962 81.6069 12.3968 81.6069 13.7274C81.6069 15.5116 80.9065 17.2227 79.6597 18.4844C78.413 19.746 76.722 20.4548 74.9588 20.4548ZM74.9588 9.69095C74.1698 9.69095 73.3986 9.92769 72.7426 10.3712C72.0867 10.8147 71.5754 11.4451 71.2735 12.1827C70.9716 12.9203 70.8926 13.7319 71.0465 14.5148C71.2004 15.2978 71.5803 16.0171 72.1382 16.5816C72.696 17.1461 73.4068 17.5305 74.1806 17.6862C74.9543 17.842 75.7564 17.7621 76.4852 17.4566C77.2141 17.151 77.8371 16.6337 78.2754 15.9699C78.7137 15.3061 78.9477 14.5257 78.9477 13.7274C78.9477 12.6569 78.5274 11.6302 77.7793 10.8732C77.0313 10.1162 76.0167 9.69095 74.9588 9.69095Z" fill="#5E4F94"/>
<path d="M105 31.2C104.558 31.2 104.2 31.5582 104.2 32C104.2 32.4418 104.558 32.8 105 32.8V31.2ZM145.566 32.5657C145.878 32.2533 145.878 31.7467 145.566 31.4343L140.475 26.3431C140.162 26.0307 139.656 26.0307 139.343 26.3431C139.031 26.6556 139.031 27.1621 139.343 27.4745L143.869 32L139.343 36.5255C139.031 36.8379 139.031 37.3444 139.343 37.6569C139.656 37.9693 140.162 37.9693 140.475 37.6569L145.566 32.5657ZM105 32.8H124.671V31.2H105V32.8ZM124.671 32.8H145V31.2L124.671 31.2V32.8Z" fill="#AF99C7"/>
</g>
<defs>
<clipPath id="clip0_542_1456">
<rect width="200" height="100" fill="white"/>
</clipPath>
</defs>
</svg>
