<svg width="200" height="100" viewBox="0 0 200 100" fill="none" xmlns="http://www.w3.org/2000/svg">
<g clip-path="url(#clip0_544_1470)">
<rect width="200" height="100" fill="#FFFCF9"/>
<rect x="1" y="1" width="198" height="98" rx="9" stroke="#5E4F94" stroke-width="2"/>
<path d="M118.208 42.9341C118.146 43.3716 118.451 43.7764 118.888 43.8383L126.017 44.8462C126.455 44.9081 126.859 44.6036 126.921 44.1661C126.983 43.7286 126.679 43.3238 126.241 43.262L119.904 42.366L120.8 36.029C120.862 35.5916 120.557 35.1868 120.12 35.1249C119.682 35.0631 119.278 35.3676 119.216 35.8051L118.208 42.9341ZM151.446 19.6394C151.799 19.3738 151.87 18.8723 151.605 18.5192C151.339 18.1661 150.838 18.0952 150.484 18.3608L151.446 19.6394ZM119.481 43.6855L135.201 31.8603L134.239 30.5817L118.519 42.4068L119.481 43.6855ZM135.201 31.8603L151.446 19.6394L150.484 18.3608L134.239 30.5817L135.201 31.8603Z" fill="#AF99C7"/>
<path d="M76.8435 85C80.1782 85 83.3618 83.5642 85.589 81.0579L96.6876 68.5013C97.1155 68.0102 97.946 68.0102 98.3738 68.5013L111.687 83.602C112.48 84.4962 113.625 85 114.82 85C116.444 85 117.878 84.0932 118.583 82.6322C119.287 81.1713 119.086 79.4836 118.079 78.2242L102.589 58.9044C100.261 56.0077 96.1088 55.4914 93.1391 57.7458L81.1848 66.8641L70.0233 54.4838L86.4321 43.2496C86.5831 43.1615 86.6964 43.0733 86.7845 43.0103C87.3256 42.5821 87.4262 41.7887 86.9858 41.2345C86.558 40.693 85.7652 40.5922 85.2241 41.033C85.1738 41.0582 85.1235 41.096 85.0731 41.1338L67.4185 53.2244C67.1165 53.4259 66.9278 53.7533 66.8775 54.1186C66.8397 54.4838 66.953 54.8365 67.192 55.1135L80.1027 69.3955C80.5431 69.8867 81.2729 69.9497 81.8014 69.5467L94.6743 59.7231C96.5492 58.2999 99.1666 58.6274 100.639 60.4535L116.129 79.7859C116.532 80.2897 116.607 80.9446 116.33 81.5365C116.041 82.1285 115.487 82.4811 114.833 82.4811C114.342 82.4811 113.889 82.2796 113.575 81.9269L100.249 66.8263C99.5567 66.0454 98.5626 65.592 97.5181 65.592C96.4737 65.592 95.4796 66.0454 94.7875 66.8263L83.7015 79.3829C81.965 81.3476 79.4609 82.4685 76.8435 82.4685C75.3965 82.4685 73.9619 82.1285 72.691 81.4735C71.3949 80.8186 70.275 79.8615 69.4445 78.7028L55.1245 58.98C54.6086 58.2621 54.4073 57.3931 54.5709 56.5241C54.7344 55.6425 55.2252 54.8994 55.9676 54.4082L61.7308 50.6551C62.9263 49.8743 73.3076 44.4965 83.0723 39.5217C83.6889 39.2068 83.9406 38.4512 83.626 37.8341C83.3114 37.2169 82.5564 36.965 81.9398 37.2799C78.643 38.955 62.1083 47.3932 60.3592 48.5519L54.596 52.305C53.2873 53.1614 52.3688 54.5342 52.0919 56.0707C51.8025 57.6324 52.1548 59.1941 53.086 60.4661L67.4185 80.2015C68.4756 81.6751 69.9101 82.8967 71.5585 83.7405C73.1818 84.5592 75.0064 85 76.8435 85Z" fill="#5E4F94"/>
<path d="M51.1104 50.9573C56.1312 50.9573 60.2208 46.8642 60.2208 41.839C60.2208 36.8139 56.1312 32.7207 51.1104 32.7207C46.0896 32.7207 42 36.8139 42 41.839C42 46.8642 46.0896 50.9573 51.1104 50.9573ZM51.1104 35.2396C54.747 35.2396 57.7041 38.1993 57.7041 41.839C57.7041 45.4788 54.747 48.4385 51.1104 48.4385C47.4738 48.4385 44.5167 45.4788 44.5167 41.839C44.5167 38.1993 47.4738 35.2396 51.1104 35.2396Z" fill="#5E4F94"/>
<path d="M91.302 36.0709C91.5662 36.0709 91.8179 35.9953 92.0444 35.8316L117.299 17.2801C117.866 16.8645 117.979 16.0836 117.564 15.5169C117.148 14.9501 116.368 14.8368 115.802 15.2398L90.5469 33.7913C89.9807 34.2069 89.8674 34.9878 90.2827 35.5545C90.5344 35.8946 90.9119 36.0709 91.302 36.0709Z" fill="#5E4F94"/>
<path d="M87.2123 43.4132C90.5595 43.4132 93.2776 40.6928 93.2776 37.3427C93.2776 33.9926 90.5595 31.2722 87.2123 31.2722C83.8651 31.2722 81.1471 33.9926 81.1471 37.3427C81.1471 40.6928 83.8651 43.4132 87.2123 43.4132ZM87.2123 33.7785C89.1754 33.7785 90.7609 35.378 90.7609 37.3301C90.7609 39.2822 89.1628 40.8817 87.2123 40.8817C85.2619 40.8817 83.6638 39.2822 83.6638 37.3301C83.6638 35.378 85.2493 33.7785 87.2123 33.7785Z" fill="#5E4F94"/>
</g>
<defs>
<clipPath id="clip0_544_1470">
<rect width="200" height="100" fill="white"/>
</clipPath>
</defs>
</svg>
