<svg width="200" height="100" viewBox="0 0 200 100" fill="none" xmlns="http://www.w3.org/2000/svg">
<g clip-path="url(#clip0_550_1522)">
<rect width="200" height="100" fill="#FFFCF9"/>
<rect x="1" y="1" width="198" height="98" rx="9" stroke="#5E4F94" stroke-width="2"/>
<path fill-rule="evenodd" clip-rule="evenodd" d="M55.0191 59.6034C54.4999 60.04 53.7249 59.9731 53.2883 59.4539C52.8516 58.9347 52.9186 58.1598 53.4377 57.7231L72.7741 41.4651C72.5815 40.22 72.7831 39.0934 73.3749 38.1012C73.9546 37.1296 74.8697 36.41 75.9799 36.1771C76.064 36.1596 76.148 36.1511 76.2306 36.1511V36.1481C77.0162 36.1481 77.7894 36.3231 78.4706 36.6755L96.9094 21.1722L96.0773 21.5876C95.4676 21.8911 94.7272 21.6428 94.4237 21.0331C94.1202 20.4234 94.3684 19.683 94.9781 19.3795L104.255 14.749C105.374 14.191 106.603 15.5013 105.76 16.6328L100.063 25.0085C99.6823 25.5703 98.9181 25.7171 98.3563 25.3364C97.7945 24.9556 97.6478 24.1915 98.0285 23.6296L98.3281 23.1891L80.2333 38.4032C80.4553 38.8204 80.615 39.2938 80.697 39.8238L81.8563 47.3133L86.1438 44.8979L86.1428 44.8951C86.7697 44.6477 87.4079 44.4263 88.0568 44.2297C84.7619 41.9339 84.329 37.2128 87.1782 34.3637C89.6997 31.8422 93.7871 31.8422 96.3086 34.3637C98.6672 36.7223 98.8425 40.4907 96.7087 43.0554C97.8774 43.0696 98.989 43.1321 100.142 43.2485L106.277 34.1733C107.621 32.1859 110.276 31.7599 112.064 33.4154C113.747 34.9733 113.993 37.7011 112.721 39.5837L105.986 49.5461C105.068 50.9045 103.821 51.8398 102.245 52.2156L99.6721 52.8288L101.106 62.0714L105.589 66.8845C106.893 68.2839 107.655 70.0539 107.569 72.0191L106.972 85.6338C106.868 88.0152 106.312 92.1666 103.157 92.0521C101.869 92.0523 100.7 91.4719 99.8429 90.5249C99.0101 89.6049 98.4744 88.3311 98.433 86.9218C98.3643 82.6629 98.2484 78.3976 98.1561 74.1383L94.9493 70.846L91.6202 77.2334C91.5494 77.3696 91.4567 77.4869 91.3488 77.5836L81.6884 87.4994C79.0818 90.175 74.2339 90.4235 73.2564 88.0086C72.974 87.3112 73.0555 86.522 73.6347 85.6951L82.7719 72.6506L85.8734 64.7598L84.6936 56.8546L82.484 57.8958C79.8163 59.1529 76.963 57.995 75.4973 55.6174C75.0275 54.8555 74.7106 53.9759 74.5596 53L73.2137 44.3053L55.0191 59.6034ZM94.5633 36.1089C92.0579 33.6035 87.7555 35.3865 87.7555 38.9289C87.7555 42.4714 92.058 44.2542 94.5633 41.7489C96.1206 40.1916 96.1206 37.6662 94.5633 36.1089ZM77.6519 39.0663C77.31 38.7897 76.8526 38.6415 76.3607 38.6194C76.0069 38.7323 75.7014 39.0041 75.4865 39.3643C75.2173 39.8156 75.0958 40.3905 75.187 40.9799L76.9894 52.6239C77.1747 53.8214 77.718 54.8307 78.7201 55.474C79.5945 56.0353 80.4975 56.1094 81.433 55.6685L85.088 53.9461C85.8434 53.5669 86.7593 53.9853 86.8879 54.8556L88.3608 64.724C88.3909 64.9288 88.3692 65.1441 88.2885 65.3507L85.0166 73.6748L85.0142 73.6738C84.9794 73.7626 84.9338 73.8487 84.8768 73.9303L75.6606 87.0877C75.8058 87.1413 75.9958 87.1788 76.2205 87.1982C77.3231 87.2932 78.8469 86.8886 79.9239 85.7831L89.5117 75.9417L93.5478 68.1978L93.5499 68.1989C93.9333 67.4614 94.9348 67.3028 95.5244 67.9085L100.257 72.7674L100.256 72.7683C100.466 72.984 100.598 73.2768 100.604 73.6014C100.7 77.9982 100.717 82.4684 100.892 86.8544C100.915 87.6585 101.209 88.3723 101.665 88.8761C102.127 89.3857 102.617 89.587 103.248 89.587C103.568 89.587 103.823 89.1817 104.023 88.6255C104.343 87.7367 104.469 86.5517 104.514 85.5278L105.11 71.913C105.167 70.6122 104.658 69.4982 103.786 68.5623L99.0476 63.4756L99.0491 63.4742C98.8869 63.3002 98.7733 63.0775 98.7342 62.8247L97.0835 52.1814C96.9401 51.4755 97.3382 50.8481 97.9982 50.6913L101.676 49.8147C102.668 49.5781 103.359 49.0298 103.942 48.1672L110.677 38.2048C111.627 36.7991 110.716 34.6809 109.341 34.8639C108.922 34.9196 108.581 35.1681 108.321 35.5521L101.787 45.2173C101.541 45.6042 101.088 45.8377 100.602 45.7803C97.0444 45.3573 93.5221 45.3907 90.0523 46.2348C89.0731 46.473 88.0917 46.7815 87.1083 47.1667L81.5214 50.3319L81.5209 50.331C80.7872 50.7474 79.8312 50.3041 79.699 49.4496L78.2672 40.1999C78.1888 39.6933 77.9621 39.3171 77.6519 39.0663ZM75.5416 87.083L75.5468 87.0709C75.5362 87.0616 75.5325 87.0606 75.5416 87.083ZM75.5416 87.083C75.55 87.1036 75.5475 87.0894 75.5469 87.0726L75.5416 87.083Z" fill="#5E4F94"/>
<path d="M109.875 28.8361C109.542 29.1262 109.037 29.0912 108.747 28.7579C108.456 28.4247 108.491 27.9194 108.825 27.6293L109.875 28.8361ZM146.722 12.0753C147.059 12.361 147.101 12.8658 146.815 13.2028L142.159 18.6945C141.873 19.0315 141.368 19.073 141.031 18.7873C140.694 18.5015 140.653 17.9967 140.938 17.6597L145.077 12.7783L140.196 8.63924C139.859 8.3535 139.817 7.84868 140.103 7.51168C140.389 7.17469 140.894 7.13314 141.231 7.41888L146.722 12.0753ZM109.35 28.2327C108.825 27.6293 108.825 27.6292 108.825 27.6291C108.825 27.629 108.825 27.6288 108.825 27.6287C108.826 27.6284 108.826 27.6279 108.827 27.6273C108.828 27.6262 108.83 27.6245 108.833 27.6224C108.838 27.618 108.845 27.6117 108.854 27.6034C108.874 27.5868 108.902 27.5625 108.939 27.5307C109.013 27.4671 109.122 27.374 109.262 27.2546C109.544 27.0159 109.953 26.6723 110.467 26.2508C111.493 25.408 112.937 24.2526 114.608 23.0012C117.934 20.5103 122.218 17.5947 125.912 16.0365L126.534 17.5107C123.031 18.9882 118.878 21.8021 115.567 24.2819C113.92 25.5158 112.495 26.6559 111.482 27.4874C110.976 27.903 110.573 28.2412 110.297 28.475C110.159 28.5919 110.053 28.6827 109.982 28.744C109.946 28.7746 109.919 28.7979 109.901 28.8134C109.892 28.8211 109.886 28.8269 109.881 28.8307C109.879 28.8326 109.878 28.834 109.876 28.8349C109.876 28.8354 109.876 28.8357 109.875 28.8359C109.875 28.836 109.875 28.836 109.875 28.8361C109.875 28.8361 109.875 28.8361 109.35 28.2327ZM125.912 16.0365C129.606 14.4782 134.683 13.4448 138.788 12.8008C140.851 12.4772 142.686 12.2493 144.006 12.1022C144.666 12.0287 145.198 11.9753 145.565 11.9402C145.749 11.9227 145.892 11.9097 145.989 11.9011C146.037 11.8968 146.075 11.8936 146.1 11.8915C146.113 11.8904 146.122 11.8896 146.129 11.889C146.132 11.8888 146.135 11.8885 146.136 11.8884C146.137 11.8883 146.138 11.8883 146.138 11.8882C146.139 11.8882 146.139 11.8882 146.139 11.8882C146.139 11.8882 146.139 11.8882 146.205 12.6855C146.27 13.4828 146.27 13.4828 146.27 13.4828C146.27 13.4828 146.27 13.4828 146.27 13.4828C146.27 13.4828 146.269 13.4828 146.269 13.4829C146.267 13.483 146.265 13.4832 146.262 13.4834C146.257 13.4839 146.248 13.4847 146.236 13.4857C146.212 13.4877 146.177 13.4907 146.13 13.4949C146.036 13.5032 145.897 13.5158 145.717 13.533C145.357 13.5673 144.834 13.6199 144.183 13.6924C142.881 13.8375 141.07 14.0624 139.036 14.3814C134.95 15.0225 130.036 16.0331 126.534 17.5107L125.912 16.0365Z" fill="#AF99C7"/>
</g>
<defs>
<clipPath id="clip0_550_1522">
<rect width="200" height="100" fill="white"/>
</clipPath>
</defs>
</svg>
