<svg width="200" height="100" viewBox="0 0 200 100" fill="none" xmlns="http://www.w3.org/2000/svg">
<g clip-path="url(#clip0_552_1528)">
<rect width="200" height="100" fill="#FFFCF9"/>
<rect x="1" y="1" width="198" height="98" rx="9" stroke="#5E4F94" stroke-width="2"/>
<path d="M116.539 18.5217C116.539 23.0544 112.881 26.7435 108.398 26.7435C103.914 26.7435 100.256 23.0544 100.256 18.5217C100.256 13.9891 103.914 10.3 108.398 10.3C112.881 10.3 116.539 13.9891 116.539 18.5217ZM113.694 18.5217C113.694 15.5761 111.322 13.1783 108.398 13.1783C105.473 13.1783 103.102 15.5761 103.102 18.5217C103.102 21.4674 105.473 23.8652 108.398 23.8652C111.322 23.8652 113.694 21.4674 113.694 18.5217Z" fill="#5E4F94" stroke="#FFFCF9" stroke-width="0.6"/>
<path d="M77.4529 50.7586L77.4525 50.7595C76.5459 52.832 75.1673 53.5944 73.9684 53.8365C72.7468 54.0831 71.6837 53.7934 71.4531 53.7158C69.0351 52.9021 67.7283 50.1214 68.5412 47.6594C69.5698 44.5445 75.3635 29.4281 93.2399 29.0827C93.339 29.0827 94.5968 29.0863 96.2492 29.4664C97.9201 29.8507 99.9725 30.615 101.642 32.1287L108.526 39.2521L108.615 39.3436H108.742H120.285C122.873 39.3436 124.981 41.4675 124.981 44.0871C124.981 46.7067 122.873 48.8305 120.285 48.8305H106.675C105.365 48.8305 104.081 48.3343 103.288 47.3743L103.28 47.3639L103.27 47.3542L100.514 44.5716L100.227 44.2825L100.036 44.6415C98.8168 46.9268 97.0596 51.1724 97.9374 56.1376C98.1161 57.2184 98.6017 58.5934 99.2106 59.8886C99.8197 61.1842 100.566 62.4296 101.281 63.2418L101.295 63.2571L101.31 63.2704L101.31 63.2705L101.31 63.2707L101.312 63.2722L101.319 63.2783L101.348 63.3039C101.374 63.3267 101.412 63.3609 101.461 63.4056C101.559 63.4951 101.701 63.6268 101.874 63.7942C102.219 64.1292 102.686 64.6063 103.174 65.174C104.157 66.317 105.19 67.7891 105.519 69.1906L108.101 83.9599C108.263 85.1106 108.016 86.5554 107.264 87.7054C106.519 88.8434 105.275 89.7001 103.402 89.7001C100.959 89.7001 99.0379 88.068 98.877 85.6325L98.876 85.6176L98.8736 85.6028L96.6339 72.2115L96.619 72.1222L96.5571 72.056L93.6283 68.9256L93.1093 68.3708V69.1305V72.9566C93.1093 74.6198 92.4524 76.0752 91.1818 76.8768L91.1743 76.8816L91.1671 76.8867L79.2849 85.4048C77.6584 86.4697 76.0852 86.3866 74.8261 85.8946C73.5468 85.3947 72.614 84.4806 72.3076 83.9393L72.3077 83.9392L72.3027 83.9309C71.0124 81.8143 71.6503 79.031 73.7689 77.5504L73.769 77.5504L73.7746 77.5463L83.25 70.5898L83.3725 70.4999V70.3479V63.2175V63.2112C83.3725 63.0315 83.3726 62.6257 83.169 62.2148L83.155 62.1864L83.1353 62.1616C82.9927 61.9817 82.7153 61.4954 82.424 60.6694C82.1353 59.8506 81.8384 58.7136 81.6471 57.244C81.2647 54.3056 81.3045 50.0382 82.675 44.331L82.9025 43.384L82.1816 44.0389C80.4311 45.6293 79.2499 47.3075 78.506 48.5886C78.1339 49.2294 77.8707 49.7717 77.7 50.1553C77.6146 50.3471 77.5523 50.4994 77.511 50.6046C77.4904 50.6571 77.475 50.698 77.4647 50.7261L77.4529 50.7586ZM104.014 86.8062L104.034 86.7993L104.054 86.7897C104.854 86.3858 105.424 85.4062 105.424 84.4349V84.4103L105.42 84.386L103.01 69.7849C102.956 69.3183 102.683 68.8027 102.348 68.3164C102.005 67.8178 101.569 67.3108 101.143 66.8596C100.717 66.4073 100.297 66.0055 99.9843 65.717C99.8276 65.5726 99.6974 65.4563 99.6061 65.3759C99.5604 65.3357 99.5245 65.3044 99.4998 65.2831L99.4764 65.2629C97.63 63.2211 95.9349 59.4606 95.4273 56.7293C94.0771 49.059 97.9399 43.0768 99.1538 41.3231C99.5064 40.9679 99.7625 40.7349 100.128 40.7349C100.584 40.7349 101.015 40.8887 101.291 41.1657L105.424 45.5112L105.424 45.5112L105.428 45.5156C105.618 45.7073 105.82 45.8632 106.057 45.9695C106.295 46.0764 106.553 46.1262 106.847 46.1262H120.457C121.678 46.1262 122.48 45.0997 122.48 44.0871C122.48 42.8613 121.467 42.0479 120.457 42.0479H108.225C108.002 42.0479 107.83 42.0108 107.681 41.9438C107.53 41.8762 107.387 41.7712 107.233 41.6151L99.8245 34.1368L99.8195 34.1317L99.8142 34.1269C98.8148 33.2098 97.4686 32.6718 96.2619 32.3617C95.0522 32.0509 93.9503 31.961 93.4093 31.961V31.9609L93.4027 31.961C77.3439 32.3135 72.112 45.8885 71.2448 48.5147C71.1404 48.8308 71.095 49.3703 71.241 49.8862C71.3902 50.4131 71.7495 50.9413 72.4654 51.1536C73.5192 51.5695 74.5242 50.9094 74.9096 49.9367L74.9098 49.9368L74.9135 49.9264L74.9135 49.9264L74.9136 49.9263L74.9137 49.9258L74.9148 49.9227L74.9199 49.9087C74.9246 49.8959 74.9319 49.8764 74.9419 49.8504C74.9618 49.7983 74.9924 49.7203 75.0344 49.619C75.1184 49.4164 75.2478 49.1204 75.4279 48.7513C75.7883 48.0129 76.3514 46.9832 77.1595 45.8238C78.7762 43.5047 81.3698 40.6726 85.2796 38.6134L85.2939 38.6058L85.3073 38.5968C85.4827 38.4788 85.7409 38.4355 86.0316 38.4905C86.3197 38.5451 86.6084 38.6915 86.8218 38.9069C87.2609 39.3501 87.3908 39.91 87.1106 40.4756L87.1105 40.4756L87.1073 40.4827C84.5862 45.9236 84.0631 50.8418 84.2156 54.4692C84.2918 56.2825 84.5368 57.7738 84.7857 58.8477C84.9101 59.3846 85.0357 59.8184 85.1423 60.1371C85.1956 60.2962 85.2446 60.4283 85.287 60.531C85.325 60.6234 85.3642 60.7082 85.4016 60.7669C85.901 61.6082 86.2181 62.4229 86.2181 63.3914V71.3914C86.2181 71.8451 86.0722 72.2574 85.6614 72.5338L85.6614 72.5337L85.6539 72.5391L75.4986 79.8368C74.5 80.4492 74.301 81.6625 74.7065 82.4811C74.7741 82.6176 74.9033 82.7679 75.0604 82.9021C75.2225 83.0406 75.433 83.178 75.6813 83.2783C76.1851 83.4817 76.8432 83.5298 77.5371 83.1295L77.55 83.1221L77.562 83.1135L89.4493 74.5918L89.4699 74.577L89.4877 74.5591C89.8519 74.1914 90.2637 73.597 90.2637 72.9566V64.7827C90.2637 64.5001 90.3715 64.1324 90.6065 63.8404C90.834 63.5577 91.1812 63.3436 91.6865 63.3436C91.9547 63.3436 92.3904 63.4876 92.6753 63.7724L98.8731 70.5504L98.8729 70.5505L98.8814 70.5591C99.0014 70.6803 99.1391 70.9535 99.1391 71.2175V71.2415L99.1429 71.2652L101.383 85.1782L101.383 85.1794C101.582 86.3891 102.79 87.2181 104.014 86.8062Z" fill="#5E4F94" stroke="#FFFCF9" stroke-width="0.6"/>
<path d="M115.417 59.3914C115.417 54.8587 119.075 51.1696 123.558 51.1696C128.042 51.1696 131.7 54.8587 131.7 59.3914C131.7 63.924 128.042 67.6131 123.558 67.6131C119.075 67.6131 115.417 63.924 115.417 59.3914ZM118.262 59.3914C118.262 62.337 120.633 64.7348 123.558 64.7348C126.483 64.7348 128.854 62.337 128.854 59.3914C128.854 56.4457 126.483 54.0479 123.558 54.0479C120.633 54.0479 118.262 56.4457 118.262 59.3914Z" fill="#5E4F94" stroke="#FFFCF9" stroke-width="0.6"/>
<path d="M91.8215 85.4504C91.8215 85.4504 83.7287 82.527 80.4347 78.9243C77.1408 75.3216 74.9521 66.9999 74.9521 66.9999" stroke="#FFFCF9" stroke-width="3"/>
<path d="M92.5005 85.1318C92.6765 85.5068 92.5151 85.9534 92.1401 86.1294L86.0295 88.9968C85.6545 89.1728 85.2079 89.0115 85.0319 88.6365C84.8559 88.2615 85.0173 87.8149 85.3923 87.6389L90.824 85.0901L88.2751 79.6584C88.0992 79.2834 88.2605 78.8368 88.6355 78.6608C89.0105 78.4848 89.4571 78.6462 89.6331 79.0212L92.5005 85.1318ZM74.2267 67.1907C74.1214 66.7901 74.3607 66.38 74.7613 66.2746C75.1619 66.1692 75.572 66.4086 75.6774 66.8092L74.2267 67.1907ZM91.8215 85.4504C91.5667 86.1558 91.5666 86.1558 91.5664 86.1557C91.5664 86.1557 91.5662 86.1556 91.566 86.1556C91.5656 86.1554 91.5651 86.1552 91.5645 86.155C91.5633 86.1546 91.5616 86.154 91.5594 86.1532C91.555 86.1516 91.5486 86.1493 91.5404 86.1462C91.524 86.1402 91.5 86.1314 91.4689 86.1199C91.4067 86.0968 91.316 86.0628 91.1998 86.0184C90.9674 85.9297 90.6332 85.7994 90.2224 85.6318C89.4013 85.297 88.2715 84.8125 87.036 84.2132C84.5944 83.0287 81.6325 81.3458 79.8812 79.4304L80.9882 78.4182C82.5309 80.1055 85.2624 81.6856 87.6907 82.8636C88.8902 83.4455 89.9894 83.9169 90.7887 84.2429C91.1881 84.4057 91.5119 84.5319 91.735 84.6171C91.8465 84.6597 91.9328 84.6921 91.9907 84.7136C92.0197 84.7243 92.0416 84.7324 92.056 84.7376C92.0632 84.7403 92.0685 84.7422 92.0719 84.7435C92.0736 84.7441 92.0749 84.7445 92.0756 84.7448C92.076 84.7449 92.0762 84.745 92.0763 84.7451C92.0764 84.7451 92.0764 84.7451 92.0764 84.7451C92.0764 84.7451 92.0763 84.7451 91.8215 85.4504ZM79.8812 79.4304C78.1299 77.5149 76.7184 74.4145 75.7568 71.8768C75.2703 70.5928 74.8886 69.4242 74.6285 68.5765C74.4984 68.1524 74.3984 67.8078 74.3308 67.5685C74.297 67.4488 74.2712 67.3553 74.2538 67.2913C74.2451 67.2593 74.2385 67.2346 74.2339 67.2177C74.2317 67.2093 74.2299 67.2028 74.2287 67.1983C74.2281 67.196 74.2277 67.1942 74.2273 67.193C74.2272 67.1923 74.227 67.1918 74.2269 67.1915C74.2269 67.1913 74.2268 67.1911 74.2268 67.191C74.2268 67.1908 74.2267 67.1907 74.9521 66.9999C75.6774 66.8092 75.6774 66.8091 75.6774 66.8091C75.6774 66.8091 75.6774 66.8091 75.6774 66.8092C75.6774 66.8093 75.6775 66.8095 75.6776 66.8099C75.6778 66.8107 75.6781 66.8119 75.6786 66.8137C75.6795 66.8172 75.681 66.8227 75.683 66.8301C75.6869 66.8449 75.693 66.8674 75.7011 66.8972C75.7174 66.9569 75.7418 67.0457 75.7743 67.1606C75.8392 67.3904 75.936 67.7242 76.0625 68.1365C76.3157 68.9617 76.6871 70.0987 77.1595 71.3454C78.1158 73.8692 79.4456 76.731 80.9882 78.4182L79.8812 79.4304Z" fill="#AF99C7"/>
</g>
<defs>
<clipPath id="clip0_552_1528">
<rect width="200" height="100" fill="white"/>
</clipPath>
</defs>
</svg>
