<svg width="200" height="100" viewBox="0 0 200 100" fill="none" xmlns="http://www.w3.org/2000/svg">
<g clip-path="url(#clip0_467_270)">
<rect width="200" height="100" fill="#FFFCF9"/>
<rect x="1" y="1" width="198" height="98" rx="9" stroke="#5E4F94" stroke-width="2"/>
<path d="M46.8167 47.5152C46.6648 47.5152 46.4369 47.4397 46.285 47.3643C45.6773 47.0626 44.9936 46.7609 44.3099 46.4592C43.9301 46.3084 43.7022 46.0067 43.6262 45.6296C43.5503 45.2525 43.7022 44.8754 44.0061 44.5737C44.5378 44.1212 44.9936 43.5932 45.5253 43.0652C45.9052 42.6127 46.6648 42.5373 47.1206 42.9898C47.5764 43.3669 47.6524 44.1212 47.1966 44.5737C47.0446 44.7245 46.8927 44.9508 46.7408 45.1016C46.9687 45.1771 47.1206 45.3279 47.3485 45.4033C47.8802 45.705 48.1081 46.3838 47.8043 46.9118C47.6524 47.3643 47.2725 47.5152 46.8167 47.5152Z" fill="#B2AAD1"/>
<path d="M48.9438 41.406C48.7159 41.406 48.5639 41.3306 48.412 41.2551C47.8803 40.9535 47.6524 40.2747 47.9562 39.7467C48.6399 38.5399 49.2476 37.2578 49.7034 35.9756C49.9313 35.3722 50.539 35.0705 51.1468 35.2968C51.7545 35.5231 52.0583 36.1264 51.8304 36.7298C51.2987 38.1628 50.691 39.5959 49.9313 40.878C49.7034 41.1797 49.3236 41.406 48.9438 41.406ZM26.3063 41.406C25.9265 41.406 25.5467 41.1797 25.3188 40.8026C24.5591 39.445 23.9514 38.0874 23.4197 36.6544C23.1918 36.051 23.5716 35.4476 24.1033 35.2214C24.7111 34.9951 25.3188 35.3722 25.5467 35.9002C26.0025 37.1823 26.6102 38.4645 27.2939 39.6713C27.5977 40.1992 27.3698 40.878 26.8381 41.1797C26.6861 41.3306 26.5342 41.406 26.3063 41.406ZM51.7545 33.185C51.6785 33.185 51.6785 33.185 51.6025 33.185C50.9948 33.1095 50.539 32.5816 50.615 31.9028C50.691 31.2994 50.691 30.696 50.691 30.0927C50.691 29.3384 50.615 28.5842 50.4631 27.83C50.3871 27.2266 50.7669 26.6232 51.3746 26.5478C51.9824 26.4724 52.5901 26.8495 52.666 27.4529C52.818 28.2825 52.8939 29.1876 52.8939 30.0927C52.8939 30.7715 52.818 31.4503 52.742 32.1291C52.818 32.7324 52.2862 33.185 51.7545 33.185ZM23.4956 33.1095C22.9639 33.1095 22.4321 32.657 22.3562 32.1291C22.2802 31.4503 22.2042 30.7715 22.2042 30.0927C22.2042 29.1876 22.2802 28.2825 22.4321 27.4529C22.5081 26.8495 23.1158 26.397 23.7235 26.5478C24.3312 26.6232 24.787 27.2266 24.6351 27.83C24.4832 28.5842 24.4072 29.3384 24.4072 30.0927C24.4072 30.6206 24.4072 31.224 24.4832 31.8274C24.5591 32.4307 24.1033 33.0341 23.4956 33.1095C23.6476 33.1095 23.5716 33.1095 23.4956 33.1095ZM50.2352 24.6623C49.8553 24.6623 49.3996 24.436 49.2476 24.0589C48.6399 22.8521 47.8043 21.7962 46.8168 20.8157C46.361 20.3632 46.361 19.6844 46.8168 19.2319C47.2726 18.7793 47.9562 18.7793 48.412 19.2319C49.5515 20.3632 50.539 21.6454 51.2227 23.003C51.5266 23.5309 51.2987 24.2097 50.7669 24.5114C50.539 24.6623 50.3871 24.6623 50.2352 24.6623ZM25.0909 24.6623C24.9389 24.6623 24.7111 24.5868 24.5591 24.5114C24.0274 24.2097 23.7995 23.5309 24.1033 23.003C24.863 21.6454 25.7746 20.3632 26.914 19.2319C27.3698 18.7793 28.0535 18.7793 28.5093 19.2319C28.9651 19.6844 28.9651 20.3632 28.5093 20.8157C27.5217 21.7962 26.6861 22.8521 26.0784 24.0589C25.8505 24.436 25.4707 24.6623 25.0909 24.6623ZM44.0061 18.6285C43.8541 18.6285 43.6263 18.5531 43.4743 18.4776C42.2589 17.8743 40.9675 17.4217 39.6001 17.2709C38.9924 17.1955 38.5366 16.5921 38.6126 15.9887C38.6885 15.3853 39.2963 14.9328 39.904 15.0082C41.4992 15.2345 43.0185 15.7624 44.3859 16.4412C44.9177 16.7429 45.1455 17.4217 44.9176 17.9497C44.8417 18.4022 44.4619 18.6285 44.0061 18.6285ZM31.244 18.6285C30.8642 18.6285 30.4084 18.4022 30.2565 18.0251C29.9526 17.4972 30.1805 16.8184 30.7882 16.5167C32.2316 15.8379 33.7508 15.3099 35.3461 15.0836C35.9538 15.0082 36.5615 15.3853 36.6375 16.0641C36.7135 16.6675 36.3336 17.2709 35.65 17.3463C34.2826 17.5726 32.9912 17.9497 31.7758 18.5531C31.6238 18.5531 31.4719 18.6285 31.244 18.6285Z" fill="#B2AAD1"/>
<path d="M28.4333 47.5152C28.0534 47.5152 27.5977 47.2889 27.4457 46.9118C27.1419 46.3839 27.3698 45.7051 27.9015 45.4034C28.1294 45.328 28.2813 45.1771 28.5092 45.1017C28.3573 44.9508 28.2054 44.8 28.0534 44.5737C27.6736 44.1212 27.6736 43.367 28.1294 42.9899C28.5852 42.6128 29.3448 42.6128 29.7247 43.0653C30.1805 43.5932 30.7122 44.1212 31.244 44.5737C31.5478 44.8 31.6997 45.2525 31.6238 45.6296C31.5478 46.0068 31.3199 46.3084 30.9401 46.4593C30.2564 46.6856 29.6487 46.9872 28.965 47.3644C28.7371 47.5152 28.5852 47.5152 28.4333 47.5152Z" fill="#B2AAD1"/>
<path d="M57.3758 85H54.1853C53.5776 85 53.0458 84.472 53.0458 83.8686C53.0458 83.2653 53.5776 82.7373 54.1853 82.7373H57.3758C57.6797 82.7373 57.9835 82.6619 58.2114 82.511C58.7432 82.2094 59.4268 82.3602 59.8067 82.8882C60.1105 83.4161 59.9586 84.0949 59.4268 84.472C58.7432 84.7737 58.0595 85 57.3758 85ZM49.3995 85H44.6897C44.082 85 43.5502 84.472 43.5502 83.8686C43.5502 83.2653 44.082 82.7373 44.6897 82.7373H49.3995C50.0072 82.7373 50.539 83.2653 50.539 83.8686C50.539 84.472 50.0072 85 49.3995 85ZM39.9799 85H35.2701C34.6624 85 34.1306 84.472 34.1306 83.8686C34.1306 83.2653 34.6624 82.7373 35.2701 82.7373H39.9799C40.5876 82.7373 41.1194 83.2653 41.1194 83.8686C41.1194 84.472 40.5876 85 39.9799 85ZM30.4843 85H25.7745C25.1668 85 24.6351 84.472 24.6351 83.8686C24.6351 83.2653 25.1668 82.7373 25.7745 82.7373H30.4843C31.092 82.7373 31.6238 83.2653 31.6238 83.8686C31.6238 84.472 31.168 85 30.4843 85ZM21.0647 85H17.8742C17.1146 85 16.4309 84.7737 15.8232 84.3966C15.2914 84.0949 15.1395 83.3407 15.4433 82.8127C15.7472 82.2848 16.5068 82.1339 17.0386 82.4356C17.2665 82.5865 17.5703 82.6619 17.8742 82.6619H21.0647C21.6724 82.6619 22.2042 83.1898 22.2042 83.7932C22.2042 84.3966 21.6724 85 21.0647 85ZM60.1105 80.3992C59.5028 80.3992 58.9711 79.8713 58.9711 79.2679V74.5917C58.9711 73.9883 59.5028 73.4604 60.1105 73.4604C60.7183 73.4604 61.25 73.9883 61.25 74.5917V79.2679C61.25 79.8713 60.7183 80.3992 60.1105 80.3992ZM15.1395 80.3238C14.5318 80.3238 14 79.7958 14 79.1925V74.5163C14 73.9129 14.5318 73.385 15.1395 73.385C15.7472 73.385 16.2789 73.9129 16.2789 74.5163V79.1925C16.2789 79.8713 15.7472 80.3238 15.1395 80.3238ZM60.1105 71.0469C59.5028 71.0469 58.9711 70.5943 58.9711 69.9155C58.9711 68.4071 58.8191 66.8987 58.5153 65.3902C58.4393 64.7868 58.8191 64.1835 59.4268 64.108C60.0346 64.0326 60.6423 64.4097 60.7183 65.0131C61.0221 66.597 61.174 68.2563 61.174 69.8401C61.25 70.5189 60.7942 70.9715 60.1105 71.0469ZM15.1395 70.9715C14.4558 70.9715 14 70.4435 14 69.8401C14.076 68.1808 14.2279 66.597 14.4558 65.0131C14.5318 64.4097 15.1395 63.9572 15.7472 64.108C16.3549 64.1835 16.8107 64.7868 16.6588 65.3902C16.4309 66.8232 16.2789 68.4071 16.203 69.9155C16.2789 70.5189 15.7472 70.9715 15.1395 70.9715ZM58.5153 61.8454C58.0595 61.8454 57.6037 61.5437 57.4518 61.0912C56.996 59.6581 56.3883 58.3005 55.6286 56.9429C55.3248 56.415 55.5527 55.7362 56.0844 55.4345C56.6162 55.1328 57.2998 55.3591 57.6037 55.887C58.3633 57.32 59.047 58.8285 59.5788 60.3369C59.8067 60.9403 59.4268 61.5437 58.8951 61.7699C58.7432 61.7699 58.5912 61.8454 58.5153 61.8454ZM16.8107 61.7699C16.6588 61.7699 16.5828 61.7699 16.4309 61.6945C15.8232 61.4683 15.5193 60.8649 15.7472 60.2615C16.2789 58.6776 16.9626 57.2446 17.7223 55.8116C18.0261 55.2836 18.7098 55.0574 19.2416 55.3591C19.7733 55.6608 20.0012 56.3396 19.6973 56.8675C19.0137 58.1497 18.4059 59.5827 17.8742 61.0157C17.7223 61.4683 17.2665 61.7699 16.8107 61.7699ZM54.0334 53.6244C53.7295 53.6244 53.3497 53.4735 53.1218 53.1718C52.9699 52.9456 52.8179 52.7947 52.666 52.5684C51.8304 51.588 50.9948 50.6829 50.0072 49.9287C49.5514 49.5516 49.4755 48.7973 49.8553 48.3448C50.2351 47.8923 50.9948 47.8168 51.4506 48.194C52.5141 49.099 53.4256 50.0795 54.3372 51.1354C54.4892 51.3617 54.717 51.588 54.869 51.7388C55.2488 52.2668 55.1728 52.9456 54.717 53.3227C54.4892 53.5489 54.2613 53.6244 54.0334 53.6244ZM21.2166 53.5489C20.9887 53.5489 20.6849 53.4735 20.533 53.3227C20.0772 52.9456 19.9252 52.1913 20.381 51.7388C20.533 51.5125 20.6849 51.3617 20.8368 51.1354C21.7484 50.0795 22.7359 49.099 23.7994 48.194C24.2552 47.8168 25.0149 47.8168 25.3947 48.3448C25.7745 48.8728 25.7745 49.5516 25.2428 49.9287C24.3312 50.7583 23.4196 51.6634 22.584 52.5684C22.4321 52.7193 22.2801 52.9456 22.1282 53.0964C21.9003 53.3981 21.5965 53.5489 21.2166 53.5489Z" fill="#B2AAD1"/>
<path d="M182.507 85H142.886C140.752 85 139 83.2688 139 81.1613V70.6989C139 63.3226 141.438 56.3979 145.858 51.2043C148.067 48.6452 150.658 46.6129 153.477 45.1828C149.743 41.2688 147.229 35.3226 147.229 30.2043C147.229 21.8495 154.163 15 162.62 15C171.078 15 178.012 21.8495 178.012 30.2043C178.012 35.3226 175.497 41.2688 171.764 45.1828C174.583 46.6129 177.25 48.6452 179.383 51.2043C183.803 56.3979 186.241 63.3226 186.241 70.6989V81.1613C186.393 83.2688 184.641 85 182.507 85ZM162.697 17.2581C155.458 17.2581 149.591 23.0538 149.591 30.2043C149.591 35.172 152.41 41.2688 156.296 44.6559L157.668 45.8602L155.915 46.5376C152.791 47.7419 149.896 49.8495 147.61 52.6344C143.495 57.4516 141.286 63.8495 141.286 70.6989V81.1613C141.286 82.0645 142.048 82.7419 142.886 82.7419H182.507C183.422 82.7419 184.107 81.9893 184.107 81.1613V70.6989C184.107 63.8495 181.821 57.4516 177.783 52.6344C175.421 49.9247 172.602 47.8172 169.478 46.5376L167.725 45.8602L169.097 44.6559C172.983 41.2688 175.802 35.172 175.802 30.2043C175.802 23.0538 169.935 17.2581 162.697 17.2581Z" fill="#5E4F94"/>
<path d="M130.707 50.7071C131.098 50.3166 131.098 49.6834 130.707 49.2929L124.343 42.9289C123.953 42.5384 123.319 42.5384 122.929 42.9289C122.538 43.3195 122.538 43.9526 122.929 44.3431L128.586 50L122.929 55.6569C122.538 56.0474 122.538 56.6805 122.929 57.0711C123.319 57.4616 123.953 57.4616 124.343 57.0711L130.707 50.7071ZM70 51H71.875V49H70V51ZM75.625 51H79.375V49H75.625V51ZM83.125 51L86.875 51V49L83.125 49V51ZM90.625 51H94.375V49H90.625V51ZM98.125 51H101.875V49H98.125V51ZM105.625 51H109.375V49H105.625V51ZM113.125 51L116.875 51V49H113.125V51ZM120.625 51H124.375V49H120.625V51ZM128.125 51H130V49H128.125V51ZM130.707 50.7071C131.098 50.3166 131.098 49.6834 130.707 49.2929L124.343 42.9289C123.953 42.5384 123.319 42.5384 122.929 42.9289C122.538 43.3195 122.538 43.9526 122.929 44.3431L128.586 50L122.929 55.6569C122.538 56.0474 122.538 56.6805 122.929 57.0711C123.319 57.4616 123.953 57.4616 124.343 57.0711L130.707 50.7071ZM70 51H71.875V49H70V51ZM75.625 51H79.375V49H75.625V51ZM83.125 51L86.875 51V49L83.125 49V51ZM90.625 51H94.375V49H90.625V51ZM98.125 51H101.875V49H98.125V51ZM105.625 51H109.375V49H105.625V51ZM113.125 51L116.875 51V49H113.125V51ZM120.625 51H124.375V49H120.625V51ZM128.125 51H130V49H128.125V51Z" fill="#5E4F94"/>
</g>
<defs>
<clipPath id="clip0_467_270">
<rect width="200" height="100" fill="white"/>
</clipPath>
</defs>
</svg>
