<svg width="200" height="100" viewBox="0 0 200 100" fill="none" xmlns="http://www.w3.org/2000/svg">
<g clip-path="url(#clip0_467_259)">
<rect width="200" height="100" fill="#FFFCF9"/>
<rect x="1" y="1" width="198" height="98" rx="9" stroke="#5E4F94" stroke-width="2"/>
<path opacity="0.2" d="M38.25 43C38.25 45.3472 36.3472 47.25 34 47.25C31.6528 47.25 29.75 45.3472 29.75 43C29.75 40.6528 31.6528 38.75 34 38.75C36.3472 38.75 38.25 40.6528 38.25 43Z" stroke="#5E4F94" stroke-width="1.5"/>
<path opacity="0.2" d="M45.9704 68.3946L45.9745 68.428L45.9815 68.4609L46.2157 69.5589C46.3932 70.3916 45.8609 71.2127 45.02 71.3907L45.0199 71.3907C44.1789 71.5688 43.3559 71.0332 43.1778 70.2005L41.1653 60.7646L39.6818 60.921V71.5888V73.7431V75.0897V87.7285V91.23C39.6818 92.3411 38.7732 93.25 37.6538 93.25C36.5321 93.25 35.6233 92.34 35.6233 91.23V87.7285V75.0897V73.7431V72.9931H34.8733H33.0459H32.2959V73.7431V75.0897V87.7279V91.2294C32.2959 92.3407 31.3877 93.2494 30.2686 93.2494C29.1468 93.2494 28.238 92.3394 28.238 91.2294V87.7279V75.0891V73.7425V71.5882V61.2983L26.7545 61.1419L24.8224 70.2005C24.8224 70.2006 24.8224 70.2006 24.8224 70.2006C24.6443 71.0332 23.8208 71.5688 22.9804 71.3907L22.9802 71.3907C22.1386 71.2126 21.6066 70.391 21.7844 69.5593L21.7845 69.5589L22.0589 68.2718L22.0608 68.263L22.0625 68.2542C22.0661 68.235 22.0687 68.2175 22.0705 68.2023L25.4297 52.4538L25.4299 52.4528C25.4763 52.2338 25.5748 52.0317 25.7147 51.8476L25.739 51.8156L25.7598 51.7812C25.8219 51.6782 26.0245 51.4826 26.4981 51.2551C26.9493 51.0384 27.5621 50.8326 28.3162 50.6557C29.8218 50.3025 31.8073 50.0834 34.0004 50.0834C35.833 50.0834 37.5248 50.2363 38.9139 50.4937C40.3131 50.753 41.3324 51.1054 41.8903 51.464L41.8977 51.4699C41.9087 51.4785 41.9258 51.4916 41.9468 51.5062L41.9492 51.5078C42.0301 51.5635 42.0897 51.6113 42.1322 51.6512L42.1346 51.6535C42.1351 51.654 42.1357 51.6547 42.1363 51.6553L42.1446 51.6645L42.1568 51.6781C42.1645 51.6865 42.1749 51.698 42.187 51.7107L42.1972 51.7218L42.2107 51.7365L42.2305 51.7584C42.2351 51.7637 42.2378 51.7669 42.239 51.7684L42.2509 51.785L42.2665 51.8039C42.4275 52.0001 42.5394 52.2167 42.59 52.4538L42.59 52.4538L45.9556 68.2325C45.956 68.2355 45.9568 68.2428 45.9579 68.2566L45.9597 68.2798L45.9621 68.3105C45.9639 68.3329 45.9665 68.3622 45.9704 68.3946ZM22.0585 68.2578L22.0595 68.2536C22.0592 68.255 22.0588 68.2564 22.0585 68.2578ZM41.8772 51.4536L41.8773 51.4537C41.8759 51.4526 41.8757 51.4524 41.8772 51.4536Z" stroke="#5E4F94" stroke-width="1.5"/>
<path d="M169.25 9C169.25 11.3472 167.347 13.25 165 13.25C162.653 13.25 160.75 11.3472 160.75 9C160.75 6.65279 162.653 4.75 165 4.75C167.347 4.75 169.25 6.65279 169.25 9Z" stroke="#5E4F94" stroke-width="1.5"/>
<path d="M176.97 34.3946L176.974 34.428L176.981 34.4609L177.216 35.5589C177.393 36.3916 176.861 37.2127 176.02 37.3907L176.02 37.3907C175.179 37.5688 174.356 37.0332 174.178 36.2005L172.165 26.7646L170.682 26.921V37.5888V39.7431V41.0897V53.7285V57.23C170.682 58.3411 169.773 59.25 168.654 59.25C167.532 59.25 166.623 58.34 166.623 57.23V53.7285V41.0897V39.7431V38.9931H165.873H164.046H163.296V39.7431V41.0897V53.7279V57.2294C163.296 58.3407 162.388 59.2494 161.269 59.2494C160.147 59.2494 159.238 58.3394 159.238 57.2294V53.7279V41.0891V39.7425V37.5882V27.2983L157.755 27.1419L155.822 36.2005C155.822 36.2006 155.822 36.2006 155.822 36.2006C155.644 37.0332 154.821 37.5688 153.98 37.3907L153.98 37.3907C153.139 37.2126 152.607 36.391 152.784 35.5593L152.785 35.5589L153.059 34.2718L153.061 34.263L153.062 34.2542C153.066 34.235 153.069 34.2175 153.071 34.2023L156.43 18.4538L156.43 18.4528C156.476 18.2338 156.575 18.0317 156.715 17.8476L156.739 17.8156L156.76 17.7812C156.822 17.6782 157.025 17.4826 157.498 17.2551C157.949 17.0384 158.562 16.8326 159.316 16.6557C160.822 16.3025 162.807 16.0834 165 16.0834C166.833 16.0834 168.525 16.2363 169.914 16.4937C171.313 16.753 172.332 17.1054 172.89 17.464L172.898 17.4699C172.909 17.4785 172.926 17.4916 172.947 17.5062L172.949 17.5078C173.03 17.5635 173.09 17.6113 173.132 17.6512L173.135 17.6535C173.135 17.654 173.136 17.6547 173.136 17.6553L173.145 17.6645L173.157 17.6781C173.164 17.6865 173.175 17.698 173.187 17.7107L173.197 17.7218L173.211 17.7365L173.23 17.7584C173.235 17.7637 173.238 17.7669 173.239 17.7684L173.251 17.785L173.266 17.8039C173.427 18.0001 173.539 18.2167 173.59 18.4538L173.59 18.4538L176.956 34.2325C176.956 34.2355 176.957 34.2428 176.958 34.2566L176.96 34.2798L176.962 34.3105C176.964 34.3329 176.967 34.3622 176.97 34.3946ZM153.058 34.2578L153.059 34.2536C153.059 34.255 153.059 34.2564 153.058 34.2578ZM172.877 17.4536L172.877 17.4537C172.876 17.4526 172.876 17.4524 172.877 17.4536Z" stroke="#5E4F94" stroke-width="1.5"/>
<path d="M146.805 23.4124C147.323 23.2227 147.59 22.6485 147.4 22.1298L144.31 13.677C144.121 13.1583 143.546 12.8915 143.028 13.0811C142.509 13.2708 142.242 13.845 142.432 14.3637L145.179 21.8773L137.665 24.6242C137.146 24.8139 136.88 25.3881 137.069 25.9068C137.259 26.4255 137.833 26.6923 138.352 26.5026L146.805 23.4124ZM52.591 77.8751C52.1697 78.782 52.1705 78.7824 52.1713 78.7828C52.1718 78.783 52.1728 78.7834 52.1736 78.7838C52.1753 78.7846 52.1775 78.7856 52.18 78.7868C52.1851 78.7891 52.1919 78.7922 52.2003 78.796C52.2171 78.8036 52.2406 78.814 52.2704 78.827C52.3302 78.853 52.4158 78.8894 52.5261 78.9342C52.7468 79.0236 53.0667 79.1465 53.4774 79.2866C54.2984 79.5667 55.4839 79.9161 56.9653 80.204C59.9269 80.7794 64.0833 81.1108 68.8743 80.1393C78.5106 78.1852 90.4731 71.0131 100.425 50.6126L98.6274 49.7357C88.8911 69.6942 77.386 76.3726 68.4768 78.1792C63.995 79.088 60.1091 78.7774 57.3467 78.2407C55.966 77.9724 54.8691 77.6482 54.1231 77.3938C53.7503 77.2666 53.4656 77.1569 53.2775 77.0807C53.1835 77.0426 53.1137 77.0128 53.0691 76.9934C53.0469 76.9837 53.0309 76.9766 53.0214 76.9723C53.0166 76.9702 53.0135 76.9687 53.012 76.968C53.0112 76.9677 53.0109 76.9675 53.0109 76.9676C53.011 76.9676 53.0113 76.9677 53.0113 76.9677C53.0118 76.9679 53.0123 76.9682 52.591 77.8751ZM100.425 50.6126C110.161 30.6541 121.666 23.9757 130.575 22.1691C135.057 21.2602 138.943 21.5709 141.706 22.1076C143.086 22.3758 144.183 22.7 144.929 22.9545C145.302 23.0817 145.587 23.1913 145.775 23.2676C145.869 23.3057 145.939 23.3355 145.983 23.3549C146.005 23.3646 146.021 23.3717 146.031 23.376C146.036 23.3781 146.039 23.3795 146.04 23.3802C146.041 23.3806 146.041 23.3807 146.041 23.3807C146.041 23.3807 146.041 23.3805 146.041 23.3805C146.041 23.3803 146.04 23.3801 146.461 22.4731C146.883 21.5662 146.882 21.5659 146.881 21.5655C146.881 21.5653 146.88 21.5648 146.879 21.5644C146.877 21.5636 146.875 21.5627 146.872 21.5615C146.867 21.5592 146.86 21.5561 146.852 21.5523C146.835 21.5447 146.812 21.5343 146.782 21.5213C146.722 21.4952 146.637 21.4589 146.526 21.4141C146.306 21.3246 145.986 21.2017 145.575 21.0616C144.754 20.7815 143.568 20.4321 142.087 20.1443C139.125 19.5689 134.969 19.2374 130.178 20.209C120.542 22.1631 108.579 29.3352 98.6274 49.7357L100.425 50.6126Z" fill="#5E4F94"/>
</g>
<defs>
<clipPath id="clip0_467_259">
<rect width="200" height="100" fill="white"/>
</clipPath>
</defs>
</svg>
