<svg width="200" height="100" viewBox="0 0 200 100" fill="none" xmlns="http://www.w3.org/2000/svg">
<g clip-path="url(#clip0_475_2)">
<rect width="200" height="100" fill="#FFFCF9"/>
<rect x="1" y="1" width="198" height="98" rx="9" stroke="#5E4F94" stroke-width="2"/>
<path d="M60 42C60 46.4729 56.5891 50 52.5 50C48.4109 50 45 46.4729 45 42C45 37.5271 48.4109 34 52.5 34C56.5891 34 60 37.5271 60 42Z" stroke="#5E4F94" stroke-width="2"/>
<path d="M74.4977 87.1442L74.4922 87.0993C74.4859 87.0477 74.4816 87.0002 74.4785 86.962L74.4743 86.9084L74.4709 86.865C74.4668 86.8156 74.464 86.7968 74.4626 86.7895C74.4624 86.7887 74.4623 86.7881 74.4622 86.7876L68.3764 58.5191L68.3764 58.5191C68.2721 58.0345 68.0422 57.5982 67.7211 57.2106L67.7003 57.1854L67.6811 57.1589L67.681 57.1589C67.6807 57.1584 67.6784 57.1553 67.6732 57.149C67.6674 57.1419 67.6594 57.1326 67.6482 57.12C67.6292 57.0986 67.6109 57.0789 67.5853 57.0512C67.5782 57.0436 67.5706 57.0355 67.5623 57.0265C67.5426 57.0059 67.5253 56.9871 67.5118 56.9724L67.4903 56.9488L67.4743 56.9312C67.4661 56.9223 67.4613 56.9173 67.4592 56.915L67.4558 56.912L67.4476 56.9044C67.3542 56.8174 67.2312 56.7208 67.075 56.6142L67.0719 56.6121C67.0415 56.5911 67.0163 56.572 66.9992 56.5588L66.9774 56.5417L66.9742 56.5392C65.9087 55.8554 64.0045 55.2102 61.4493 54.741C58.9133 54.2753 55.8325 54 52.5008 54C48.5145 54 44.8967 54.3944 42.1423 55.0346C40.7632 55.3552 39.6285 55.731 38.7816 56.134C37.9043 56.5516 37.4626 56.9391 37.2975 57.2104L37.2695 57.2563L37.2368 57.299C36.957 57.6637 36.755 58.071 36.6595 58.5177L36.6592 58.5191L30.5835 86.7408C30.5808 86.7648 30.5768 86.7938 30.5707 86.8262L30.5684 86.8381L30.5659 86.8499L30.0698 89.1552L30.0697 89.1557C29.71 90.8228 30.785 92.4807 32.5041 92.841L32.5044 92.8411C34.2235 93.202 35.8969 92.1155 36.258 90.4445L74.4977 87.1442ZM74.4977 87.1442L74.5072 87.1885M74.4977 87.1442L74.5072 87.1885M74.5072 87.1885L74.9306 89.1551C75.2896 90.8239 74.2141 92.4808 72.4962 92.8411L72.4961 92.8411M74.5072 87.1885L72.4961 92.8411M72.4961 92.8411C70.7759 93.202 69.1035 92.1155 68.7424 90.4445L72.4961 92.8411ZM39.7508 74.2193L36.2581 90.4439H68.7423L65.1043 73.5435L63.1267 73.7539V92.8605V96.719V99.1307V121.767V128.039C63.1267 130.211 61.3327 132 59.1049 132C56.8731 132 55.0786 130.209 55.0786 128.039V121.767V99.1307V96.719V95.719H54.0786H50.7754H49.7754V96.719V99.1307V121.766V128.038C49.7754 130.21 47.9822 131.999 45.7547 131.999C43.5229 131.999 41.7284 130.208 41.7284 128.038V121.766V99.1296V96.7179V92.8594V74.4297L39.7508 74.2193Z" stroke="#5E4F94" stroke-width="2"/>
<path d="M37.5065 43.8385C37.2934 43.8385 37.0811 43.7652 36.9143 43.6216L28.3271 36.2334L27.1451 38.8701C27.0154 39.1581 26.7382 39.3573 26.4201 39.3905C26.1012 39.4283 25.7831 39.2863 25.5955 39.0299L23.1333 35.649C22.9758 35.6343 22.8175 35.6181 22.6592 35.5988L19.1169 38.2277C18.8551 38.4238 18.5031 38.4632 18.1989 38.3258C17.9047 38.193 17.7055 37.9127 17.6792 37.5946L17.4067 34.0214C15.3668 33.02 13.6227 31.6256 12.3302 29.961L7.0074 29.7378C6.64993 29.7224 6.33646 29.5016 6.20829 29.175C6.08244 28.8553 6.1581 28.4894 6.40131 28.2431L9.97455 24.6644C9.92127 24.3672 9.88112 24.0823 9.85333 23.8051L6.48547 22.0995C6.16814 21.9389 5.97744 21.6077 6.00214 21.256C6.02685 20.9028 6.26234 20.5994 6.60283 20.4832L10.4007 19.1996C10.874 17.7967 11.6013 16.4984 12.5703 15.3217L11.0539 10.5772C10.9528 10.2611 11.0385 9.9202 11.2771 9.68742C11.5187 9.45038 11.8862 9.36893 12.2097 9.48088L17.7333 11.4022C18.3147 11.1328 18.9061 10.8984 19.4998 10.7027L20.5846 6.65657C20.6634 6.35507 20.9066 6.11341 21.217 6.0308C21.5343 5.94664 21.8717 6.03774 22.0995 6.27014L25.6202 9.86731C26.7837 9.91287 27.9372 10.0738 29.056 10.3468L33.7518 7.74059C34.0468 7.57691 34.4073 7.58772 34.6907 7.7734C34.9656 7.95253 35.1177 8.26445 35.0883 8.58757L34.7054 12.9294C35.086 13.2043 35.4419 13.4865 35.7701 13.7737L42.0549 13.2908C42.3977 13.2618 42.7459 13.4429 42.915 13.7498C43.0795 14.0482 43.0532 14.418 42.8486 14.6917L39.456 19.2482C39.5155 19.4146 39.5719 19.5825 39.6197 19.7539C39.8915 20.7167 40.0289 21.7286 40.0297 22.7655L43.6145 25.2138C43.9079 25.4137 44.0523 25.765 43.9828 26.1086C43.9125 26.4564 43.6392 26.7278 43.2864 26.8004L38.9094 27.7072C38.8638 27.8022 38.816 27.8964 38.7673 27.9902L41.1508 32.7166C41.3044 33.013 41.272 33.3697 41.0628 33.6407C40.8512 33.9156 40.4914 34.0445 40.1478 33.9673L35.6311 32.9914L38.372 42.7213C38.4755 43.0981 38.3234 43.4888 37.9937 43.698C37.8455 43.7922 37.6756 43.8385 37.5065 43.8385ZM28.0785 34.2252C28.2947 34.2252 28.5063 34.3017 28.6707 34.4429L36.2287 40.9455L33.7943 32.3027C33.7101 32.0093 33.7858 31.6966 33.9989 31.4696C34.2151 31.2388 34.5432 31.1384 34.8544 31.2056L39.0785 32.119L37.0031 28.0049L37.1977 27.5698C37.3536 27.2891 37.4934 27.0158 37.6177 26.7367C37.7335 26.4761 37.9721 26.2862 38.2554 26.2283L41.3554 25.5855L38.826 23.858C38.5774 23.6889 38.4346 23.4102 38.4423 23.1121C38.4755 22.0961 38.3597 21.1113 38.0972 20.1817C38.03 19.9415 37.9427 19.7111 37.857 19.481L37.6748 18.9934L40.6597 14.984L35.6041 15.3723C35.3501 15.3901 35.0991 15.3044 34.9146 15.1299C34.4977 14.7473 34.0097 14.3632 33.4739 13.9968C33.2168 13.8239 33.0685 13.5197 33.0932 13.2062L33.399 9.74532L29.5895 11.8593C29.3864 11.9728 29.1463 12.0021 28.9178 11.9431C27.7496 11.6377 26.5343 11.4682 25.3059 11.4393C25.0643 11.4331 24.8342 11.3312 24.6721 11.1594L21.8007 8.22546L20.9266 11.4848C20.8386 11.7898 20.6132 12.0149 20.3198 12.1014C19.601 12.3191 18.8752 12.6036 18.168 12.946C17.9541 13.0499 17.7009 13.0653 17.4739 12.9862L12.9849 11.425L14.3353 15.6483L14.0172 16.0606C12.9842 17.2404 12.2368 18.5699 11.8021 20.0068C11.728 20.2701 11.5149 20.4924 11.2361 20.5862L8.69442 21.4456L10.9173 22.5713C11.1999 22.7164 11.3836 22.9979 11.3998 23.3075C11.4245 23.7425 11.4894 24.207 11.5967 24.7227L11.6855 25.1458L11.3527 25.5222L8.65427 28.2241L12.7124 28.394C12.9888 28.4037 13.2482 28.5411 13.408 28.7635C14.6287 30.4258 16.3698 31.8101 18.439 32.7613C18.7324 32.8964 18.9285 33.1759 18.9524 33.4902L19.1609 36.2257L21.9381 34.165C22.1211 34.0245 22.3705 33.9658 22.6121 33.9974C22.9256 34.0422 23.2483 34.0739 23.5726 34.1001C23.8459 34.1264 24.083 34.2623 24.2327 34.4731L26.183 37.1507L27.2586 34.751C27.3728 34.4962 27.6052 34.3086 27.8809 34.2468C27.9465 34.2329 28.0129 34.2252 28.0785 34.2252ZM18.1757 36.9576C18.1757 36.9576 18.1741 36.9592 18.1726 36.96L18.1757 36.9576ZM22.8901 35.4274L22.8731 35.4397C22.8785 35.4359 22.8847 35.4312 22.8901 35.4274ZM22.9488 35.3965C22.9518 35.4003 22.9549 35.405 22.9588 35.4096L22.9488 35.3965ZM39.7363 33.423C39.7386 33.4269 39.7409 33.4315 39.7425 33.4354L39.7363 33.423ZM40.4791 32.4216L40.4868 32.4232C40.4845 32.4224 40.4814 32.4224 40.4791 32.4216ZM35.3153 31.8696L35.3176 31.8765C35.3169 31.8742 35.3161 31.8719 35.3153 31.8696ZM35.4867 13.7953C35.4836 13.7957 35.4813 13.7957 35.4782 13.7961L35.4867 13.7953ZM28.8244 10.4753C28.8228 10.4765 28.8205 10.4773 28.819 10.4784L28.8244 10.4753ZM25.7962 10.0476L25.8132 10.0642C25.8078 10.0588 25.8024 10.053 25.7962 10.0476ZM33.5133 8.44551C33.5133 8.44744 33.5133 8.44937 33.5125 8.4513L33.5133 8.44551ZM22.1134 7.06192L22.111 7.07003C22.1118 7.06733 22.1126 7.06462 22.1134 7.06192Z" fill="#5E4F94"/>
<g opacity="0.3">
<path d="M84.5975 60.2125L79.2282 65.5956V61.2215C79.2282 60.4362 78.5948 59.7986 77.8062 59.7986H77V36H113V59.7986H85.6025C85.2372 59.7986 84.8708 59.9386 84.5977 60.2123L84.5975 60.2125ZM113.31 59.7986H113.305C113.307 59.7986 113.308 59.7986 113.31 59.7986ZM85.6025 60.7986H113.305C113.687 60.8004 114 60.4889 114 60.1043V35.6961C114 35.3115 113.687 35 113.305 35H76.6947C76.3109 35 76 35.3132 76 35.6961V60.1025C76 60.4871 76.3126 60.7986 76.6947 60.7986H77.8062C78.0407 60.7986 78.2282 60.9866 78.2282 61.2215V66.3325C78.2282 66.6144 78.3984 66.8685 78.6572 66.9746C78.7441 67.0112 78.8344 67.0286 78.9229 67.0286C79.1036 67.0286 79.2807 66.9572 79.4144 66.825L85.3055 60.9187C85.3819 60.8421 85.4896 60.7986 85.6025 60.7986Z" fill="#FFFCF9" stroke="#5E4F94" stroke-width="2"/>
<path d="M106.27 42.8808H101.902C101.603 42.8808 101.357 42.635 101.357 42.3348C101.357 42.0342 101.601 41.7887 101.902 41.7887H106.27C106.569 41.7887 106.815 42.0345 106.815 42.3348C106.815 42.6353 106.57 42.8808 106.27 42.8808Z" fill="#5E4F94" stroke="#FFFCF9" stroke-width="0.3"/>
<path d="M83.6173 46.8437H86.7382C87.0387 46.8437 87.2829 47.0893 87.2829 47.3898C87.2829 47.6903 87.0387 47.9359 86.7382 47.9359H83.6173C83.3183 47.9359 83.0726 47.6901 83.0726 47.3898C83.0726 47.0893 83.3169 46.8437 83.6173 46.8437Z" fill="#5E4F94" stroke="#FFFCF9" stroke-width="0.3"/>
<path d="M90.3856 46.7291H106.273C106.573 46.7291 106.816 46.9742 106.816 47.2752C106.816 47.5757 106.572 47.8213 106.272 47.8213H90.3856C90.0866 47.8213 89.8409 47.5755 89.8409 47.2752C89.8409 46.9747 90.0851 46.7291 90.3856 46.7291Z" fill="#5E4F94" stroke="#FFFCF9" stroke-width="0.3"/>
<path d="M98.225 42.8858H83.6086C83.3081 42.8858 83.0639 42.6403 83.0639 42.3398C83.0639 42.0392 83.3081 41.7937 83.6086 41.7937H98.225C98.524 41.7937 98.7697 42.0395 98.7697 42.3398C98.7697 42.6403 98.5255 42.8858 98.225 42.8858Z" fill="#5E4F94" stroke="#FFFCF9" stroke-width="0.3"/>
<path d="M106.049 53.0764H101.681C101.382 53.0764 101.136 52.8306 101.136 52.5303C101.136 52.2298 101.381 51.9842 101.681 51.9842H106.049C106.348 51.9842 106.594 52.23 106.594 52.5303C106.594 52.8308 106.349 53.0764 106.049 53.0764Z" fill="#5E4F94" stroke="#FFFCF9" stroke-width="0.3"/>
<path d="M98.0041 53.0815H83.3876C83.0872 53.0815 82.8429 52.836 82.8429 52.5354C82.8429 52.2349 83.0872 51.9894 83.3876 51.9894H98.0041C98.303 51.9894 98.5488 52.2352 98.5488 52.5354C98.5488 52.836 98.3045 53.0815 98.0041 53.0815Z" fill="#5E4F94" stroke="#FFFCF9" stroke-width="0.3"/>
</g>
<g opacity="0.65">
<path d="M87.238 66.3522C87.2354 66.3546 87.2333 66.3559 87.2319 66.3565L87.2267 66.3544C87.2266 66.3543 87.2265 66.3541 87.2264 66.354C87.2254 66.3525 87.2251 66.3512 87.2251 66.3497V58.9522C87.2251 58.0617 86.5078 57.3401 85.6143 57.3401H84.0055C84.0053 57.3401 84.0052 57.3401 84.0051 57.3401C84.0049 57.34 84.0048 57.3399 84.0046 57.3398L84.0026 57.3381C84.0009 57.3364 84.0003 57.3351 84.0001 57.3348L84.0001 57.3348L84.0001 57.3344L84 57.3326V22.0075L84.0001 22.006L84.0001 22.0056L84.0001 22.0055L84.0002 22.0054C84.0004 22.0049 84.0012 22.0034 84.0028 22.0017C84.0037 22.0008 84.0045 22.0003 84.0049 22C84.0051 22 84.0053 22 84.0055 22H136.995C136.995 22 136.995 22 136.995 22C136.995 22.0001 136.995 22.0002 136.995 22.0003L136.997 22.002C136.999 22.0037 137 22.005 137 22.0053L137 22.0053L137 22.0057L137 22.0075V57.3351L137 57.3369L137 57.3372L137 57.3373C137 57.3375 136.999 57.3385 136.998 57.3397C136.998 57.3398 136.998 57.34 136.998 57.3401H136.995H96.8983C96.4825 57.3401 96.068 57.4996 95.7606 57.8075L95.7604 57.8077L87.2388 66.3514C87.2385 66.3517 87.2383 66.3519 87.238 66.3522ZM96.8983 58.3401H136.995L96.4685 58.5139C96.5791 58.4031 96.7349 58.3401 96.8983 58.3401Z" fill="#FFFCF9" stroke="#5E4F94" stroke-width="2"/>
<path d="M126.812 32.5149H120.49C120.02 32.5149 119.634 32.129 119.634 31.6574C119.634 31.1856 120.017 30.7999 120.49 30.7999H126.812C127.281 30.7999 127.667 31.1858 127.667 31.6574C127.667 32.1292 127.284 32.5149 126.812 32.5149Z" fill="#5E4F94" stroke="#FFFCF9" stroke-width="0.3"/>
<path d="M94.025 38.1166H98.5422C99.0143 38.1166 99.3976 38.5022 99.3976 38.974C99.3976 39.4458 99.0143 39.8315 98.5422 39.8315H94.025C93.5551 39.8315 93.1695 39.4456 93.1695 38.974C93.1695 38.5022 93.5529 38.1166 94.025 38.1166Z" fill="#5E4F94" stroke="#FFFCF9" stroke-width="0.3"/>
<path d="M103.821 37.9505H126.817C127.288 37.9505 127.67 38.3357 127.67 38.808C127.67 39.2798 127.286 39.6655 126.814 39.6655H103.821C103.351 39.6655 102.966 39.2796 102.966 38.808C102.966 38.3362 103.349 37.9505 103.821 37.9505Z" fill="#5E4F94" stroke="#FFFCF9" stroke-width="0.3"/>
<path d="M115.168 32.5222H94.0124C93.5403 32.5222 93.157 32.1365 93.157 31.6647C93.157 31.1929 93.5403 30.8072 94.0124 30.8072H115.168C115.638 30.8072 116.023 31.1932 116.023 31.6647C116.023 32.1365 115.64 32.5222 115.168 32.5222Z" fill="#5E4F94" stroke="#FFFCF9" stroke-width="0.3"/>
<path d="M126.492 47.2717H120.17C119.7 47.2717 119.314 46.8858 119.314 46.4142C119.314 45.9424 119.698 45.5567 120.17 45.5567H126.492C126.962 45.5567 127.347 45.9427 127.347 46.4142C127.347 46.886 126.964 47.2717 126.492 47.2717Z" fill="#5E4F94" stroke="#FFFCF9" stroke-width="0.3"/>
<path d="M114.848 47.279H93.6926C93.2205 47.279 92.8371 46.8934 92.8371 46.4216C92.8371 45.9497 93.2205 45.5641 93.6926 45.5641H114.848C115.318 45.5641 115.703 45.95 115.703 46.4216C115.703 46.8934 115.32 47.279 114.848 47.279Z" fill="#5E4F94" stroke="#FFFCF9" stroke-width="0.3"/>
</g>
<path d="M96.2828 65.9789L96.2828 65.9789L96.2744 65.9754C96.1752 65.9347 96.1047 65.8337 96.1047 65.7177V56.3027C96.1047 55.3196 95.3133 54.5238 94.3272 54.5238H92.2797C92.1284 54.5238 92 54.3979 92 54.2415V9.28226C92 9.12579 92.1285 9 92.2797 9H159.72C159.872 9 160 9.12584 160 9.28226V54.2447C160 54.402 159.872 54.5245 159.725 54.5238H159.72H108.689C108.228 54.5238 107.771 54.7004 107.434 55.0386L107.434 55.0388L96.5866 65.9139C96.5861 65.9144 96.5856 65.9149 96.585 65.9154C96.526 65.9731 96.4529 66 96.3844 66C96.3525 66 96.3182 65.9938 96.2828 65.9789ZM108.689 55.5238H159.72L108.142 55.745C108.282 55.6039 108.481 55.5238 108.689 55.5238Z" fill="#FFFCF9" stroke="#5E4F94" stroke-width="2"/>
<path d="M146.76 22.6963H138.714C138.093 22.6963 137.584 22.1867 137.584 21.564C137.584 20.9411 138.09 20.4317 138.714 20.4317H146.76C147.381 20.4317 147.89 20.9413 147.89 21.564C147.89 22.1869 147.384 22.6963 146.76 22.6963Z" fill="#5E4F94" stroke="#FFFCF9" stroke-width="0.3"/>
<path d="M105.032 29.7439H110.781C111.405 29.7439 111.911 30.2532 111.911 30.8761C111.911 31.4991 111.405 32.0084 110.781 32.0084H105.032C104.411 32.0084 103.902 31.4988 103.902 30.8761C103.902 30.2532 104.408 29.7439 105.032 29.7439Z" fill="#5E4F94" stroke="#FFFCF9" stroke-width="0.3"/>
<path d="M117.5 29.5326H146.767C147.39 29.5326 147.893 30.0414 147.893 30.6648C147.893 31.2878 147.387 31.7971 146.763 31.7971H117.5C116.879 31.7971 116.37 31.2875 116.37 30.6648C116.37 30.0419 116.876 29.5326 117.5 29.5326Z" fill="#5E4F94" stroke="#FFFCF9" stroke-width="0.3"/>
<path d="M131.941 22.7055H105.016C104.392 22.7055 103.886 22.1962 103.886 21.5733C103.886 20.9503 104.392 20.441 105.016 20.441H131.941C132.562 20.441 133.071 20.9506 133.071 21.5733C133.071 22.1962 132.565 22.7055 131.941 22.7055Z" fill="#5E4F94" stroke="#FFFCF9" stroke-width="0.3"/>
<path d="M146.353 41.4776H138.307C137.686 41.4776 137.177 40.9681 137.177 40.3454C137.177 39.7224 137.683 39.2131 138.307 39.2131H146.353C146.974 39.2131 147.483 39.7227 147.483 40.3454C147.483 40.9683 146.977 41.4776 146.353 41.4776Z" fill="#5E4F94" stroke="#FFFCF9" stroke-width="0.3"/>
<path d="M131.534 41.487H104.609C103.985 41.487 103.479 40.9777 103.479 40.3548C103.479 39.7318 103.985 39.2225 104.609 39.2225H131.534C132.155 39.2225 132.664 39.7321 132.664 40.3548C132.664 40.9777 132.158 41.487 131.534 41.487Z" fill="#5E4F94" stroke="#FFFCF9" stroke-width="0.3"/>
</g>
<defs>
<clipPath id="clip0_475_2">
<rect width="200" height="100" fill="white"/>
</clipPath>
</defs>
</svg>
