<svg width="200" height="100" viewBox="0 0 200 100" fill="none" xmlns="http://www.w3.org/2000/svg">
<g clip-path="url(#clip0_475_89)">
<rect width="200" height="100" fill="#FFFCF9"/>
<rect x="1" y="1" width="198" height="98" rx="9" stroke="#5E4F94" stroke-width="2"/>
<path d="M51 86C70.8823 86 87 69.8823 87 50C87 30.1177 70.8823 14 51 14C31.1177 14 15 30.1177 15 50C15 69.8823 31.1177 86 51 86Z" stroke="#5E4F94" stroke-width="4"/>
<path d="M30.7143 40.8572C30.7143 40.8572 33.8475 45.4286 37.3029 45.4286C40.7584 45.4286 44.4286 40.8572 44.4286 40.8572" stroke="#5E4F94" stroke-width="4"/>
<path d="M57.5714 40.8572C57.5714 40.8572 60.7046 45.4286 64.1601 45.4286C67.6155 45.4286 71.2857 40.8572 71.2857 40.8572" stroke="#5E4F94" stroke-width="4"/>
<path fill-rule="evenodd" clip-rule="evenodd" d="M38 60C38 62.7565 40.2487 65 43.0185 65H52V73.4607C52 75.1278 53.3424 76.4736 55 76.4736C56.6656 76.4736 58 75.1314 58 73.4607V65H59C61.7628 65 64 62.7622 64 60C64 57.2431 61.7562 55 58.9933 55H43.0067C40.2385 55 38 57.2371 38 60Z" stroke="#5E4F94" stroke-width="4"/>
<path d="M117.737 61.4982L110.8 62.9652L114.481 51.0095L114.791 50.0042L113.816 50.3989L102.695 54.9009L102.233 55.088L102.418 55.5506L103.479 58.1937L103.665 58.6597L104.131 58.4708L108.733 56.602L105.448 67.2694L105.198 68.0816L106.03 67.9057L118.532 65.2604L119.021 65.157L118.918 64.668L118.33 61.8841L118.227 61.3947L117.737 61.4982Z" fill="#5E4F94" stroke="#5E4F94"/>
<path d="M138.927 55.3035L130.42 55.3385L138.874 39.4737L139.49 38.318L138.26 38.7692L122.369 44.601L121.901 44.7729L122.072 45.2418L123.399 48.8782L123.571 49.3486L124.041 49.1762L129.178 47.2927L122.659 59.5058L122.265 60.2442L123.102 60.2413L138.946 60.1865L139.446 60.1848L139.444 59.6846L139.429 55.8015L139.427 55.3014L138.927 55.3035Z" fill="#5E4F94" stroke="#5E4F94"/>
<path d="M149.508 34.0078C150.908 34.7833 152.671 35.7715 154.553 36.8302L140.982 46.1941L140.299 46.666L141.036 47.0493L157.236 55.4731L157.68 55.704L157.91 55.2599L160.054 51.1303L160.284 50.6866L159.84 50.4562L151.219 45.9791L164.478 36.8048L165.135 36.3506L164.439 35.9582L161.193 34.1266C161.193 34.1263 161.192 34.126 161.192 34.1257C159.056 32.9019 156.156 31.2507 153.664 29.8583C152.418 29.1621 151.273 28.5296 150.374 28.0473C149.494 27.5744 148.812 27.2238 148.521 27.1154L148.049 26.9395L147.877 27.4127L146.282 31.7894L146.121 32.2318L146.553 32.4192C146.834 32.5413 147.92 33.128 149.508 34.0078Z" fill="#5E4F94" stroke="#5E4F94"/>
<path d="M190.247 35.81L190.953 35.4492L190.324 34.9676L174.911 23.1812L174.514 22.8773L174.21 23.2748L171.071 27.3841L170.767 27.7812L171.165 28.0848L179.427 34.4019L166.876 40.827L166.275 41.1344L166.744 41.6195L177.986 53.2543L178.333 53.6136L178.693 53.2667L182.415 49.6751L182.775 49.3276L182.427 48.9677L176.499 42.8373L190.247 35.81Z" fill="#5E4F94" stroke="#5E4F94"/>
<path d="M93.5565 72.0037L93.2405 71.6162L92.853 71.9322L90.684 73.701L90.2965 74.017L90.6125 74.4045L92.4127 76.612L92.7287 76.9995L93.1162 76.6835L95.2852 74.9147L95.6727 74.5988L95.3567 74.2113L93.5565 72.0037Z" fill="#5E4F94" stroke="#5E4F94"/>
<path d="M100.286 66.2959L99.989 65.8935L99.5866 66.1904L96.6137 68.3835L96.2114 68.6804L96.5082 69.0827L98.502 71.7854L98.7988 72.1877L99.2012 71.8909L102.174 69.6977L102.576 69.4009L102.28 68.9985L100.286 66.2959Z" fill="#5E4F94" stroke="#5E4F94"/>
</g>
<defs>
<clipPath id="clip0_475_89">
<rect width="200" height="100" fill="white"/>
</clipPath>
</defs>
</svg>
