<svg width="32" height="32" viewBox="0 0 32 32" fill="none" xmlns="http://www.w3.org/2000/svg">
<path d="M8.92883 3.28406C8.55389 3.65911 8.34326 4.16773 8.34326 4.69806C8.34326 5.22839 8.55389 5.737 8.92883 6.11206L18.8288 16.0121L8.92883 25.9121C8.56452 26.2893 8.36293 26.7945 8.36749 27.3189C8.37204 27.8433 8.58238 28.3449 8.9532 28.7157C9.32401 29.0865 9.82564 29.2969 10.35 29.3014C10.8744 29.306 11.3796 29.1044 11.7568 28.7401L23.0708 17.4261C23.4458 17.051 23.6564 16.5424 23.6564 16.0121C23.6564 15.4817 23.4458 14.9731 23.0708 14.5981L11.7568 3.28406C11.3818 2.90912 10.8732 2.69849 10.3428 2.69849C9.81251 2.69849 9.30389 2.90912 8.92883 3.28406Z" fill="#606266"/>
</svg>
