<svg width="32" height="32" viewBox="0 0 32 32" fill="none" xmlns="http://www.w3.org/2000/svg">
<path d="M28.7162 8.92883C28.3411 8.55389 27.8325 8.34326 27.3022 8.34326C26.7719 8.34326 26.2632 8.55389 25.8882 8.92883L15.9882 18.8288L6.08818 8.92883C5.71098 8.56452 5.20577 8.36293 4.68138 8.36749C4.15699 8.37204 3.65536 8.58238 3.28455 8.9532C2.91373 9.32401 2.70339 9.82564 2.69884 10.35C2.69428 10.8744 2.89587 11.3796 3.26019 11.7568L14.5742 23.0708C14.9492 23.4458 15.4579 23.6564 15.9882 23.6564C16.5185 23.6564 17.0271 23.4458 17.4022 23.0708L28.7162 11.7568C29.0911 11.3818 29.3018 10.8732 29.3018 10.3428C29.3018 9.81251 29.0911 9.30389 28.7162 8.92883V8.92883Z" fill="#606266"/>
</svg>
