<svg width="32" height="32" viewBox="0 0 32 32" fill="none" xmlns="http://www.w3.org/2000/svg">
<path d="M3.28382 23.0712C3.65887 23.4461 4.16749 23.6567 4.69781 23.6567C5.22814 23.6567 5.73676 23.4461 6.11181 23.0712L16.0118 13.1712L25.9118 23.0712C26.289 23.4355 26.7942 23.6371 27.3186 23.6325C27.843 23.628 28.3446 23.4176 28.7155 23.0468C29.0863 22.676 29.2966 22.1744 29.3012 21.65C29.3057 21.1256 29.1041 20.6204 28.7398 20.2432L17.4258 8.92916C17.0508 8.55422 16.5421 8.34359 16.0118 8.34359C15.4815 8.34359 14.9729 8.55422 14.5978 8.92916L3.28382 20.2432C2.90887 20.6182 2.69824 21.1268 2.69824 21.6572C2.69824 22.1875 2.90887 22.6961 3.28382 23.0712Z" fill="#606266"/>
</svg>
