<svg width="32" height="32" viewBox="0 0 32 32" fill="none" xmlns="http://www.w3.org/2000/svg">
<g id="Frame">
<path id="Vector" d="M21.0001 27.8002V28.0002H5.00013V26.0002H19.0001C21.1219 26.0002 23.1567 25.1574 24.657 23.6571C26.1573 22.1568 27.0001 20.122 27.0001 18.0002C27.0001 15.8785 26.1573 13.8437 24.657 12.3434C23.1567 10.8431 21.1219 10.0002 19.0001 10.0002H11.0001V13.2002C10.9892 13.4185 10.8925 13.6236 10.731 13.7708C10.5696 13.918 10.3565 13.9955 10.1381 13.9862C9.95901 13.987 9.78366 13.9348 9.63413 13.8362L3.35413 9.65423C3.26367 9.59953 3.18586 9.52622 3.12587 9.43918C3.06589 9.35213 3.02508 9.25332 3.00617 9.14931C2.98726 9.0453 2.99067 8.93846 3.01618 8.83587C3.04169 8.73327 3.08871 8.63727 3.15413 8.55423C3.21114 8.48599 3.27865 8.42725 3.35413 8.38023L9.63413 4.20023C9.82058 4.0767 10.046 4.02615 10.2673 4.05825C10.4887 4.09034 10.6904 4.20283 10.8341 4.37423C10.9408 4.50539 10.9994 4.66914 11.0001 4.83823V8.00023H19.0001C21.48 7.99774 23.8724 8.91679 25.7128 10.579C27.5532 12.2412 28.7103 14.5279 28.9595 16.9952C29.2088 19.4626 28.5323 21.9345 27.0615 23.9312C25.5907 25.9278 23.4304 27.3067 21.0001 27.8002Z" fill="black" stroke="black"/>
</g>
</svg>
