<svg width="80" height="80" viewBox="0 0 80 80" fill="none" xmlns="http://www.w3.org/2000/svg">
<rect width="80" height="80" rx="10" fill="#AF99C7"/>
<path d="M42 41.4C45.6 38.8 48 34.6 48 30C48 22.2 41.8 16 34 16C26.2 16 20 22.2 20 30C20 34.8 22.4 39 26 41.4C17.8 44.6 12 52.6 12 62V64H16V62C16 52 24 44 34 44C44 44 52 52 52 62C52 62.6 52 63.4 51.8 64H55.8V62C56 52.6 50.2 44.6 42 41.4ZM34 40C28.4 40 24 35.6 24 30C24 24.4 28.4 20 34 20C39.6 20 44 24.4 44 30C44 35.6 39.6 40 34 40Z" fill="white" stroke="white"/>
<path d="M56.8 39.4002C58.8 37.6002 60 35.0002 60 32.0002C60 27.0002 56.4 22.8002 51.6 22.2002L51 26.2002C53.8 26.6002 56 29.2002 56 32.2002C56 35.6002 53.4 38.2002 50 38.2002V42.2002C57.8 42.2002 64 48.4002 64 56.2002C64 56.8002 64 57.6002 63.8 58.2002H67.8C67.8 57.6002 68 56.8002 68 56.2002C68 48.4002 63.4 42.0002 56.8 39.4002Z" fill="white" stroke="white"/>
</svg>
