<svg width="80" height="80" viewBox="0 0 80 80" fill="none" xmlns="http://www.w3.org/2000/svg">
<path fill-rule="evenodd" clip-rule="evenodd" d="M31.7977 57.7349L15.3127 41.2499C14.636 40.5733 13.8285 40.3649 12.8902 40.6249C11.9519 40.8849 11.366 41.4708 11.1327 42.3824C10.8994 43.2941 11.121 44.1141 11.7977 44.8424L31.7977 64.8424L71.7977 24.8424C72.266 24.3208 72.4877 23.7216 72.4627 23.0449C72.4377 22.3683 72.1769 21.7824 71.6802 21.2874C71.1835 20.7924 70.6102 20.5449 69.9602 20.5449C69.3102 20.5449 68.7244 20.7791 68.2027 21.2474L31.7977 57.7349Z" fill="white"/>
<path d="M31.7977 57.7349L31.4442 58.0885L31.7981 58.4424L32.1517 58.0881L31.7977 57.7349ZM15.3127 41.2499L15.6663 40.8964L15.3127 41.2499ZM11.7977 44.8424L11.4314 45.1827L11.4377 45.1895L11.4442 45.196L11.7977 44.8424ZM31.7977 64.8424L31.4442 65.196L31.7977 65.5495L32.1513 65.196L31.7977 64.8424ZM71.7977 24.8424L72.1513 25.196L72.1608 25.1865L72.1698 25.1764L71.7977 24.8424ZM68.2027 21.2474L67.8687 20.8754L67.8585 20.8845L67.8488 20.8943L68.2027 21.2474ZM32.1513 57.3814L15.6663 40.8964L14.9592 41.6035L31.4442 58.0885L32.1513 57.3814ZM15.6663 40.8964C14.8595 40.0896 13.8649 39.836 12.7567 40.1431L13.0237 41.1068C13.7922 40.8938 14.4126 41.0569 14.9592 41.6035L15.6663 40.8964ZM12.7567 40.1431C11.6531 40.4489 10.9279 41.1659 10.6483 42.2584L11.6171 42.5064C11.8041 41.7756 12.2506 41.321 13.0237 41.1068L12.7567 40.1431ZM10.6483 42.2584C10.37 43.3458 10.6468 44.3382 11.4314 45.1827L12.164 44.5021C11.5953 43.8899 11.4287 43.2424 11.6171 42.5064L10.6483 42.2584ZM11.4442 45.196L31.4442 65.196L32.1513 64.4889L12.1513 44.4889L11.4442 45.196ZM32.1513 65.196L72.1513 25.196L71.4442 24.4889L31.4442 64.4889L32.1513 65.196ZM72.1698 25.1764C72.7213 24.5621 72.9923 23.8377 72.9624 23.0265L71.963 23.0634C71.9831 23.6055 71.8107 24.0794 71.4256 24.5084L72.1698 25.1764ZM72.9624 23.0265C72.9325 22.2185 72.6159 21.5141 72.0332 20.9333L71.3272 21.6416C71.7378 22.0508 71.9429 22.518 71.963 23.0634L72.9624 23.0265ZM72.0332 20.9333C71.4509 20.353 70.7536 20.0449 69.9602 20.0449V21.0449C70.4668 21.0449 70.9161 21.2318 71.3272 21.6416L72.0332 20.9333ZM69.9602 20.0449C69.1768 20.0449 68.4743 20.3317 67.8687 20.8754L68.5367 21.6195C68.9745 21.2265 69.4437 21.0449 69.9602 21.0449V20.0449ZM67.8488 20.8943L31.4438 57.3818L32.1517 58.0881L68.5567 21.6006L67.8488 20.8943Z" fill="white"/>
</svg>
