<svg width="80" height="80" viewBox="0 0 80 80" fill="none" xmlns="http://www.w3.org/2000/svg">
<g id="circle-close">
<path id="Union" d="M36.485 40L29.375 32.9675C28.9067 32.4458 28.6725 31.8467 28.6725 31.17C28.6725 30.4933 28.92 29.9075 29.415 29.4125C29.91 28.9175 30.4958 28.67 31.1725 28.67C31.8492 28.67 32.4483 28.9042 32.97 29.3725L40.0025 36.4825L47.035 29.3725C47.765 28.6958 48.585 28.4875 49.495 28.7475C50.405 29.0075 50.9908 29.5933 51.2525 30.505C51.5142 31.4167 51.3058 32.2367 50.6275 32.965L43.5175 39.9975L50.6275 47.03C51.3042 47.76 51.5125 48.58 51.2525 49.49C50.9925 50.4 50.4067 50.9858 49.495 51.2475C48.5833 51.5092 47.7633 51.3008 47.035 50.6225L40.0025 43.5125L32.97 50.6225C32.4483 51.0908 31.8492 51.325 31.1725 51.325C30.4958 51.325 29.91 51.0775 29.415 50.5825C28.92 50.0875 28.6725 49.5017 28.6725 48.825C28.6725 48.1483 28.9067 47.5492 29.375 47.0275L36.485 40ZM40 70C48.49 69.7917 55.56 66.8617 61.21 61.21C66.86 55.5583 69.79 48.4883 70 40C69.7917 31.51 66.8617 24.44 61.21 18.79C55.5583 13.14 48.4883 10.21 40 10C31.51 10.2083 24.44 13.1383 18.79 18.79C13.14 24.4417 10.21 31.5117 10 40C10.2083 48.49 13.1383 55.56 18.79 61.21C24.4417 66.86 31.5117 69.79 40 70ZM40 75C30.1033 74.74 21.8608 71.3158 15.2725 64.7275C8.68417 58.1392 5.26 49.8967 5 40C5.26 30.1033 8.68417 21.8608 15.2725 15.2725C21.8608 8.68417 30.1033 5.26 40 5C49.8967 5.26 58.1392 8.68417 64.7275 15.2725C71.3158 21.8608 74.74 30.1033 75 40C74.74 49.8967 71.3158 58.1392 64.7275 64.7275C58.1392 71.3158 49.8967 74.74 40 75Z" fill="black"/>
</g>
</svg>
