<svg width="40" height="40" viewBox="0 0 40 40" fill="none" xmlns="http://www.w3.org/2000/svg">
<g id="close">
<path id="Union" d="M29.8441 8.39886L20.0004 18.2426L10.1566 8.39886C9.8958 8.16469 9.60288 8.04761 9.27788 8.04761C8.95288 8.04761 8.66621 8.17136 8.41788 8.41886C8.16955 8.66636 8.0458 8.95302 8.04663 9.27886C8.04746 9.60469 8.16455 9.89761 8.39788 10.1576L18.2416 20.0014L8.39788 29.8451C8.05955 30.1834 7.94871 30.5872 8.06538 31.0564C8.18205 31.5255 8.46871 31.8184 8.92538 31.9351C9.38205 32.0518 9.79205 31.9409 10.1554 31.6026L19.9991 21.7589L29.8429 31.6026C30.1037 31.8368 30.3966 31.9539 30.7216 31.9539C31.0466 31.9539 31.3333 31.8301 31.5816 31.5826C31.83 31.3351 31.9537 31.0484 31.9529 30.7226C31.952 30.3968 31.835 30.1039 31.6016 29.8439L21.7579 20.0001L31.6016 10.1564C31.94 9.81802 32.0508 9.41427 31.9341 8.94511C31.8175 8.47594 31.5245 8.18302 31.0554 8.06636C30.5862 7.94969 30.1825 8.06052 29.8441 8.39886Z" fill="#7566A9"/>
</g>
</svg>
