<svg width="60" height="60" viewBox="0 0 60 60" fill="none" xmlns="http://www.w3.org/2000/svg">
<rect x="1" y="1" width="58" height="58" rx="9" fill="#FFFCF9" stroke="#5E4F94" stroke-width="2"/>
<path fill-rule="evenodd" clip-rule="evenodd" d="M30 13.75C29.3096 13.75 28.75 14.3096 28.75 15V28.75H15C14.3096 28.75 13.75 29.3096 13.75 30C13.75 30.6904 14.3096 31.25 15 31.25H28.75V45C28.75 45.6904 29.3096 46.25 30 46.25C30.6904 46.25 31.25 45.6904 31.25 45V31.25H45C45.6904 31.25 46.25 30.6904 46.25 30C46.25 29.3096 45.6904 28.75 45 28.75H31.25V15C31.25 14.3096 30.6904 13.75 30 13.75Z" fill="#AF99C7"/>
</svg>
