<svg width="80" height="80" viewBox="0 0 80 80" fill="none" xmlns="http://www.w3.org/2000/svg">
<path d="M56.2854 62.51C58.0654 62.51 59.4854 63.93 59.4854 65.71V66.42C59.4854 68.2 58.0654 69.62 56.2854 69.62C55.8648 69.6214 55.4481 69.5395 55.0593 69.3791C54.6704 69.2188 54.3172 68.9831 54.0197 68.6857C53.7223 68.3883 53.4867 68.035 53.3263 67.6462C53.166 67.2573 53.0841 66.8406 53.0854 66.42V65.71C53.0854 63.93 54.5104 62.51 56.2854 62.51ZM13.0704 16.09H32.2754C33.7004 16.09 34.9454 17.34 34.9454 18.76C34.9284 19.3898 34.6956 19.9947 34.2861 20.4734C33.8765 20.9521 33.315 21.2757 32.6954 21.39L32.2754 21.425H13.0704C12.4406 21.4421 11.8358 21.6748 11.3571 22.0844C10.8783 22.494 10.5547 23.0555 10.4404 23.675L10.4004 24.095V60.195C10.4004 61.475 11.2654 62.615 12.6054 62.83L13.0704 62.865H48.1004C49.5254 62.865 50.7704 64.11 50.7704 65.53C50.7545 66.1607 50.5223 66.7667 50.1126 67.2465C49.703 67.7262 49.1408 68.0505 48.5204 68.165L48.1004 68.2H13.0704C8.87043 68.2 5.46543 65.025 5.10043 60.93L5.06543 60.195V24.1C5.06543 19.9 8.24043 16.495 12.3354 16.13L13.0704 16.095H32.2754L13.0704 16.09ZM56.2854 10.04C66.4254 10.04 74.7854 18.405 74.7854 28.72C74.7854 37.79 68.2004 45.26 59.4854 46.86V54.51C59.4854 56.285 58.0654 57.71 56.2854 57.71C55.8648 57.7114 55.4481 57.6295 55.0593 57.4691C54.6704 57.3088 54.3172 57.0731 54.0197 56.7757C53.7223 56.4783 53.4867 56.125 53.3263 55.7362C53.166 55.3473 53.0841 54.9306 53.0854 54.51V43.83C53.0854 42.05 54.5104 40.63 56.2854 40.63C59.4924 40.6274 62.5673 39.3522 64.835 37.0846C67.1026 34.8169 68.3778 31.742 68.3804 28.535C68.3938 26.943 68.09 25.3642 67.4869 23.8908C66.8838 22.4173 65.9934 21.0787 64.8676 19.9529C63.7418 18.8271 62.4032 17.9367 60.9297 17.3336C59.4563 16.7305 57.8775 16.4267 56.2854 16.44C53.0776 16.4453 50.003 17.7237 47.7371 19.9943C45.4711 22.265 44.1991 25.3422 44.2004 28.55C44.2004 30.325 42.7754 31.75 41.0004 31.75C40.5798 31.7514 40.1631 31.6695 39.7743 31.5091C39.3854 31.3488 39.0322 31.1131 38.7347 30.8157C38.4373 30.5183 38.2017 30.165 38.0413 29.7762C37.881 29.3874 37.7991 28.9706 37.8004 28.55C37.8004 18.41 46.1504 10.05 56.2904 10.05L56.2854 10.04ZM20.1854 48.105H30.8504C32.2704 48.105 33.5154 49.35 33.5154 50.77C33.4984 51.3998 33.2656 52.0047 32.8561 52.4834C32.4465 52.9621 31.885 53.2857 31.2654 53.4L30.8504 53.44H20.1854C19.4825 53.4235 18.8129 53.1369 18.3157 52.6397C17.8186 52.1425 17.5319 51.473 17.5154 50.77C17.5325 50.1403 17.7652 49.5354 18.1748 49.0567C18.5843 48.5779 19.1459 48.2544 19.7654 48.14L20.1854 48.105ZM20.1854 31.565H30.8504C32.2704 31.565 33.5154 32.81 33.5154 34.23C33.4995 34.8607 33.2673 35.4667 32.8576 35.9465C32.448 36.4262 31.8858 36.7505 31.2654 36.865L30.8504 36.9H20.1854C19.4825 36.8835 18.8129 36.5969 18.3157 36.0997C17.8186 35.6025 17.5319 34.933 17.5154 34.23C17.5325 33.6003 17.7652 32.9954 18.1748 32.5167C18.5843 32.0379 19.1459 31.7144 19.7654 31.6L20.1854 31.565Z" fill="black"/>
</svg>
