<svg width="80" height="80" viewBox="0 0 80 80" fill="none" xmlns="http://www.w3.org/2000/svg">
<path d="M30.04 30.4651C31.355 31.3551 32.91 31.8401 34.5 31.8501C36.6396 31.8501 38.6923 31.0036 40.21 29.4954C41.7276 27.9871 42.5868 25.9397 42.6 23.8001C42.6005 22.4111 42.2417 21.0457 41.5583 19.8365C40.8749 18.6273 39.8903 17.6154 38.7002 16.8994C37.5101 16.1833 36.1549 15.7873 34.7665 15.75C33.378 15.7126 32.0035 16.0352 30.7766 16.6862C29.5497 17.3373 28.5121 18.2947 27.7648 19.4655C27.0174 20.6362 26.5856 21.9804 26.5115 23.3673C26.4373 24.7543 26.7233 26.1369 27.3416 27.3806C27.9599 28.6243 28.8895 29.6869 30.04 30.4651ZM33 21.5551C33.294 21.3413 33.6281 21.1891 33.9823 21.1076C34.3365 21.026 34.7035 21.0169 35.0614 21.0806C35.4192 21.1443 35.7605 21.2797 36.0648 21.4785C36.3691 21.6773 36.6301 21.9355 36.8322 22.2376C37.0343 22.5397 37.1733 22.8795 37.2408 23.2367C37.3084 23.5938 37.3032 23.9609 37.2255 24.316C37.1478 24.6711 36.9992 25.0068 36.7886 25.303C36.578 25.5993 36.3098 25.85 36 26.0401C35.4053 26.405 34.6923 26.5255 34.0107 26.3763C33.3291 26.2272 32.7317 25.8199 32.3437 25.2399C31.9558 24.6599 31.8074 23.9523 31.9298 23.2653C32.0521 22.5784 32.4357 21.9655 33 21.5551Z" fill="black"/>
<path d="M13.05 75H45.25V74.8C45.966 74.8 46.6528 74.5156 47.1591 74.0092C47.6655 73.5029 47.95 72.8161 47.95 72.1C47.95 71.384 47.6655 70.6972 47.1591 70.1909C46.6528 69.6845 45.966 69.4 45.25 69.4H13.05C12.3425 69.4002 11.6632 69.1226 11.1582 68.627C10.6533 68.1314 10.3631 67.4574 10.35 66.75V53.55L22.95 40.95C23.3459 40.5472 23.8603 40.2814 24.4179 40.1914C24.9756 40.1015 25.5474 40.1921 26.05 40.45L40.7 47.75C42.2163 48.5022 43.931 48.7573 45.6006 48.479C47.2702 48.2007 48.8096 47.4033 50 46.2L69.6 26.35V45.25C69.6 45.9661 69.8844 46.6529 70.3908 47.1592C70.8971 47.6656 71.5839 47.95 72.2999 47.95C73.016 47.95 73.7028 47.6656 74.2091 47.1592C74.7155 46.6529 75 45.9661 75 45.25V13.05C75.0003 11.9759 74.7856 10.9125 74.3686 9.92254C73.9516 8.9326 73.3407 8.03613 72.5719 7.28594C71.8031 6.53575 70.8919 5.94703 69.892 5.55444C68.8921 5.16186 67.8238 4.97336 66.75 5.00004H13.05C10.915 5.00004 8.86742 5.84817 7.35775 7.35783C5.84808 8.8675 4.99996 10.9151 4.99996 13.05V52.185C4.99546 52.275 4.99546 52.3651 4.99996 52.455V66.75C4.98008 67.8221 5.17326 68.8875 5.56829 69.8843C5.96331 70.8811 6.55232 71.7896 7.30116 72.5571C8.05 73.3245 8.94376 73.9356 9.9306 74.355C10.9174 74.7743 11.9777 74.9936 13.05 75ZM10.35 45.88V13.05C10.35 12.334 10.6344 11.6472 11.1408 11.1409C11.6471 10.6345 12.3339 10.35 13.05 10.35H66.95C67.6573 10.3631 68.3313 10.6534 68.8269 11.1583C69.3225 11.6633 69.6001 12.3425 69.6 13.05V18.7L46.1 42.4C45.7084 42.8099 45.1936 43.0806 44.634 43.1709C44.0743 43.2611 43.5005 43.166 43 42.9L28.45 35.65C26.9387 34.8917 25.227 34.6284 23.5576 34.8977C21.8883 35.1669 20.3462 35.955 19.15 37.15L10.35 45.88Z" fill="black"/>
<path d="M59.4701 74.1902C59.9662 74.6965 60.6415 74.9875 61.3501 75.0002C61.7222 75.0012 62.0904 74.9254 62.4318 74.7773C62.7731 74.6293 63.0802 74.4123 63.3337 74.1401C63.5872 73.8678 63.7817 73.546 63.905 73.195C64.0283 72.844 64.0777 72.4712 64.0501 72.1002V57.5752L70.2501 63.4952C70.7511 63.9681 71.4113 64.2358 72.1001 64.2452V64.0952C72.6405 64.1005 73.1695 63.9405 73.6164 63.6367C74.0632 63.3328 74.4065 62.8997 74.6001 62.3952C74.7982 61.8947 74.8421 61.3465 74.7263 60.8208C74.6105 60.2952 74.3402 59.8161 73.9501 59.4452L64.5501 50.6452C64.1626 50.1685 63.6752 49.7827 63.1223 49.5149C62.5694 49.2471 61.9644 49.1038 61.3501 49.0952C60.7424 49.1007 60.1438 49.2428 59.5985 49.5112C59.0532 49.7795 58.5753 50.1671 58.2001 50.6452L48.8001 59.4452C48.5352 59.6863 48.323 59.9795 48.1767 60.3064C48.0304 60.6334 47.9533 60.987 47.9501 61.3452C47.9368 61.6974 47.9938 62.0487 48.1179 62.3785C48.2419 62.7084 48.4305 63.0102 48.6726 63.2662C48.9147 63.5223 49.2055 63.7275 49.5279 63.8699C49.8503 64.0122 50.1978 64.0888 50.5501 64.0952C51.2512 64.1226 51.9344 63.8708 52.4501 63.3952L58.7001 57.4952V72.2952C58.6983 73.0034 58.9749 73.684 59.4701 74.1902Z" fill="black"/>
</svg>
