<svg width="80" height="80" viewBox="0 0 80 80" fill="none" xmlns="http://www.w3.org/2000/svg">
<g id="FolderAdd">
<path id="Union" d="M10 15V65H70V25H37.95L27.93 15H10ZM7.5 10H29.99L40.02 20H72.5C73.163 20 73.7989 20.2634 74.2678 20.7322C74.7366 21.2011 75 21.837 75 22.5V67.5C75 68.163 74.7366 68.7989 74.2678 69.2678C73.7989 69.7366 73.163 70 72.5 70H7.5C6.83696 70 6.20107 69.7366 5.73223 69.2678C5.26339 68.7989 5 68.163 5 67.5V12.5C5 11.837 5.26339 11.2011 5.73223 10.7322C6.20107 10.2634 6.83696 10 7.5 10ZM37.5 42.5V32.5H42.5V42.5H52.5V47.5H42.5V57.5H37.5V47.5H27.5V42.5H37.5Z" fill="black"/>
</g>
</svg>
