<svg width="80" height="80" viewBox="0 0 80 80" fill="none" xmlns="http://www.w3.org/2000/svg">
<g id="Frame">
<path id="Vector" d="M72.0078 42.8943H27.7826C26.1616 42.8943 24.8498 41.5826 24.8498 39.9615C24.8498 38.3417 26.1616 37.0285 27.7826 37.0285H72.0078C73.6294 37.0285 74.9411 38.3416 74.9411 39.9615C74.9411 41.5826 73.6294 42.8943 72.0078 42.8943ZM72.0078 19.4315H27.7826C26.1616 19.4315 24.8498 18.1183 24.8498 16.4986C24.8498 14.879 26.1616 13.5658 27.7826 13.5658H72.0078C73.6294 13.5658 74.9411 14.879 74.9411 16.4986C74.9411 18.1183 73.6294 19.4315 72.0078 19.4315ZM10.6649 69.2895C7.42553 69.2895 4.79883 66.6632 4.79883 63.4242C4.79883 60.1847 7.42553 57.5586 10.6649 57.5586C13.904 57.5586 16.5306 60.1848 16.5306 63.4242C16.5306 66.6633 13.904 69.2895 10.6649 69.2895ZM10.6649 45.8271C7.42553 45.8271 4.79883 43.2004 4.79883 39.9616C4.79883 36.7219 7.42553 34.0957 10.6649 34.0957C13.904 34.0957 16.5306 36.7219 16.5306 39.9616C16.5306 43.2003 13.904 45.8271 10.6649 45.8271ZM10.6649 22.3642C7.42553 22.3642 4.79883 19.738 4.79883 16.4986C4.79883 13.2591 7.42553 10.6328 10.6649 10.6328C13.904 10.6328 16.5306 13.259 16.5306 16.4986C16.5306 19.7381 13.904 22.3642 10.6649 22.3642ZM27.7826 60.491H72.0078C73.6294 60.491 74.9411 61.8028 74.9411 63.4239C74.9411 65.045 73.6294 66.3568 72.0078 66.3568H27.7826C26.1616 66.3568 24.8498 65.045 24.8498 63.4239C24.8498 61.8028 26.1615 60.491 27.7826 60.491Z" fill="white"/>
</g>
</svg>
