<svg width="80" height="80" viewBox="0 0 80 80" fill="none" xmlns="http://www.w3.org/2000/svg">
<path d="M55.9984 47.6242L47.25 41.0633C45.9242 40.0695 44.0766 40.0695 42.7508 41.0633L35.0492 46.8383L24.7812 38.6242C23.4938 37.5938 21.7125 37.5156 20.343 38.4375L10 45.3922V17.5H65V45C65 46.3805 66.1195 47.5 67.5 47.5C68.8805 47.5 70 46.3805 70 45V17.2898C70 14.6484 67.8516 12.5 65.2102 12.5H9.78984C7.14844 12.5 5 14.6484 5 17.2898V62.7102C5 65.3516 7.14844 67.5 9.78984 67.5H47.5C48.8805 67.5 50 66.3805 50 65C50 63.6195 48.8805 62.5 47.5 62.5H10V51.4187L22.3719 43.1L34.9516 53.1625L45 45.625L52.9984 51.6234C54.107 52.457 55.6727 52.2273 56.4984 51.1242C57.3266 50.0195 57.1031 48.4523 55.9984 47.6242Z" fill="white"/>
<path d="M45 30C45 34.1359 48.3641 37.5 52.5 37.5C56.6359 37.5 60 34.1359 60 30C60 25.8641 56.6359 22.5 52.5 22.5C48.3641 22.5 45 25.8641 45 30ZM55 30C55 31.3781 53.8781 32.5 52.5 32.5C51.1219 32.5 50 31.3781 50 30C50 28.6219 51.1219 27.5 52.5 27.5C53.8781 27.5 55 28.6219 55 30ZM72.5 60H67.5V55C67.5 53.6195 66.3805 52.5 65 52.5C63.6195 52.5 62.5 53.6195 62.5 55V60H57.5C56.1195 60 55 61.1195 55 62.5C55 63.8805 56.1195 65 57.5 65H62.5V70C62.5 71.3805 63.6195 72.5 65 72.5C66.3805 72.5 67.5 71.3805 67.5 70V65H72.5C73.8805 65 75 63.8805 75 62.5C75 61.1195 73.8805 60 72.5 60Z" fill="white"/>
</svg>
