<svg width="80" height="80" viewBox="0 0 80 80" fill="none" xmlns="http://www.w3.org/2000/svg">
<path d="M65 39.9999C65 39.2699 65.2342 38.6708 65.7025 38.2024C66.1708 37.7341 66.77 37.4999 67.5 37.4999C68.23 37.4999 68.8292 37.7341 69.2975 38.2024C69.7658 38.6708 70 39.2699 70 39.9999V67.4999C70 68.2299 69.7658 68.8291 69.2975 69.2974C68.8292 69.7658 68.23 70 67.5 70H12.5C11.77 70 11.1708 69.7658 10.7025 69.2974C10.2342 68.8291 10 68.2299 10 67.4999V12.4999C10 11.7699 10.2342 11.1708 10.7025 10.7024C11.1708 10.2341 11.77 9.99994 12.5 9.99994H40C40.73 9.99994 41.3292 10.2341 41.7975 10.7024C42.2658 11.1708 42.5 11.7699 42.5 12.4999C42.5 13.2299 42.2658 13.8291 41.7975 14.2974C41.3292 14.7658 40.73 14.9999 40 14.9999H15V64.9999H65V39.9999ZM36.72 43.2824L40.86 42.7349L66.1725 17.3449C66.8492 16.6683 67.0708 15.8741 66.8375 14.9624C66.6042 14.0508 66.0183 13.4649 65.08 13.2049C64.1417 12.9449 63.3342 13.1533 62.6575 13.8299L37.2675 39.1424L36.72 43.2824ZM69.6875 10.3124C71.1458 11.7708 71.875 13.5283 71.875 15.5849C71.875 17.6416 71.1458 19.4258 69.6875 20.9374L43.8275 46.7974C43.4108 47.2141 42.9158 47.4749 42.3425 47.5799L34.14 48.7524C33.3067 48.8574 32.6033 48.6099 32.03 48.0099C31.4567 47.4099 31.2225 46.6941 31.3275 45.8624L32.5 37.6599C32.5517 37.0866 32.7858 36.6174 33.2025 36.2524L59.14 10.3149C60.65 8.85661 62.4075 8.12744 64.4125 8.12744C66.4175 8.12744 68.175 8.85661 69.685 10.3149L69.6875 10.3124Z" fill="white"/>
<path d="M67.5 70V69.5V70ZM10 67.4999H10.5H10ZM12.5 9.99994V10.4999V9.99994ZM15 14.9999V14.4999H14.5V14.9999H15ZM15 64.9999H14.5V65.4999H15V64.9999ZM65 64.9999V65.4999H65.5V64.9999H65ZM36.72 43.2824L36.2243 43.2169L36.1388 43.8637L36.7856 43.7781L36.72 43.2824ZM40.86 42.7349L40.9256 43.2306L41.0941 43.2083L41.2141 43.088L40.86 42.7349ZM66.1725 17.3449L65.8189 16.9914L65.8184 16.9919L66.1725 17.3449ZM62.6575 13.8299L63.0105 14.184L63.0111 14.1835L62.6575 13.8299ZM37.2675 39.1424L36.9145 38.7884L36.7941 38.9084L36.7718 39.0769L37.2675 39.1424ZM69.6875 10.3124L70.0411 9.95889L69.6874 9.60525L69.3339 9.95897L69.6875 10.3124ZM69.6875 20.9374L70.0411 21.2911L70.0473 21.2846L69.6875 20.9374ZM43.8275 46.7974L44.1811 47.151L43.8275 46.7974ZM42.3425 47.5799L42.4133 48.0749L42.4229 48.0735L42.4326 48.0718L42.3425 47.5799ZM34.14 48.7524L34.2025 49.2486L34.2108 49.2474L34.14 48.7524ZM31.3275 45.8624L30.8325 45.7917L30.8314 45.7998L31.3275 45.8624ZM32.5 37.6599L32.995 37.7307L32.9968 37.7178L32.998 37.7048L32.5 37.6599ZM33.2025 36.2524L33.532 36.6285L33.5444 36.6177L33.5561 36.606L33.2025 36.2524ZM59.14 10.3149L58.7926 9.95523L58.7864 9.96139L59.14 10.3149ZM69.685 10.3149L69.3377 10.6746L69.6912 11.016L70.0386 10.6684L69.685 10.3149ZM65.5 39.9999C65.5 39.3877 65.6915 38.9205 66.0561 38.556L65.3489 37.8489C64.7768 38.421 64.5 39.1522 64.5 39.9999H65.5ZM66.0561 38.556C66.4206 38.1915 66.8877 37.9999 67.5 37.9999V36.9999C66.6523 36.9999 65.9211 37.2768 65.3489 37.8489L66.0561 38.556ZM67.5 37.9999C68.1123 37.9999 68.5794 38.1915 68.9439 38.556L69.6511 37.8489C69.0789 37.2768 68.3477 36.9999 67.5 36.9999V37.9999ZM68.9439 38.556C69.3085 38.9205 69.5 39.3877 69.5 39.9999H70.5C70.5 39.1522 70.2232 38.421 69.6511 37.8489L68.9439 38.556ZM69.5 39.9999V67.4999H70.5V39.9999H69.5ZM69.5 67.4999C69.5 68.1122 69.3085 68.5793 68.9439 68.9439L69.6511 69.651C70.2232 69.0789 70.5 68.3477 70.5 67.4999H69.5ZM68.9439 68.9439C68.5794 69.3084 68.1123 69.5 67.5 69.5V70.5C68.3477 70.5 69.0789 70.2231 69.6511 69.651L68.9439 68.9439ZM67.5 69.5H12.5V70.5H67.5V69.5ZM12.5 69.5C11.8877 69.5 11.4206 69.3084 11.0561 68.9439L10.3489 69.651C10.9211 70.2231 11.6523 70.5 12.5 70.5V69.5ZM11.0561 68.9439C10.6915 68.5793 10.5 68.1122 10.5 67.4999H9.5C9.5 68.3477 9.77682 69.0789 10.3489 69.651L11.0561 68.9439ZM10.5 67.4999V12.4999H9.5V67.4999H10.5ZM10.5 12.4999C10.5 11.8877 10.6915 11.4205 11.0561 11.056L10.3489 10.3489C9.77682 10.921 9.5 11.6522 9.5 12.4999H10.5ZM11.0561 11.056C11.4206 10.6915 11.8877 10.4999 12.5 10.4999V9.49994C11.6523 9.49994 10.9211 9.77677 10.3489 10.3489L11.0561 11.056ZM12.5 10.4999H40V9.49994H12.5V10.4999ZM40 10.4999C40.6123 10.4999 41.0794 10.6915 41.4439 11.056L42.1511 10.3489C41.5789 9.77677 40.8477 9.49994 40 9.49994V10.4999ZM41.4439 11.056C41.8085 11.4205 42 11.8877 42 12.4999H43C43 11.6522 42.7232 10.921 42.1511 10.3489L41.4439 11.056ZM42 12.4999C42 13.1122 41.8085 13.5793 41.4439 13.9439L42.1511 14.651C42.7232 14.0789 43 13.3477 43 12.4999H42ZM41.4439 13.9439C41.0794 14.3084 40.6123 14.4999 40 14.4999V15.4999C40.8477 15.4999 41.5789 15.2231 42.1511 14.651L41.4439 13.9439ZM40 14.4999H15V15.4999H40V14.4999ZM14.5 14.9999V64.9999H15.5V14.9999H14.5ZM15 65.4999H65V64.4999H15V65.4999ZM65.5 64.9999V39.9999H64.5V64.9999H65.5ZM36.7856 43.7781L40.9256 43.2306L40.7944 42.2393L36.6544 42.7868L36.7856 43.7781ZM41.2141 43.088L66.5266 17.698L65.8184 16.9919L40.5059 42.3819L41.2141 43.088ZM66.5261 17.6985C67.325 16.8995 67.5999 15.9248 67.3219 14.8385L66.3531 15.0864C66.5417 15.8234 66.3733 16.437 65.8189 16.9914L66.5261 17.6985ZM67.3219 14.8385C67.0423 13.746 66.3171 13.0289 65.2135 12.7231L64.9465 13.6868C65.7196 13.901 66.1661 14.3556 66.3531 15.0864L67.3219 14.8385ZM65.2135 12.7231C64.1053 12.416 63.1107 12.6696 62.3039 13.4764L63.0111 14.1835C63.5576 13.637 64.178 13.4738 64.9465 13.6868L65.2135 12.7231ZM62.3045 13.4758L36.9145 38.7884L37.6205 39.4965L63.0105 14.184L62.3045 13.4758ZM36.7718 39.0769L36.2243 43.2169L37.2157 43.348L37.7632 39.208L36.7718 39.0769ZM69.3339 10.666C70.6988 12.0309 71.375 13.6613 71.375 15.5849H72.375C72.375 13.3953 71.5929 11.5107 70.0411 9.95889L69.3339 10.666ZM71.375 15.5849C71.375 17.5091 70.6982 19.1696 69.3277 20.5903L70.0473 21.2846C71.5935 19.6819 72.375 17.7741 72.375 15.5849H71.375ZM69.3339 20.5839L43.4739 46.4439L44.1811 47.151L70.0411 21.291L69.3339 20.5839ZM43.4739 46.4439C43.1282 46.7896 42.7248 47.0016 42.2524 47.0881L42.4326 48.0718C43.1069 47.9483 43.6935 47.6386 44.1811 47.151L43.4739 46.4439ZM42.2717 47.085L34.0692 48.2575L34.2108 49.2474L42.4133 48.0749L42.2717 47.085ZM34.0775 48.2564C33.3991 48.3418 32.8538 48.1483 32.3915 47.6645L31.6685 48.3554C32.3529 49.0716 33.2142 49.3731 34.2025 49.2485L34.0775 48.2564ZM32.3915 47.6645C31.9234 47.1746 31.7372 46.6092 31.8236 45.9251L30.8314 45.7998C30.7078 46.7791 30.99 47.6453 31.6685 48.3554L32.3915 47.6645ZM31.8225 45.9332L32.995 37.7307L32.005 37.5892L30.8325 45.7917L31.8225 45.9332ZM32.998 37.7048C33.0386 37.2539 33.2161 36.9053 33.532 36.6285L32.873 35.8763C32.3556 36.3296 32.0647 36.9193 32.002 37.6151L32.998 37.7048ZM33.5561 36.606L59.4936 10.6685L58.7864 9.96139L32.8489 35.8989L33.5561 36.606ZM59.4873 10.6746C60.909 9.3016 62.5437 8.62744 64.4125 8.62744V7.62744C62.2713 7.62744 60.391 8.41161 58.7927 9.95529L59.4873 10.6746ZM64.4125 8.62744C66.2813 8.62744 67.916 9.3016 69.3377 10.6746L70.0323 9.95529C68.434 8.41161 66.5537 7.62744 64.4125 7.62744V8.62744ZM70.0386 10.6684L70.0411 10.6659L69.3339 9.95897L69.3314 9.96147L70.0386 10.6684Z" fill="white"/>
</svg>
