<svg width="80" height="80" viewBox="0 0 80 80" fill="none" xmlns="http://www.w3.org/2000/svg">
<path d="M58.4551 42.1607L41.2496 52.0678L24.0449 62.0107C22.8809 62.6967 21.348 62.292 20.6605 61.0936C20.4316 60.7053 20.3426 60.2834 20.3426 59.8592H20.3066V20.1232C20.3066 18.7498 21.4348 17.6553 22.8105 17.6553C23.3051 17.6553 23.7801 17.7967 24.1863 18.0795L41.2496 27.9162L58.4551 37.8592C59.6535 38.5287 60.0418 40.0795 59.3543 41.2436C59.1246 41.6318 58.8434 41.9318 58.4551 42.1607ZM38.7824 47.7834L52.2512 39.9748L38.7824 32.1998L25.2777 24.4248V55.5748L38.7824 47.7834Z" fill="white" stroke="white"/>
</svg>
