<svg width="88" height="84" viewBox="0 0 88 84" fill="none" xmlns="http://www.w3.org/2000/svg">
<g id="Group 10">
<path id="Vector" d="M27.6126 46.2606C27.5558 46.3331 27.499 46.4089 27.4737 46.5005L23.0961 62.5633C22.8404 63.4983 23.1024 64.5059 23.7937 65.2165C24.3114 65.722 24.9931 66 25.719 66C25.9589 66 26.1987 65.9715 26.4355 65.9083L42.3714 61.5586C42.3968 61.5586 42.4094 61.5807 42.4283 61.5807C42.6113 61.5807 42.7913 61.5144 42.9271 61.3753L85.5399 18.7345C86.8056 17.4663 87.5 15.7384 87.5 13.8589C87.5 11.7283 86.5973 9.59932 85.0159 8.02139L80.9916 3.98759C79.4136 2.40497 77.283 1.5 75.1556 1.5C73.2778 1.5 71.5513 2.195 70.2823 3.46002L27.6757 46.1121C27.6317 46.153 27.6442 46.2131 27.6126 46.2606ZM81.3703 14.5586L77.1377 18.7915L70.276 11.8152L74.4487 7.6392C75.1083 6.97594 76.3865 7.07236 77.1441 7.83346L81.1713 11.8674C81.5913 12.2875 81.8311 12.8465 81.8311 13.3993C81.8281 13.8527 81.667 14.2633 81.3703 14.5586ZM35.1909 46.9303L65.9393 16.1554L72.8043 23.1364L42.1127 53.8511L35.1909 46.9303ZM29.5885 59.4076L31.8104 51.2451L37.738 57.1775L29.5885 59.4076Z" fill="#231F20"/>
<path id="Vector_2" d="M83.0959 31.7661C81.5019 31.7661 80.1949 33.0751 80.1889 34.7072V74.3591C80.1889 76.4385 78.5169 78.1272 76.455 78.1272H10.0464C7.98776 78.1272 6.3095 76.4386 6.3095 74.3591V9.63938C6.3095 7.55826 7.98776 5.86803 10.0464 5.86803H52.8174C54.4206 5.86803 55.7215 4.55278 55.7215 2.93314C55.7215 1.31699 54.4206 0 52.8174 0H9.60355C4.58471 0 0.5 4.12263 0.5 9.19509V74.8065C0.5 79.879 4.58471 84 9.60355 84H76.8947C81.9169 84 86 79.879 86 74.8065V34.6882C85.9934 33.0751 84.6899 31.7661 83.0959 31.7661Z" fill="#231F20"/>
</g>
</svg>
