<svg width="80" height="80" viewBox="0 0 80 80" fill="none" xmlns="http://www.w3.org/2000/svg">
<path d="M58.4556 42.1609L41.2501 52.068L24.0454 62.0109C22.8813 62.6969 21.3485 62.2922 20.661 61.0937C20.4321 60.7055 20.3431 60.2836 20.3431 59.8594H20.3071V20.1234C20.3071 18.75 21.4353 17.6555 22.811 17.6555C23.3056 17.6555 23.7806 17.7969 24.1868 18.0797L41.2501 27.9164L58.4556 37.8594C59.654 38.5289 60.0423 40.0797 59.3548 41.2437C59.1251 41.632 58.8438 41.932 58.4556 42.1609ZM38.7829 47.7836L52.2517 39.975L38.7829 32.2L25.2782 24.425V55.575L38.7829 47.7836Z" fill="black"/>
</svg>
