<svg width="80" height="80" viewBox="0 0 80 80" fill="none" xmlns="http://www.w3.org/2000/svg">
<rect width="80" height="80" rx="10" fill="#AF99C7"/>
<path d="M61.7692 24.5361C61.5189 24.38 61.3496 24.2608 61.1684 24.1632C54.2823 20.4492 47.3937 16.7399 40.512 13.0179C40.1311 12.8117 39.8317 12.789 39.4418 13.0039C37.1456 14.2702 34.8344 15.5097 32.5304 16.7618C32.3722 16.8477 32.2303 16.9636 32.0125 17.112C32.2486 17.2596 32.4022 17.368 32.5658 17.4565C39.4519 21.1708 46.3403 24.8801 53.2209 28.6042C53.624 28.8223 53.9353 28.8429 54.3451 28.6158C56.5824 27.3761 58.8363 26.1663 61.083 24.9441C61.2869 24.8332 61.4825 24.7072 61.7695 24.5364L61.7692 24.5361ZM49.0022 31.464C48.6912 31.2738 48.5199 31.1577 48.3384 31.0599C41.4562 27.348 34.5714 23.6407 27.6938 19.9197C27.3098 19.712 27.0128 19.7107 26.6281 19.9207C24.0268 21.3419 21.4114 22.7382 18.8024 24.1457C18.6088 24.25 18.4287 24.379 18.1851 24.5328C18.3982 24.6721 18.5167 24.7625 18.6462 24.8321C25.603 28.5867 32.5627 32.3363 39.5148 36.0996C39.9009 36.3086 40.1868 36.2214 40.528 36.0358C42.6792 34.8655 44.8376 33.7084 46.9934 32.5469C47.6146 32.2124 48.2357 31.8775 49.0024 31.464H49.0022ZM15.5957 28.3105V29.1188C15.5957 37.1398 15.6001 45.1611 15.5856 53.1822C15.5846 53.6967 15.734 53.993 16.2003 54.2443C23.145 57.9865 30.0788 61.7482 37.0168 65.5025C37.2114 65.6078 37.4238 65.6795 37.6911 65.7941C37.7092 65.4929 37.7298 65.3025 37.7298 65.1115C37.7316 57.026 37.7283 48.9402 37.7396 40.8546C37.7401 40.4107 37.5967 40.1571 37.2029 39.9447C30.2412 36.1884 23.2869 32.4186 16.3299 28.654C16.1301 28.5459 15.9185 28.4605 15.5957 28.3103V28.3105ZM64.3377 28.3036C63.9893 28.4703 63.7591 28.5683 63.5403 28.6868C56.6219 32.4318 49.7069 36.1829 42.7819 39.9155C42.338 40.155 42.1909 40.4335 42.1917 40.9261C42.2054 48.968 42.201 57.0105 42.2038 65.0527C42.2038 65.2754 42.2363 65.4978 42.2614 65.8217C42.5876 65.6602 42.8162 65.5559 43.0366 65.4364C49.8984 61.7224 56.7566 58.0022 63.6252 54.3014C64.139 54.0247 64.3542 53.7187 64.3524 53.1094C64.3299 45.1317 64.3374 37.154 64.3377 29.1761V28.3038V28.3036ZM68.8238 39.9292C68.8238 44.8736 68.7962 49.8183 68.8424 54.7625C68.8548 56.0918 68.3474 56.9011 67.1784 57.5251C58.5726 62.1206 49.988 66.7554 41.4043 71.3922C40.4253 71.9212 39.5143 71.9256 38.5337 71.3961C29.931 66.75 21.3257 62.1074 12.7036 57.4972C11.5849 56.8988 11.0933 56.113 11.0972 54.8332C11.1269 44.8367 11.1256 34.84 11.0972 24.8435C11.0938 23.6538 11.5885 22.9119 12.5877 22.3746C21.2555 17.713 29.9183 13.0421 38.5822 8.37355C39.5053 7.87601 40.4247 7.8773 41.3473 8.37433C49.9936 13.03 58.6389 17.688 67.2896 22.3359C68.3288 22.8944 68.855 23.6549 68.8437 24.9021C68.7964 29.911 68.8241 34.92 68.8238 39.9289V39.9292Z" fill="white"/>
</svg>
