<svg width="700" height="160" viewBox="0 0 700 160" fill="none" xmlns="http://www.w3.org/2000/svg">
<path d="M75.5799 117.57H61.1799L74.7799 53.9703L89.5799 51.9703L77.5799 108.07C78.5099 108.74 79.4499 109.24 80.3799 109.57C81.3099 109.9 82.2799 110.07 83.2799 110.07C88.6799 110.07 93.2299 105.62 96.9299 96.7203C100.63 87.8203 102.48 77.6003 102.48 66.0703C102.48 59.8003 101.25 55.0903 98.7799 51.9203C96.3099 48.7503 92.6799 47.1703 87.8799 47.1703C80.0799 47.1703 73.7599 49.3903 68.9299 53.8203C64.0999 58.2503 61.6799 64.1403 61.6799 71.4703C61.6799 72.7403 61.7599 73.8403 61.9299 74.7703C62.0999 75.7003 62.3799 76.6003 62.7799 77.4703C62.9099 77.7403 62.9999 77.9203 63.0299 78.0203C63.0599 78.1203 63.0799 78.2003 63.0799 78.2703C59.4799 78.2703 56.7999 77.5003 55.0299 75.9703C53.2599 74.4403 52.3799 72.1003 52.3799 68.9703C52.3799 65.3003 53.5599 61.7203 55.9299 58.2203C58.2999 54.7203 61.5499 51.6703 65.6799 49.0703C69.0799 47.0003 72.8299 45.4003 76.9299 44.2703C81.0299 43.1403 85.2499 42.5703 89.5799 42.5703C98.1099 42.5703 104.7 45.1203 109.33 50.2203C113.96 55.3203 116.28 62.3703 116.28 71.3703C116.28 76.2403 115.71 81.1703 114.58 86.1703C113.45 91.1703 111.85 95.8403 109.78 100.17C107.05 106.04 103.81 110.62 100.08 113.92C96.3499 117.22 92.5099 118.87 88.5799 118.87C86.5799 118.87 84.5599 118.42 82.5299 117.52C80.4999 116.62 78.4499 115.3 76.3799 113.57L75.5799 117.57Z" fill="black"/>
<path d="M150.58 72.1703V72.8703L151.68 67.5703H166.08L158.88 101.57C158.75 102.17 158.65 102.72 158.58 103.22C158.51 103.72 158.48 104.24 158.48 104.77C158.48 106.24 158.81 107.32 159.48 108.02C160.15 108.72 161.18 109.07 162.58 109.07C164.31 109.07 165.88 108.25 167.28 106.62C168.68 104.99 169.81 102.67 170.68 99.6703H174.88C172.75 105.8 169.98 110.42 166.58 113.52C163.18 116.62 159.25 118.17 154.78 118.17C151.91 118.17 149.63 117.37 147.93 115.77C146.23 114.17 145.25 111.9 144.98 108.97C142.91 112.04 140.63 114.34 138.13 115.87C135.63 117.4 132.95 118.17 130.08 118.17C125.95 118.17 122.7 116.77 120.33 113.97C117.96 111.17 116.78 107.2 116.78 102.07C116.78 98.3403 117.35 94.4403 118.48 90.3703C119.61 86.3003 121.18 82.6003 123.18 79.2703C125.65 75.3403 128.51 72.3203 131.78 70.2203C135.05 68.1203 138.61 67.0703 142.48 67.0703C145.08 67.0703 147.08 67.5203 148.48 68.4203C149.88 69.3203 150.58 70.5703 150.58 72.1703ZM149.68 77.0703C149.68 76.0703 149.31 75.1903 148.58 74.4203C147.85 73.6503 146.85 73.2703 145.58 73.2703C141.91 73.2703 138.66 76.3403 135.83 82.4703C133 88.6003 131.58 94.6703 131.58 100.67C131.58 103.27 131.95 105.22 132.68 106.52C133.41 107.82 134.71 108.47 136.58 108.47C138.31 108.47 140 107.64 141.63 105.97C143.26 104.3 144.35 102.2 144.88 99.6703L149.68 77.0703Z" fill="black"/>
<path d="M194.98 106.87C194.98 105.67 195.13 104.17 195.43 102.37C195.73 100.57 196.35 97.6999 197.28 93.7699C198.21 89.9699 198.81 87.2399 199.08 85.5699C199.35 83.8999 199.48 82.4999 199.48 81.3699C199.48 79.6999 199.18 78.4399 198.58 77.5699C197.98 76.6999 197.08 76.2699 195.88 76.2699C194.28 76.2699 192.8 77.0899 191.43 78.7199C190.06 80.3499 188.95 82.5999 188.08 85.4699L181.28 117.57H166.88L177.48 67.5699H191.88L190.78 72.7699C192.45 70.8999 194.25 69.4999 196.18 68.5699C198.11 67.6399 200.21 67.1699 202.48 67.1699C206.01 67.1699 208.75 68.1399 210.68 70.0699C212.61 71.9999 213.58 74.7999 213.58 78.4699C213.58 79.9999 213.4 81.8199 213.03 83.9199C212.66 86.0199 211.95 89.2399 210.88 93.5699C210.01 96.9699 209.45 99.3699 209.18 100.77C208.91 102.17 208.78 103.34 208.78 104.27C208.78 105.67 209.11 106.72 209.78 107.42C210.45 108.12 211.45 108.47 212.78 108.47C214.45 108.47 215.88 107.9 217.08 106.77C218.28 105.64 219.65 103.27 221.18 99.6699H225.38C223.25 105.87 220.66 110.5 217.63 113.57C214.6 116.64 210.98 118.17 206.78 118.17C203.05 118.17 200.15 117.15 198.08 115.12C196.01 113.09 194.98 110.34 194.98 106.87Z" fill="black"/>
<path d="M257.88 75.8699C257.88 78.1399 257.4 79.9199 256.43 81.2199C255.46 82.5199 254.18 83.1699 252.58 83.1699C252.04 83.1699 251.48 83.0699 250.88 82.8699C250.28 82.6699 249.68 82.3699 249.08 81.9699C249.48 80.8999 249.78 79.8699 249.98 78.8699C250.18 77.8699 250.28 76.9399 250.28 76.0699C250.28 74.7399 250.05 73.7199 249.58 73.0199C249.11 72.3199 248.41 71.9699 247.48 71.9699C244.55 71.9699 241.68 75.3499 238.88 82.1199C236.08 88.8899 234.68 95.2999 234.68 101.37C234.68 104.44 235.2 106.6 236.23 107.87C237.26 109.14 239.15 109.77 241.88 109.77C245.01 109.77 247.9 109.05 250.53 107.62C253.16 106.19 256.18 103.54 259.58 99.6699H262.98C259.11 105.94 254.91 110.59 250.38 113.62C245.85 116.65 240.88 118.17 235.48 118.17C230.08 118.17 226.46 116.84 223.83 114.17C221.2 111.5 219.88 107.54 219.88 102.27C219.88 98.4699 220.46 94.4399 221.63 90.1699C222.8 85.8999 224.41 82.0999 226.48 78.7699C228.95 74.7699 231.9 71.7499 235.33 69.7199C238.76 67.6899 242.58 66.6699 246.78 66.6699C250.45 66.6699 253.21 67.4499 255.08 69.0199C256.95 70.5899 257.88 72.8699 257.88 75.8699Z" fill="black"/>
<path d="M258.78 106.17C258.78 105.3 258.85 104.32 258.98 103.22C259.11 102.12 259.31 100.94 259.58 99.6703L266.38 67.5703H280.78L273.58 101.57C273.45 102.17 273.35 102.72 273.28 103.22C273.21 103.72 273.18 104.24 273.18 104.77C273.18 106.1 273.5 107.05 274.13 107.62C274.76 108.19 275.81 108.47 277.28 108.47C279.15 108.47 280.91 107.65 282.58 106.02C284.25 104.39 285.48 102.27 286.28 99.6703H290.48C288.35 105.74 285.48 110.34 281.88 113.47C278.28 116.6 274.15 118.17 269.48 118.17C266.15 118.17 263.53 117.12 261.63 115.02C259.73 112.92 258.78 109.97 258.78 106.17Z" fill="black"/>
<path d="M284.28 54.2705C284.28 56.4705 283.5 58.3405 281.93 59.8705C280.36 61.4005 278.48 62.1705 276.28 62.1705C274.08 62.1705 272.21 61.4005 270.68 59.8705C269.15 58.3405 268.38 56.4705 268.38 54.2705C268.38 52.0705 269.15 50.1905 270.68 48.6205C272.21 47.0505 274.08 46.2705 276.28 46.2705C278.48 46.2705 280.36 47.0505 281.93 48.6205C283.5 50.1905 284.28 52.0705 284.28 54.2705Z" fill="#AF99C7"/>
<path d="M309.78 106.87C309.78 105.67 309.93 104.17 310.23 102.37C310.53 100.57 311.15 97.6999 312.08 93.7699C313.01 89.9699 313.61 87.2399 313.88 85.5699C314.15 83.8999 314.28 82.4999 314.28 81.3699C314.28 79.6999 313.98 78.4399 313.38 77.5699C312.78 76.6999 311.88 76.2699 310.68 76.2699C309.08 76.2699 307.6 77.0899 306.23 78.7199C304.86 80.3499 303.75 82.5999 302.88 85.4699L296.08 117.57H281.68L292.28 67.5699H306.68L305.58 72.7699C307.25 70.8999 309.05 69.4999 310.98 68.5699C312.91 67.6399 315.01 67.1699 317.28 67.1699C320.81 67.1699 323.55 68.1399 325.48 70.0699C327.41 71.9999 328.38 74.7999 328.38 78.4699C328.38 79.9999 328.2 81.8199 327.83 83.9199C327.46 86.0199 326.75 89.2399 325.68 93.5699C324.81 96.9699 324.25 99.3699 323.98 100.77C323.71 102.17 323.58 103.34 323.58 104.27C323.58 105.67 323.91 106.72 324.58 107.42C325.25 108.12 326.25 108.47 327.58 108.47C329.25 108.47 330.68 107.9 331.88 106.77C333.08 105.64 334.45 103.27 335.98 99.6699H340.18C338.05 105.87 335.46 110.5 332.43 113.57C329.4 116.64 325.78 118.17 321.58 118.17C317.85 118.17 314.95 117.15 312.88 115.12C310.81 113.09 309.78 110.34 309.78 106.87Z" fill="black"/>
<path d="M369.08 72.1703V72.7703L370.18 67.5703H384.58L374.68 113.97C378.01 112.77 380.63 111.09 382.53 108.92C384.43 106.75 386.01 103.67 387.28 99.6703H391.48C389.94 104.74 387.76 108.8 384.93 111.87C382.1 114.94 378.38 117.1 373.78 118.37L372.28 125.57C371.08 131.17 368.98 135.4 365.98 138.27C362.98 141.14 359.08 142.57 354.28 142.57C350.88 142.57 348.16 141.7 346.13 139.97C344.1 138.24 343.08 135.87 343.08 132.87C343.08 129.6 344.43 126.72 347.13 124.22C349.83 121.72 353.91 119.64 359.38 117.97L360.58 112.67C358.85 114.47 356.98 115.84 354.98 116.77C352.98 117.7 350.85 118.17 348.58 118.17C344.45 118.17 341.2 116.77 338.83 113.97C336.46 111.17 335.28 107.2 335.28 102.07C335.28 98.3403 335.85 94.4403 336.98 90.3703C338.11 86.3003 339.68 82.6003 341.68 79.2703C344.15 75.3403 347.01 72.3203 350.28 70.2203C353.55 68.1203 357.11 67.0703 360.98 67.0703C363.58 67.0703 365.58 67.5203 366.98 68.4203C368.38 69.3203 369.08 70.5703 369.08 72.1703ZM358.38 122.97C355.05 124.24 352.58 125.55 350.98 126.92C349.38 128.29 348.58 129.8 348.58 131.47C348.58 132.34 348.91 133.1 349.58 133.77C350.25 134.44 351.05 134.77 351.98 134.77C353.11 134.77 354.21 133.97 355.28 132.37C356.35 130.77 357.18 128.6 357.78 125.87L358.38 122.97ZM368.18 76.9703C368.11 75.9003 367.71 75.0203 366.98 74.3203C366.25 73.6203 365.28 73.2703 364.08 73.2703C360.41 73.2703 357.16 76.3403 354.33 82.4703C351.5 88.6003 350.08 94.6703 350.08 100.67C350.08 103.27 350.45 105.22 351.18 106.52C351.91 107.82 353.21 108.47 355.08 108.47C356.68 108.47 358.26 107.74 359.83 106.27C361.4 104.8 362.48 102.94 363.08 100.67L368.18 76.9703Z" fill="black"/>
<path d="M411.08 117.57H396.68L410.28 53.9703L425.08 51.9703L420.38 74.1703H420.98C424.71 74.1703 428.05 72.4703 430.98 69.0703C433.91 65.6703 435.38 61.9703 435.38 57.9703C435.38 54.6403 434.23 52.0003 431.93 50.0703C429.63 48.1403 426.38 47.1703 422.18 47.1703C415.18 47.1703 409.26 49.4003 404.43 53.8703C399.6 58.3403 397.18 64.2003 397.18 71.4703C397.18 72.7403 397.26 73.8403 397.43 74.7703C397.6 75.7003 397.88 76.6003 398.28 77.4703C398.41 77.7403 398.5 77.9203 398.53 78.0203C398.56 78.1203 398.58 78.2003 398.58 78.2703C394.98 78.2703 392.3 77.5003 390.53 75.9703C388.76 74.4403 387.88 72.1403 387.88 69.0703C387.88 65.4703 389.03 61.9403 391.33 58.4703C393.63 55.0003 396.81 51.9703 400.88 49.3703C404.21 47.1703 407.9 45.4903 411.93 44.3203C415.96 43.1503 420.05 42.5703 424.18 42.5703C430.71 42.5703 435.89 44.0403 439.73 46.9703C443.56 49.9003 445.48 53.7403 445.48 58.4703C445.48 61.6003 444.58 64.6003 442.78 67.4703C440.98 70.3403 438.55 72.6403 435.48 74.3703C439.28 75.1003 442.2 76.8903 444.23 79.7203C446.26 82.5503 447.28 86.1403 447.28 90.4703C447.28 93.6003 446.81 96.9003 445.88 100.37C444.95 103.84 443.65 106.9 441.98 109.57C439.98 112.77 437.58 115.19 434.78 116.82C431.98 118.45 428.85 119.27 425.38 119.27C422.25 119.27 419.81 118.64 418.08 117.37C416.35 116.1 415.48 114.27 415.48 111.87C415.48 111.07 415.58 110.19 415.78 109.22C415.98 108.25 416.31 107.2 416.78 106.07C418.05 107.34 419.2 108.25 420.23 108.82C421.26 109.39 422.35 109.67 423.48 109.67C426.48 109.67 428.88 107.94 430.68 104.47C432.48 101 433.38 96.7403 433.38 91.6703C433.38 87.4703 432.58 84.3003 430.98 82.1703C429.38 80.0403 427.01 78.9703 423.88 78.9703C423.41 78.9703 422.73 79.0003 421.83 79.0703C420.93 79.1403 420.08 79.2003 419.28 79.2703L411.08 117.57Z" fill="black"/>
<path d="M449.38 102.17C449.38 98.3699 450 94.3399 451.23 90.0699C452.46 85.7999 454.15 81.9999 456.28 78.6699C458.75 74.7399 461.71 71.7499 465.18 69.7199C468.64 67.6899 472.51 66.6699 476.78 66.6699C481.05 66.6699 484.25 67.9999 486.38 70.6699C488.51 73.3399 489.58 77.3399 489.58 82.6699C489.71 82.7399 489.86 82.7899 490.03 82.8199C490.2 82.8499 490.41 82.8699 490.68 82.8699C492.75 82.8699 495.21 82.2999 498.08 81.1699C500.95 80.0399 503.61 78.5999 506.08 76.8699L506.98 79.5699C505.11 81.5699 502.63 83.2999 499.53 84.7699C496.43 86.2399 493.01 87.2699 489.28 87.8699C488.48 96.8699 485.88 104.14 481.48 109.67C477.08 115.2 471.71 117.97 465.38 117.97C460.18 117.97 456.21 116.64 453.48 113.97C450.75 111.3 449.38 107.37 449.38 102.17ZM477.58 72.7699C474.38 72.7699 471.36 75.9999 468.53 82.4699C465.7 88.9399 464.28 95.0699 464.28 100.87C464.28 104 464.63 106.14 465.33 107.27C466.03 108.4 467.38 108.97 469.38 108.97C471.85 108.97 474.2 106.97 476.43 102.97C478.66 98.9699 480.18 94.0399 480.98 88.1699C480.05 87.9699 479.36 87.5199 478.93 86.8199C478.5 86.1199 478.28 85.1699 478.28 83.9699C478.28 82.6999 478.55 81.5999 479.08 80.6699C479.61 79.7399 480.38 79.0399 481.38 78.5699C481.25 76.4399 480.9 74.9399 480.33 74.0699C479.76 73.1999 478.85 72.7699 477.58 72.7699Z" fill="black"/>
<path d="M527.77 72.1703V72.8703L528.87 67.5703H543.27L536.07 101.57C535.94 102.17 535.84 102.72 535.77 103.22C535.7 103.72 535.67 104.24 535.67 104.77C535.67 106.24 536 107.32 536.67 108.02C537.34 108.72 538.37 109.07 539.77 109.07C541.5 109.07 543.07 108.25 544.47 106.62C545.87 104.99 547 102.67 547.87 99.6703H552.07C549.94 105.8 547.17 110.42 543.77 113.52C540.37 116.62 536.44 118.17 531.97 118.17C529.1 118.17 526.82 117.37 525.12 115.77C523.42 114.17 522.44 111.9 522.17 108.97C520.1 112.04 517.82 114.34 515.32 115.87C512.82 117.4 510.14 118.17 507.27 118.17C503.14 118.17 499.89 116.77 497.52 113.97C495.15 111.17 493.97 107.2 493.97 102.07C493.97 98.3403 494.54 94.4403 495.67 90.3703C496.8 86.3003 498.37 82.6003 500.37 79.2703C502.84 75.3403 505.7 72.3203 508.97 70.2203C512.24 68.1203 515.8 67.0703 519.67 67.0703C522.27 67.0703 524.27 67.5203 525.67 68.4203C527.07 69.3203 527.77 70.5703 527.77 72.1703ZM526.87 77.0703C526.87 76.0703 526.5 75.1903 525.77 74.4203C525.04 73.6503 524.04 73.2703 522.77 73.2703C519.1 73.2703 515.85 76.3403 513.02 82.4703C510.19 88.6003 508.77 94.6703 508.77 100.67C508.77 103.27 509.14 105.22 509.87 106.52C510.6 107.82 511.9 108.47 513.77 108.47C515.5 108.47 517.19 107.64 518.82 105.97C520.45 104.3 521.54 102.2 522.07 99.6703L526.87 77.0703Z" fill="black"/>
<path d="M558.17 117.57H543.77L554.37 67.5703H568.77L567.47 73.7703C570.4 71.3003 572.72 69.6503 574.42 68.8203C576.12 67.9903 577.84 67.5703 579.57 67.5703C581.64 67.5703 583.3 68.2903 584.57 69.7203C585.84 71.1503 586.47 72.9403 586.47 75.0703C586.47 77.2003 585.8 78.8703 584.47 80.2703C583.14 81.6703 581.4 82.3703 579.27 82.3703C578.14 82.3703 577.25 82.1003 576.62 81.5703C575.99 81.0403 575.54 79.9403 575.27 78.2703C575.07 77.2003 574.84 76.5203 574.57 76.2203C574.3 75.9203 573.94 75.7703 573.47 75.7703C572.34 75.7703 571.27 76.0003 570.27 76.4703C569.27 76.9403 567.9 77.9703 566.17 79.5703L558.17 117.57Z" fill="black"/>
<path d="M616.48 72.1703V72.5703L621.38 49.5703L636.18 47.5703L624.68 101.57C624.55 102.17 624.45 102.72 624.38 103.22C624.31 103.72 624.28 104.24 624.28 104.77C624.28 106.1 624.6 107.05 625.23 107.62C625.86 108.19 626.91 108.47 628.38 108.47C630.11 108.47 631.68 107.7 633.08 106.17C634.48 104.64 635.61 102.47 636.48 99.6703H640.68C638.61 105.6 635.93 110.07 632.63 113.07C629.33 116.07 625.31 117.57 620.58 117.57C617.85 117.57 615.63 116.82 613.93 115.32C612.23 113.82 611.18 111.7 610.78 108.97C608.78 112.04 606.55 114.34 604.08 115.87C601.61 117.4 598.91 118.17 595.98 118.17C591.85 118.17 588.6 116.77 586.23 113.97C583.86 111.17 582.68 107.2 582.68 102.07C582.68 98.3403 583.25 94.4403 584.38 90.3703C585.51 86.3003 587.08 82.6003 589.08 79.2703C591.55 75.3403 594.41 72.3203 597.68 70.2203C600.95 68.1203 604.51 67.0703 608.38 67.0703C610.98 67.0703 612.98 67.5203 614.38 68.4203C615.78 69.3203 616.48 70.5703 616.48 72.1703ZM597.48 100.67C597.48 103.27 597.85 105.22 598.58 106.52C599.31 107.82 600.61 108.47 602.48 108.47C604.15 108.47 605.78 107.69 607.38 106.12C608.98 104.55 610.08 102.57 610.68 100.17V99.6703L615.58 76.7703C615.38 75.7003 614.93 74.8503 614.23 74.2203C613.53 73.5903 612.61 73.2703 611.48 73.2703C607.81 73.2703 604.56 76.3403 601.73 82.4703C598.9 88.6003 597.48 94.6703 597.48 100.67Z" fill="black"/>
<path d="M633 36C642.94 36 651 44.06 651 54" stroke="black" stroke-width="3" stroke-miterlimit="10" stroke-linecap="round"/>
<path d="M632.55 23.79C649.12 23.79 662.55 37.22 662.55 53.79" stroke="black" stroke-width="3" stroke-miterlimit="10" stroke-linecap="round"/>
<path d="M66.5498 126.21C56.6098 126.21 48.5498 118.15 48.5498 108.21" stroke="black" stroke-width="3" stroke-miterlimit="10" stroke-linecap="round"/>
<path d="M67 138.41C50.43 138.41 37 124.98 37 108.41" stroke="black" stroke-width="3" stroke-miterlimit="10" stroke-linecap="round"/>
<path d="M417.5 38V26C417.5 19.4 422.9 14 429.5 14H606.5C613.1 14 618.5 19.4 618.5 24V45" stroke="#5E4F94" stroke-width="3" stroke-miterlimit="10"/>
<path d="M618.5 122L618.36 133.09C618.36 139.69 612.96 145.09 606.36 145.09H429.36C422.76 145.09 417.36 139.69 417.36 133.09L417.5 122" stroke="#5E4F94" stroke-width="3" stroke-miterlimit="10"/>
</svg>
