<svg width="80" height="80" viewBox="0 0 80 80" fill="none" xmlns="http://www.w3.org/2000/svg">
<path d="M52.5003 69.4996V69.9996H12.5003V64.9996H47.5003C52.8046 64.9996 57.8917 62.8925 61.6425 59.1417C65.3932 55.391 67.5003 50.3039 67.5003 44.9996C67.5003 39.6953 65.3932 34.6082 61.6425 30.8575C57.8917 27.1067 52.8046 24.9996 47.5003 24.9996H27.5003V32.9996C27.4731 33.5452 27.2313 34.058 26.8276 34.426C26.4239 34.7941 25.8911 34.9877 25.3453 34.9646C24.8975 34.9666 24.4591 34.8361 24.0853 34.5896L8.38532 24.1346C8.15916 23.9978 7.96465 23.8146 7.81469 23.597C7.66472 23.3793 7.56271 23.1323 7.51543 22.8723C7.46816 22.6123 7.47668 22.3452 7.54045 22.0887C7.60422 21.8322 7.72178 21.5922 7.88532 21.3846C8.02785 21.214 8.19663 21.0672 8.38532 20.9496L24.0853 10.4996C24.5514 10.1908 25.115 10.0644 25.6683 10.1446C26.2217 10.2249 26.7261 10.5061 27.0853 10.9346C27.3521 11.2625 27.4986 11.6719 27.5003 12.0946V19.9996H47.5003C53.7001 19.9934 59.681 22.291 64.282 26.4465C68.883 30.6019 71.7758 36.3187 72.3989 42.4871C73.0219 48.6555 71.3308 54.8353 67.6538 59.827C63.9767 64.8186 58.5761 68.2659 52.5003 69.4996Z" fill="white" stroke="white"/>
</svg>
