<svg width="80" height="80" viewBox="0 0 80 80" fill="none" xmlns="http://www.w3.org/2000/svg">
<path d="M70.1187 22.3014L57.6989 9.88155C56.4952 8.6778 54.8612 8.00281 53.1596 8H14.4011C10.8715 8.01125 8.01123 10.8715 8 14.4011V65.5989C8.01125 69.1285 10.8715 71.9888 14.4011 72H65.5989C69.1285 71.9888 71.9888 69.1285 72 65.5989V26.8404C72.0056 25.136 71.3281 23.4995 70.1187 22.3014ZM27.2009 22.9398C26.6328 22.9398 26.09 22.7148 25.6878 22.3126C25.2856 21.9132 25.0606 21.3676 25.0606 20.7995V12.2611H31.4617V22.94L27.2009 22.9398ZM35.7393 12.2609H48.5385V20.7993C48.5385 21.3674 48.3135 21.913 47.9141 22.3124C47.512 22.7146 46.9663 22.9396 46.401 22.9396H35.7387L35.7393 12.2609ZM54.9399 67.7397H25.0604V57.0608C25.0716 53.5312 27.9291 50.6709 31.4615 50.6597H48.5418H48.539C52.0714 50.6709 54.9289 53.5312 54.9401 57.0608L54.9399 67.7397ZM67.7392 65.5994C67.7392 66.7806 66.7801 67.7397 65.5989 67.7397H59.2005V57.0608C59.2005 54.2343 58.0756 51.5203 56.0787 49.5232C54.0791 47.5236 51.3678 46.4014 48.5383 46.4014H31.4609C28.6315 46.4014 25.9203 47.5236 23.9204 49.5232C21.9236 51.5201 20.7986 54.2341 20.7986 57.0608V67.7397H14.4003C13.835 67.7341 13.2949 67.5035 12.8984 67.1013C12.4935 66.7075 12.2628 66.1647 12.26 65.5994V14.4017C12.26 13.2205 13.219 12.2614 14.4003 12.2614H20.7987V20.7998C20.8099 24.3294 23.6702 27.1897 27.1998 27.2009H46.4005C49.9301 27.1896 52.7876 24.3294 52.7988 20.7998V12.2614H53.1588C53.7297 12.267 54.2754 12.4976 54.6804 12.8998L67.1002 25.3196C67.5023 25.7246 67.733 26.2703 67.7386 26.8412L67.7392 65.5994Z" fill="white"/>
</svg>
