<svg width="12" height="12" viewBox="0 0 12 12" fill="none" xmlns="http://www.w3.org/2000/svg">
<path d="M10.0879 9.47252L11.7964 11.181C11.8783 11.2723 11.9193 11.3748 11.9193 11.4885C11.9193 11.6022 11.876 11.7025 11.7894 11.7894C11.7028 11.8763 11.6025 11.9196 11.4885 11.9193C11.3744 11.919 11.2719 11.8781 11.181 11.7964L9.47243 10.0879C8.26051 11.0811 6.91634 11.5344 5.43993 11.4478C3.96351 11.3612 2.68321 10.7574 1.59901 9.63654C0.560007 8.46111 0.0542121 7.13522 0.0816233 5.65886C0.109034 4.1825 0.664986 2.87936 1.74948 1.74942C2.87946 0.664964 4.18266 0.109033 5.65907 0.0816232C7.13548 0.0542131 8.46142 0.559989 9.6369 1.59895C10.7578 2.6834 11.3616 3.96366 11.4482 5.43973C11.5348 6.91579 11.0815 8.25991 10.0883 9.47208L10.0879 9.47252ZM5.76842 10.5796C7.13548 10.5431 8.26998 10.0738 9.17193 9.17159C10.0739 8.26939 10.5432 7.13493 10.58 5.76821C10.5435 4.4012 10.0742 3.26674 9.17193 2.36483C8.26969 1.46292 7.13519 0.993594 5.76842 0.956853C4.40136 0.993303 3.26686 1.46263 2.36492 2.36483C1.46297 3.26703 0.993628 4.40149 0.956886 5.76821C0.993337 7.13522 1.46268 8.26968 2.36492 9.17159C3.26715 10.0735 4.40165 10.5428 5.76842 10.5796Z" fill="#A8ABB2"/>
</svg>
