<svg width="64" height="64" viewBox="0 0 64 64" fill="none" xmlns="http://www.w3.org/2000/svg">
<path d="M8 12H26C27.1046 12 28 12.8954 28 14C28 15.1046 27.1046 16 26 16H8V12Z" fill="white"/>
<path d="M4 14C4 12.8954 4.89543 12 6 12H8V60H6C4.89543 60 4 59.1046 4 58V14Z" fill="white"/>
<path d="M8 56H52V58C52 59.1046 51.1046 60 50 60H8V56Z" fill="white"/>
<path d="M48 38C48 36.8954 48.8954 36 50 36C51.1046 36 52 36.8954 52 38V56H48V38Z" fill="white"/>
<path d="M29.9354 34.5858C29.1543 33.8047 29.1543 32.5384 29.9354 31.7574L56.8054 4.8873L59.6339 7.71573L32.7638 34.5858C31.9827 35.3668 30.7164 35.3668 29.9354 34.5858Z" fill="white"/>
<path d="M56 4H58C59.1046 4 60 4.89543 60 6V26C60 27.1046 59.1046 28 58 28C56.8954 28 56 27.1046 56 26V4Z" fill="white"/>
<path d="M36 6C36 4.89543 36.8954 4 38 4H58C59.1046 4 60 4.89543 60 6V8H38C36.8954 8 36 7.10457 36 6Z" fill="white"/>
<path d="M8 12H26C27.1046 12 28 12.8954 28 14C28 15.1046 27.1046 16 26 16H8V12ZM8 12H6C4.89543 12 4 12.8954 4 14V58C4 59.1046 4.89543 60 6 60H8M8 12V60M8 60H50C51.1046 60 52 59.1046 52 58V56M8 60V56H52M52 56V38C52 36.8954 51.1046 36 50 36C48.8954 36 48 36.8954 48 38V56H52ZM58 4H56V26C56 27.1046 56.8954 28 58 28C59.1046 28 60 27.1046 60 26V6M58 4C59.1046 4 60 4.89543 60 6M58 4H38C36.8954 4 36 4.89543 36 6C36 7.10457 36.8954 8 38 8H60V6M29.9354 34.5858C29.1543 33.8047 29.1543 32.5384 29.9354 31.7574L56.8054 4.8873L59.6339 7.71573L32.7638 34.5858C31.9827 35.3668 30.7164 35.3668 29.9354 34.5858Z" stroke="white"/>
</svg>
