<svg width="80" height="80" viewBox="0 0 80 80" fill="none" xmlns="http://www.w3.org/2000/svg">
<g clip-path="url(#clip0_361_627)">
<path d="M39.9337 57.4518L19.0887 69.0862L23.4516 46.3021L6 30.3048L29.7536 27.3962L39.9337 6.06641L50.1138 27.3962L73.8674 30.3048L56.4158 46.3021L60.7787 69.0862L39.9337 57.4518Z" fill="white"/>
<path d="M56.0767 25.3016L67.7112 16.5758L60.9244 9.78906L52.6834 21.4235L56.0767 25.3016ZM24.0821 25.3016L11.9629 16.5758L18.7496 9.78906L27.4754 21.4235L24.0821 25.3016Z" fill="white"/>
<path d="M61.9182 45.0029L74.0374 53.7287L66.7659 60.5155L58.5248 48.8811L61.9182 45.0029ZM18.2891 45.0029L6.16992 53.7287L12.9567 60.5155L21.6825 48.8811L18.2891 45.0029ZM37.6798 61.0003L35.256 73.6042H44.9513L42.0427 61.0003H37.6798Z" fill="white"/>
</g>
<defs>
<clipPath id="clip0_361_627">
<rect width="68" height="68" fill="white" transform="translate(6 6)"/>
</clipPath>
</defs>
</svg>
