<svg width="80" height="80" viewBox="0 0 80 80" fill="none" xmlns="http://www.w3.org/2000/svg">
<g clip-path="url(#clip0_361_628)">
<path d="M39.9337 6.06641L50.1138 27.3962L73.8674 30.3048L56.4158 46.3021L61.2635 69.0862L39.9337 57.4518L19.0887 69.0862L23.9364 46.3021L6 30.3048L29.7536 27.3962L39.9337 6.06641ZM46.7205 31.7591L39.9337 17.2161L33.147 31.7591L17.1497 33.6982L28.7841 44.363L25.3907 59.8756L39.9337 52.1193L53.992 59.8756L51.0834 44.363L62.7178 33.6982L46.7205 31.7591Z" fill="white"/>
<path d="M56.0767 25.1273L67.7112 16.4015L60.9244 9.61475L52.6834 21.7339L56.0767 25.1273ZM24.0821 25.1273L11.9629 16.4015L18.7496 9.61475L27.4754 21.7339L24.0821 25.1273Z" fill="white"/>
<path d="M61.9182 45.1772L74.0374 53.9031L66.7659 60.6898L58.5248 48.5706L61.9182 45.1772ZM18.2891 45.1772L6.16992 53.9031L12.9567 60.6898L21.6825 48.5706L18.2891 45.1772ZM37.6798 61.1746L35.256 73.7785H44.9513L42.0427 61.1746H37.6798Z" fill="white"/>
</g>
<defs>
<clipPath id="clip0_361_628">
<rect width="68" height="68" fill="white" transform="translate(6 6)"/>
</clipPath>
</defs>
</svg>
