<svg width="80" height="80" viewBox="0 0 80 80" fill="none" xmlns="http://www.w3.org/2000/svg">
<path d="M71.1667 57.1667C70.5762 57.1628 70.0016 56.9746 69.5233 56.6283L49.69 42.4617C49.3272 42.199 49.0318 41.854 48.8281 41.4551C48.6244 41.0561 48.5182 40.6146 48.5182 40.1667C48.5182 39.7187 48.6244 39.2772 48.8281 38.8782C49.0318 38.4793 49.3272 38.1343 49.69 37.8717L69.5233 23.705C69.9462 23.4039 70.4437 23.2248 70.9614 23.1872C71.4792 23.1496 71.9973 23.2549 72.4593 23.4917C72.9212 23.7286 73.3092 24.0877 73.5809 24.5301C73.8527 24.9724 73.9976 25.4809 74 26V54.3333C74.0011 54.8536 73.8589 55.3641 73.589 55.809C73.3191 56.2538 72.932 56.6157 72.47 56.855C72.0643 57.0548 71.6189 57.1613 71.1667 57.1667ZM56.2067 40.1667L68.3333 48.8367V31.4967L56.2067 40.1667ZM8.83334 57.1667C8.38109 57.1613 7.93576 57.0548 7.53001 56.855C7.06804 56.6157 6.68089 56.2538 6.411 55.809C6.14112 55.3641 5.99892 54.8536 6.00001 54.3333V26C6.0024 25.4809 6.14736 24.9724 6.41907 24.5301C6.69078 24.0877 7.07879 23.7286 7.54074 23.4917C8.00269 23.2549 8.52082 23.1496 9.03857 23.1872C9.55633 23.2248 10.0538 23.4039 10.4767 23.705L30.31 37.8717C30.6728 38.1343 30.9682 38.4793 31.1719 38.8782C31.3756 39.2772 31.4818 39.7187 31.4818 40.1667C31.4818 40.6146 31.3756 41.0561 31.1719 41.4551C30.9682 41.854 30.6728 42.199 30.31 42.4617L10.4767 56.6283C9.99838 56.9746 9.42383 57.1628 8.83334 57.1667ZM40 71.3333C39.2486 71.3333 38.5279 71.0348 37.9965 70.5035C37.4652 69.9721 37.1667 69.2514 37.1667 68.5V11.8333C37.1667 11.0819 37.4652 10.3612 37.9965 9.82986C38.5279 9.29851 39.2486 9 40 9C40.7515 9 41.4721 9.29851 42.0035 9.82986C42.5348 10.3612 42.8333 11.0819 42.8333 11.8333V68.5C42.8333 69.2514 42.5348 69.9721 42.0035 70.5035C41.4721 71.0348 40.7515 71.3333 40 71.3333Z" fill="white" stroke="white"/>
</svg>
