<svg width="80" height="80" viewBox="0 0 80 80" fill="none" xmlns="http://www.w3.org/2000/svg">
<path d="M54.0031 6H72.0031C73.1077 6 74.0031 6.89543 74.0031 8V26C74.0031 27.1046 73.1077 28 72.0031 28H54.0031C52.8986 28 52.0031 27.1046 52.0031 26V8C52.0031 6.89543 52.8986 6 54.0031 6ZM20.7097 52.9571L31.7097 70.9571C32.5241 72.2898 31.565 74 30.0031 74H8.00314C6.44128 74 5.48214 72.2898 6.29657 70.9571L17.2966 52.9571C18.0764 51.681 19.9298 51.681 20.7097 52.9571ZM21.0031 46C21.0031 47.1046 20.1077 48 19.0031 48C17.8986 48 17.0031 47.1046 17.0031 46V29C17.0031 21.8203 22.8234 16 30.0031 16C37.1828 16 43.0031 21.8203 43.0031 29V51C43.0031 55.9706 47.0326 60 52.0031 60C56.9737 60 61.0031 55.9706 61.0031 51V34C61.0031 32.8954 61.8986 32 63.0031 32C64.1077 32 65.0031 32.8954 65.0031 34V51C65.0031 58.1797 59.1828 64 52.0031 64C44.8234 64 39.0031 58.1797 39.0031 51V29C39.0031 24.0294 34.9737 20 30.0031 20C25.0326 20 21.0031 24.0294 21.0031 29V46Z" fill="white" stroke="white"/>
</svg>
