<svg width="80" height="80" viewBox="0 0 80 80" fill="none" xmlns="http://www.w3.org/2000/svg">
<path d="M15.8525 63.9777C15.6473 63.7715 15.4849 63.5268 15.3744 63.2577C15.264 62.9886 15.2078 62.7003 15.2091 62.4094C15.2104 62.1185 15.2691 61.8307 15.3818 61.5625C15.4946 61.2943 15.6591 61.0511 15.8661 60.8467C16.2858 60.433 16.8521 60.2023 17.4413 60.2049C18.0305 60.2074 18.5947 60.443 19.0108 60.8603C21.7596 63.627 25.0296 65.8213 28.6317 67.3163C32.2339 68.8113 36.0967 69.5773 39.9967 69.5701C46.932 69.5701 53.4967 67.1836 58.6471 62.9748L61.0098 60.7957C61.4431 60.3967 62.0165 60.1853 62.605 60.2076C63.1935 60.2299 63.7493 60.4841 64.1511 60.9146C64.3491 61.1276 64.5031 61.3776 64.6043 61.6501C64.7054 61.9227 64.7518 62.2126 64.7408 62.5032C64.7297 62.7937 64.6614 63.0793 64.5398 63.3434C64.4182 63.6075 64.2457 63.845 64.0321 64.0423L61.5708 66.3099C55.4875 71.2951 47.8618 74.0133 39.9967 73.9998C35.5098 74.007 31.0658 73.1251 26.9217 71.4049C22.7776 69.6847 19.0154 67.1603 15.8525 63.9777ZM73.1941 47.4759C73.0674 48.0521 72.7171 48.5543 72.2201 48.8721C71.7231 49.1899 71.1203 49.2973 70.5441 49.1706C69.968 49.0439 69.4657 48.6936 69.1479 48.1966C68.8301 47.6996 68.7227 47.0968 68.8494 46.5206C70.4406 39.3381 69.2838 31.8201 65.607 25.4481C61.9302 19.0762 56.0001 14.3125 48.9853 12.096C48.7083 12.0076 48.4514 11.8655 48.2293 11.6778C48.0072 11.4901 47.8243 11.2605 47.6909 11.0021C47.5575 10.7437 47.4763 10.4616 47.452 10.1719C47.4276 9.88209 47.4606 9.59037 47.549 9.31335C47.6374 9.03633 47.7795 8.77944 47.9672 8.55733C48.1548 8.33523 48.3844 8.15226 48.6428 8.01889C48.9012 7.88551 49.1833 7.80433 49.4731 7.77999C49.7629 7.75565 50.0546 7.78861 50.3316 7.87701C58.4032 10.4235 65.2275 15.9023 69.4585 23.2327C73.6895 30.5631 75.0199 39.2129 73.1873 47.4759H73.1941ZM24.287 15.2066C19.1689 18.4026 15.1573 23.0951 12.796 28.6478C10.4346 34.2006 9.83774 40.3452 11.0863 46.2486C11.2025 46.8237 11.0867 47.4214 10.7641 47.9114C10.4415 48.4015 9.93835 48.7442 9.36421 48.8648C8.79007 48.9855 8.19151 48.8743 7.69897 48.5556C7.20643 48.2368 6.85984 47.7363 6.73473 47.1631C5.19423 39.8632 6.10736 32.2588 9.3323 25.531C12.5572 18.8033 17.9135 13.3287 24.5692 9.95758C27.8362 8.08779 34.6491 5.72164 39.6908 6.04121C40.2585 5.92902 40.884 6.04121 41.3906 6.43557C41.8189 6.77553 42.0535 7.23788 42.1283 7.78182C42.1453 7.962 42.1011 8.12858 42.0603 8.31556C41.9796 8.63288 41.7983 8.91554 41.5436 9.12127L28.6623 23.5153C28.4104 23.7766 28.0881 23.959 27.7344 24.0405C27.3807 24.122 27.011 24.099 26.6702 23.9743C26.3168 23.865 26.0006 23.6601 25.7564 23.3823C25.5122 23.1045 25.3496 22.7647 25.2865 22.4002L24.287 15.2032V15.2066ZM23.9573 67.3569C23.7601 67.3264 23.4745 69.4647 21.6727 68.5468C18.4703 66.9116 12.4937 62.0535 10.0562 57.3416C9.853 57.1205 9.7001 56.8581 9.60796 56.5723C9.51583 56.2865 9.48665 55.9841 9.52243 55.686C9.59042 55.1421 9.86919 54.7001 10.2941 54.3602C10.4403 54.2514 10.6035 54.2038 10.7871 54.1426C11.1001 54.0484 11.4352 54.058 11.7424 54.1698L30.7157 57.8006C31.4059 57.9298 31.9668 58.5145 32.1368 59.2692C32.2256 59.6286 32.2133 60.0056 32.101 60.3584C31.9888 60.7113 31.7812 61.0261 31.501 61.2682L23.9539 67.3569H23.9573ZM71.5487 38.3581C71.6235 38.5451 73.6021 37.6884 73.7415 39.7044C73.9896 43.2944 72.9085 50.9197 70.1208 55.431C70.0369 55.7199 69.8913 55.9871 69.6941 56.2142C69.4969 56.4413 69.2528 56.623 68.9786 56.7467C68.7365 56.8517 68.4761 56.9075 68.2123 56.911C67.9485 56.9145 67.6867 56.8656 67.4419 56.7671C67.272 56.6991 67.1496 56.5801 67 56.4543C66.7591 56.2341 66.5958 55.942 66.5342 55.6214L59.871 37.4878C59.7591 37.1431 59.7497 36.7733 59.8439 36.4233C59.938 36.0733 60.1316 35.7581 60.4013 35.516C60.6634 35.2547 60.9926 35.071 61.3526 34.9852C61.7126 34.8994 62.0893 34.9148 62.4411 35.0299L71.5487 38.3615V38.3581Z" fill="white" stroke="white"/>
</svg>
