<svg width="80" height="80" viewBox="0 0 80 80" fill="none" xmlns="http://www.w3.org/2000/svg">
<path d="M47.6188 45.6971C47.8749 45.4405 48.1791 45.237 48.514 45.0981C48.8488 44.9593 49.2078 44.8877 49.5703 44.8877C50.3023 44.8877 51.0047 45.1791 51.5219 45.6971L66.3102 60.4799L66.3047 51.5502L66.3492 51.0541C66.6031 49.6494 67.8883 48.6713 69.3102 48.8002C70.732 48.9291 71.8195 50.1221 71.8172 51.5502V67.1932C71.8133 67.3096 71.8024 67.4252 71.7844 67.5408L71.768 67.6291C71.7508 67.7416 71.725 67.8518 71.6906 67.9603L71.6461 68.0869L71.6023 68.1971C71.4658 68.53 71.2633 68.8319 71.007 69.0846L71.1727 68.8971L71.1617 68.908L71.0899 68.9908L71.007 69.0846L70.9625 69.1291L70.9188 69.1736C70.5587 69.4964 70.1223 69.722 69.6508 69.8291L69.375 69.8682L69.0609 69.8955H53.4672L52.9711 69.8463C51.6641 69.6072 50.7133 68.4689 50.7109 67.14L50.7547 66.6439C50.9945 65.3346 52.1352 64.3838 53.4664 64.3846L62.3953 64.3736L47.6242 49.6002L47.3047 49.2143C46.5461 48.1197 46.6789 46.64 47.6188 45.6971ZM34.9578 45.6971C35.9 46.6385 36.0344 48.1182 35.2773 49.2135L34.9578 49.5994L20.1805 64.3713L29.1102 64.3822C30.4414 64.3814 31.5828 65.333 31.8219 66.6416L31.8664 67.1377C31.8641 68.4666 30.9141 69.6049 29.607 69.8439L29.1109 69.8932H13.5227L13.1922 69.8603L12.9273 69.8221C12.4152 69.7043 11.9457 69.4468 11.5711 69.0783L11.4883 68.99L11.4117 68.9017L11.4883 68.9846L11.3344 68.808L11.4008 68.8908L11.368 68.8471C11.2566 68.7099 11.1588 68.5624 11.0758 68.4064L10.9875 68.1971C10.9117 68.0128 10.8564 67.8208 10.8227 67.6244L10.8008 67.5361C10.7844 67.4213 10.775 67.3049 10.7727 67.1885V51.5455C10.7703 50.1174 11.8578 48.9244 13.2797 48.7955C14.7016 48.6666 15.9867 49.6447 16.2406 51.0494L16.2852 51.5455L16.2797 60.4799L31.068 45.6971C32.1438 44.6213 33.8891 44.6213 34.9648 45.6971H34.9578ZM29.1211 8.84473L29.6172 8.88926C30.9266 9.12832 31.8773 10.2697 31.8766 11.601L31.8273 12.0971C31.5875 13.4064 30.4469 14.3572 29.1156 14.3564L20.1859 14.3674L34.9633 29.1393L35.2828 29.5252C36.0844 30.6986 35.8625 32.2885 34.7711 33.1978C33.6789 34.1064 32.075 34.0369 31.0664 33.0361L16.2727 18.2588L16.2781 27.1885L16.2336 27.6846C15.9797 29.0893 14.6945 30.0674 13.2727 29.9385C11.8508 29.8096 10.7633 28.6166 10.7656 27.1885V11.5455C10.7656 11.4244 10.7766 11.3088 10.793 11.1932L10.8094 11.1049C10.8281 10.9924 10.8555 10.8822 10.8922 10.7744C11.0235 10.3501 11.2563 9.96424 11.5703 9.6502L11.4047 9.8377L11.3719 9.88223L11.493 9.73848L11.4156 9.82129L11.4875 9.74473L11.6641 9.5627C11.9016 9.34941 12.1734 9.17832 12.4688 9.05566L12.6891 8.97285C12.9586 8.88926 13.2391 8.84629 13.5211 8.84629L13.2398 8.85723H13.2781L13.3938 8.84629H29.1211V8.84473ZM69.1922 8.84473L69.3023 8.85566H69.3352C69.525 8.87832 69.7133 8.91738 69.8969 8.97129L70.1172 9.0541L70.3211 9.14785L70.5586 9.28535C70.7219 9.38926 70.8734 9.51113 71.0102 9.64941L71.0984 9.74316L71.1594 9.81973L71.1758 9.83066L71.2141 9.88066L71.3961 10.1283C71.5797 10.4275 71.707 10.7588 71.7711 11.1041L71.7875 11.1924C71.8039 11.308 71.8148 11.4236 71.8148 11.5393V27.1932C71.8023 28.6096 70.7188 29.7861 69.3086 29.9143C67.8977 30.0424 66.6195 29.0807 66.3531 27.6893L66.3086 27.1932V18.2541L51.5266 33.0369C50.5188 34.0486 48.9047 34.1236 47.8086 33.2088C46.7117 32.2939 46.4953 30.6932 47.3102 29.5197L47.6242 29.14L62.407 14.3682L53.4781 14.3572C52.1453 14.3604 51.0008 13.4088 50.7609 12.0979L50.7117 11.6018C50.7109 10.2705 51.6617 9.1291 52.9719 8.89004L53.468 8.84551H69.1922V8.84473Z" fill="white"/>
</svg>
